<?xml version="1.0" encoding="utf-8"?>
<!-- Generator: Adobe Illustrator 19.0.0, SVG Export Plug-In . SVG Version: 6.00 Build 0)  -->
<svg version="1.1" id="Doge" xmlns="http://www.w3.org/2000/svg" xmlns:xlink="http://www.w3.org/1999/xlink" x="0px" y="0px"
	 viewBox="112.9 230.5 100 100" style="enable-background:new 112.9 230.5 100 100;" xml:space="preserve">
<style type="text/css">
	.st0{fill:#988430;}
	.st1{fill:#7A6A2A;}
	.st2{fill:#BA9F33;}
	.st3{fill:#CFB66C;}
	.st4{fill:#E2CC85;}
	.st5{fill:#F1D789;}
	.st6{fill:#F4ECB4;}
	.st7{fill:#F3E19D;}
	.st8{fill:#F2E8B0;}
	.st9{fill:#F5EEC0;}
	.st10{fill:#E6DB9D;}
	.st11{fill:#E5CB7A;}
	.st12{fill:#D8C173;}
	.st13{fill:#E0CD81;}
	.st14{fill:#DFC57C;}
	.st15{fill:#E5CC7C;}
	.st16{fill:#D2C281;}
	.st17{fill:#E2C270;}
	.st18{fill:#CCB360;}
	.st19{fill:#D5B457;}
	.st20{fill:#D2B257;}
	.st21{fill:#D2B159;}
	.st22{fill:#C2A44D;}
	.st23{fill:#CAA13E;}
	.st24{fill:#B59544;}
	.st25{fill:#C89D3A;}
	.st26{fill:#CEB052;}
	.st27{fill:#CCA847;}
	.st28{fill:#C39D3C;}
	.st29{fill:#D2BA6B;}
	.st30{fill:#C0993A;}
	.st31{fill:#A88F33;}
	.st32{fill:#E3C571;}
	.st33{fill:#D8B65B;}
	.st34{fill:#D3AE4D;}
	.st35{fill:#F4EFC8;}
	.st36{fill:#EBCC73;}
	.st37{fill:#E5C66B;}
	.st38{fill:#E6BD62;}
	.st39{fill:#B6933F;}
	.st40{fill:#C49937;}
	.st41{fill:#DFC068;}
	.st42{fill:#C99E3D;}
	.st43{fill:#B58634;}
	.st44{fill:#E6C367;}
	.st45{fill:#DCBA5A;}
	.st46{fill:#E9CE77;}
	.st47{fill:#CDAE50;}
	.st48{fill:#D2A83E;}
	.st49{fill:#C29637;}
	.st50{fill:#AC8132;}
	.st51{fill:#A67A2E;}
	.st52{fill:#8C6228;}
	.st53{fill:#CBA94C;}
	.st54{fill:#BE9C44;}
	.st55{fill:#A17C34;}
	.st56{fill:#92723A;}
	.st57{fill:#B18E3E;}
	.st58{fill:#543E26;}
	.st59{fill:#806031;}
	.st60{fill:#B6903C;}
	.st61{fill:#685026;}
	.st62{fill:#D4B968;}
	.st63{fill:#CCA849;}
	.st64{fill:#585136;}
	.st65{fill:#252211;}
	.st66{fill:#C3B378;}
	.st67{fill:#E6D89C;}
	.st68{fill:#6F674D;}
	.st69{fill:#AC924C;}
	.st70{fill:#9F8E57;}
	.st71{fill:#EAC970;}
	.st72{fill:#D7BC6B;}
	.st73{fill:#453A25;}
	.st74{fill:#84754B;}
	.st75{fill:#F7F7E7;}
	.st76{fill:#F8F6DE;}
	.st77{fill:#D4C38B;}
	.st78{fill:#E2D59D;}
	.st79{fill:#CBAC5A;}
	.st80{fill:#D6BC6F;}
	.st81{fill:#DFC677;}
	.st82{fill:#C4A859;}
	.st83{fill:#927D49;}
	.st84{fill:#6E6342;}
	.st85{fill:#39331F;}
	.st86{fill:#292311;}
	.st87{fill:#3F3824;}
	.st88{fill:#2D2815;}
	.st89{fill:#82764F;}
	.st90{fill:#2D2816;}
	.st91{fill:#574F35;}
	.st92{fill:none;}
	.st93{fill:#DEC270;}
	.st94{fill:#CBAF59;}
	.st95{fill:#E3C677;}
	.st96{fill:#ECD592;}
	.st97{fill:#FFFFFF;fill-opacity:0.8;}
</style>
<circle class="st0" cx="163.2" cy="280.9" r="48.6"/>
<circle class="st1" cx="163.2" cy="280.9" r="47"/>
<circle class="st2" cx="163.2" cy="280.9" r="46.1"/>
<path class="st3" d="M135.9,275.7c-0.3-0.3-0.6-0.5-0.8-0.8c-0.3-0.3-0.5-0.5-0.8-0.8l-0.8-0.8c-0.1-0.1-0.3-0.3-0.4-0.4
	c-0.1-0.1-0.3-0.3-0.4-0.4c-1.1-1-2.2-2.1-3.2-3.1c1.1,1,2.2,2,3.3,3.1l0.4,0.4c0.1,0.1,0.3,0.3,0.4,0.4l0.8,0.8
	c0.3,0.3,0.5,0.5,0.8,0.8C135.4,275.2,135.6,275.5,135.9,275.7L135.9,275.7z M121.5,275.6c0,0,3.9,0.4,5.9,0.7
	c1.8,0.3,7.4,1.1,7.4,1.1L121.5,275.6z M121.5,275.6c1.1,0.1,2.2,0.2,3.3,0.3c0.6,0.1,1.1,0.1,1.7,0.2l0.8,0.1
	c0.3,0,0.5,0.1,0.8,0.1l3.3,0.5l1.7,0.3c0.5,0.1,1.1,0.2,1.7,0.3c-0.5-0.1-1.1-0.1-1.7-0.2l-1.7-0.2l-3.3-0.5
	c-0.3,0-0.5-0.1-0.8-0.1l-0.8-0.1c-0.5-0.1-1.1-0.1-1.7-0.2C123.7,275.9,122.6,275.7,121.5,275.6L121.5,275.6z M134.3,278.4
	c0,0-4.2,1.1-5.6,1.5c-1.4,0.4-5.6,1.7-5.6,1.7L134.3,278.4L134.3,278.4z"/>
<path class="st3" d="M134.3,278.4c-0.9,0.3-1.9,0.5-2.8,0.8l-2.8,0.8c-0.9,0.3-1.9,0.5-2.8,0.8l-1.4,0.4c-0.5,0.1-0.9,0.3-1.4,0.4
	c0.5-0.2,0.9-0.3,1.4-0.4l1.4-0.4c0.9-0.3,1.9-0.6,2.8-0.9c1-0.2,1.9-0.5,2.8-0.7C132.4,278.8,133.4,278.6,134.3,278.4L134.3,278.4
	L134.3,278.4z M123.7,284.1c0.5-0.2,5.8-2.7,7.1-3.2c0.6-0.3,2.4-0.9,2.4-0.9L123.7,284.1z"/>
<path class="st3" d="M123.7,284.1c0.4-0.2,0.8-0.3,1.2-0.5l1.2-0.5l2.3-1.1c0.8-0.4,1.5-0.8,2.3-1.1c0.4-0.2,0.8-0.3,1.2-0.4
	l0.6-0.2c0.2-0.1,0.4-0.1,0.6-0.2c-0.8,0.4-1.6,0.7-2.4,1c-0.8,0.4-1.6,0.7-2.4,1l-2.4,1C125.2,283.4,124.4,283.8,123.7,284.1
	L123.7,284.1L123.7,284.1z M124.2,286.3c0,0,4.8-2.8,6.5-3.8c0.9-0.5,3.7-1.9,3.7-1.9L124.2,286.3z"/>
<path class="st3" d="M124.2,286.3c0.8-0.5,1.7-1,2.5-1.5l1.2-0.8c0.4-0.3,0.8-0.5,1.3-0.7c0.4-0.3,0.8-0.5,1.3-0.7
	c0.2-0.1,0.4-0.2,0.6-0.3l0.7-0.3c0.9-0.4,1.7-0.9,2.7-1.2c-0.8,0.5-1.7,1-2.5,1.4c-0.4,0.2-0.9,0.4-1.3,0.7
	c-0.4,0.2-0.8,0.5-1.3,0.7c-0.4,0.3-0.8,0.5-1.3,0.7l-1.3,0.7L124.2,286.3L124.2,286.3L124.2,286.3z M134.3,281.3c0,0-3,2.3-4,3.1
	c-1,0.7-3.8,2.8-3.8,2.8L134.3,281.3z"/>
<polygon class="st4" points="151.6,299.9 150.1,297 151,293.4 157.4,290.9 154.7,285.3 156,279.7 158.5,274.6 166.3,273.4 
	172.1,267.9 184.4,268.9 186.9,282.1 182.2,298.8 179.5,307.4 168.7,307.8 163.7,304.3 157.8,301.9 "/>
<path class="st5" d="M170.6,299.8c0,0-1.5,0.7-4,0.5c-0.7-1-5.9-1.5-5.9-1.5s-0.6-0.2-1.8,0.3c-1.1,0.5-2.2,0.4-3.2,0.7
	c-1,0.3-2-1.1-2.8-1.3c-0.8-0.3-1.8-1-1.8-1l-2.2-0.2l-4.4-1.8l-6.9-6.9l-1.9,3l-0.6,3.7l2.1,4.3l5.7,5.2l11,2.8l6.5-1.9l8.2-3.5
	L170.6,299.8L170.6,299.8z"/>
<polygon class="st6" points="131.4,275.4 132.8,271.1 134.5,268.4 139.8,268 138.2,272.7 133.7,280.6 135.6,287.8 132.3,289.4 
	131.3,287.9 130.5,284.3 130.4,280.3 "/>
<path class="st7" d="M137.4,299.5l-1-1.4c0,0-0.3-0.7-0.1-1.3c0.2-0.6,0.1-0.6,0.1-0.9c-0.1-0.2-0.7-1-0.7-1.7
	c0-0.7-0.1-0.9,0.4-1.5c0.5-0.5,0.4-1.4,0.4-1.4l0.7,0.4l0.2-0.2c0,0,0.3,0.2,0.3,0.5c0.1-0.4-0.2-2.4,0.3-2.8s1.4,2.1,1.4,2.1
	l-0.6-3.7l-1.5-3.8l-2.6-3.5l-0.2-3.8v-0.3c0,0-1.2,1.8-1.5,3.3c-0.2,1,0.3,2.2,0.2,3.6c-0.1,1.4-0.2,1.3,0.1,1.9
	c0.3,0.6,1.2,1.7,0.9,2.5c-0.3,0.7-1.3,0.2-1.3,0.2s-0.2,0.6-0.5,0.8c-0.1-0.3-0.2-0.6-0.4-0.8c0,0.1-0.1,0.3-0.1,0.3
	s-0.2-0.5-0.3-1.2c-0.2-0.9-0.5-2.1-0.7-2.8c-0.1,0.4-0.3,1.5-0.3,1.5l0.1,1.7l0.6,2.4l0.6,1.6l0.6,1.9l0.5,1.3l0.4,1l0.4,2.2
	l1.8,1.9l1,0.4L137.4,299.5L137.4,299.5L137.4,299.5z"/>
<path class="st8" d="M132.3,271.9c0,0-1.3,2.2-1.7,4.4c-0.4,2.2-0.7,4.5-0.5,7.5c0.2,3,0.7,4.9,1,6.2c0.6,2.2,2.2,5.2,2.2,5.2
	l0.1-0.1c-0.3-0.5-0.5-1.1-0.6-1.6c-0.2-0.8-0.3-1.8-0.5-2.3c-0.2-0.4-0.5-0.8-0.6-1.4c-0.1-0.5-0.2-1.4-0.6-2
	c-0.2-0.3-0.4-0.9-0.4-1.6c-0.1-1,0-2.1-0.1-3c-0.2-1.5-0.3-2.5-0.1-3.3c0.2-0.8,1-3.1,1.5-4.8c0.3-1.1,0.1-2.1,0.7-3.1
	c0.6-1,1-1.9,1.1-2.5C134.1,268.9,132.3,271.9,132.3,271.9L132.3,271.9L132.3,271.9z"/>
<path class="st9" d="M138.4,271c0,0-0.7,0.2-1,0.5c-0.3,0.3-0.4,0.6-0.9,1.2c-0.4,0.6-0.4,1-0.8,1.7c-0.3,0.7-1.1,1.7-1.2,2.1
	c-0.1,0.4-0.3,2.1-0.4,2.9c-0.2,0.8,0.2,1.8,0.2,1.8l0.4-0.1c0,0,0,0.6,0.4,1c0.4,0.4,0.5-1.3,0.5-1.3l1.7-5.7l2.5-1.7l0.3-1.4
	L138.4,271L138.4,271L138.4,271z"/>
<path class="st10" d="M139.6,273.6c0,0-1.2,0.1-1.8,0.5c-0.2,0.2-0.3,0.3-0.6,0.5c-0.5,0.4-0.9,0.7-1.2,1.2
	c-0.3,0.5-0.5,1.3-0.7,2.7c-0.1,0.6-0.1,1.2-0.1,1.7c-0.1,0.7-0.2,1.2-0.1,1.6c0.1,0.8,0.9,1.1,0.9,2l1.6-0.8l1.5-6l3.2-2l-1.8-2
	L139.6,273.6L139.6,273.6L139.6,273.6z"/>
<path class="st11" d="M131.1,313.9c0-0.1,0-0.1,0-0.2c0.2-2,0.3-3.6,0.4-4.5c0.3-1.4,0.4-1.9,0.4-2.4c-0.1-0.8-0.1-1.4,0-2
	c0.1-0.8,0.9-1.8,0.9-2.5c0-0.5-0.3-0.9-0.5-1.2c-0.2-0.3-0.4-0.6-0.4-0.6s1.6-1.1,1.6-5.6c0,0,0.1,0,0.1,0l0.8,2.3l0.5,0.7l2.1,3.9
	l2.7,2.6l4,2.7l2.5,2.7l0.3,7.2l-3.2,4.2l-0.5,1C138.4,320,134.5,317.2,131.1,313.9L131.1,313.9z"/>
<path class="st12" d="M141.1,320.8c0,0,0.1-0.9,0.8-1.5c0.1,0.2,0.2,0.4,0.2,0.5c0.1-0.2,1.1-1.7,3.2-2.1c2.1-0.4,2.6-1.9,2.6-1.9
	l4.5-4.1l5.1-4.7l6.2-2.2l2.9-0.7c0,0,0.1,0.2-0.1,0.7c0.5,0,1.7-0.3,3-0.8c0.5-0.2,1-0.3,1.2,0c0.4,0.3,0.4,1.2,0.4,1.7
	c0.6-0.1,1.3-0.7,1.9-0.7c0.9,0.1,1.7,1.1,2.6,1.1c1.2,0,1.7-0.7,2.6-1.3c0.5-0.3,1.2-0.8,1.6-1.1c1-0.7,11.3-3.9,11.3-3.9l3.6,0.2
	l0.6,3.9l-0.3,10.2c0,0-0.1,0.1-0.1,0.1l-16.4,8.6l-22.8,3.5c-5.1-0.8-10-2.5-14.6-5L141.1,320.8L141.1,320.8L141.1,320.8z"/>
<path class="st5" d="M132.5,315.2c0.3-0.7,0.6-1.2,0.7-1.4c0,0.4,0.1,1.3,0.3,2.3C133.1,315.7,132.8,315.5,132.5,315.2L132.5,315.2z
	"/>
<path class="st13" d="M149.2,324.8l2.9-0.8l0.3,0.1c0,0,0.1,0.1,0.1,0.3c0.4-0.2,0.7-0.2,0.9-0.3c0.1,0.3,0.2,1.1,0.8,1.2
	c0.5,0.1,1.1-0.2,1.7-0.7c0.6-0.5,1.2-1,1.7-1.3c0.2,0.3,0.3,0.7,0.5,1c0.7-0.5,1.8-2.7,3.4-2.6c0.5-1.1,1.3-2.1,2.3-2.7
	c1.5-1,2.5-1.1,3.7-1c0.5-0.6,1.1-1.1,1.7-1.5c0.2,0.1,0.7,0.4,1.4,0.1c0.7-0.3,1.5-1.5,2.5-1.7c0.5-0.1,1.1,0,1.6,0.3
	c0,0,3-2.9,5-3.9c-0.1-0.2-0.2-1.1,2.2-3.1c0.1,0.1,0,0.4,0.1,0.5c0,0,0.6-0.3,1.4-0.8c0.9-0.7,2-1.4,2.7-1.6
	c1.2-0.4,2.6,0.4,2.6,0.4c0.1-0.1,0.2-0.1,0.4-0.2c0.3-0.1,0.5-0.1,0.7-0.2c0,0.4,0.2,1.1,0,1.7c0.2,0.1,0.5,0.2,0.8,0.3
	c-0.1,0.3-0.4,1-0.9,1.4c0.4,0.2,0.5,0.4,1,0.6c-0.2,0.3-0.6,0.9-0.8,1.2c-0.2,0.4-0.8,1.9-1.1,2.5c-0.3,0.6-0.7,1.7-0.9,1.9
	s-0.9,1.1-1.4,1.6c0.5-0.2,2.4-0.8,3.2-1c-0.2,0.4-1.5,2.2-2.6,3.9C175.6,327.2,161.8,328.8,149.2,324.8L149.2,324.8z"/>
<path class="st14" d="M139.8,273.4c0,0-0.7,0-0.8,0.1c-0.1,0.1,0.7,0.3,0.9,0.4s0.8,0.5,0.9,0.9c0.1,0.3,4.9,2.3,4.9,2.3l3.4-0.2
	l1.2-1.6l-2.2-1.9l1.6-4.6l-2.1,0.3l-5,3l-2.5,1L139.8,273.4L139.8,273.4z"/>
<path class="st15" d="M147.3,274.9c0.1,0.2,0.3,0.3,0.5,0.3c0.7,0,1.3,0.2,1.6,0.5c0.4,0.6,1.7,2.4,1.7,2.4l3,1.1l0.2-3.5l-3.2-2.3
	l-3.7,1.4L147.3,274.9L147.3,274.9L147.3,274.9z"/>
<path class="st16" d="M146.7,276.2c0,0,0.5,0,1.2-0.2c0.7-0.3,1.8-0.8,2.3-0.6c0.7,0.3,0.5,1.2,1.3,2c0.4,0.5,1.3,0.5,1.7,1
	c0.5,0.5,2.1,0.3,2.1,0.3l0.6,3.3l-2.4,3.1l-0.8,3.9h-3.3l-3-1.2l-1.5-3.6l0.7-3.6L146.7,276.2L146.7,276.2z"/>
<path class="st17" d="M153,276.4c0.1,0,0.2,0,0.3,0c-0.1,0.1-0.3,0.3-0.2,0.7c0.1,0.4,0.3,1,0.1,1.4c0.2,0.2,0.3,0.4,0.4,0.6
	c0.1,0.4,0.2,0.7,1,0.8c-0.1,0.1-0.2,0.2-0.3,0.3c0,0,0.6,0.5,0.9,1c0.3,0,1.1-0.3,1.1-0.3l0.2,0.1l0.4-0.2c0,0-0.3-0.1-0.1-1
	c0.2-0.7,0.4-0.7,0.5-0.8c0-0.1,0.2-0.8,0.2-1.1c0.1-0.4,0.2-1.7,0.2-1.7l-0.3-2.7l-1.4-0.9l-1.2-1.1l-1.1,2l-0.7,0.7l-0.1,1.8
	L153,276.4L153,276.4z"/>
<path class="st18" d="M156.4,274.1c0,0,0.3,0.7,0.3,1.3c0-0.1,0.1-0.2,0.1-0.3c0,0,0.2,1.1,0.2,1.5c0.1,0,0.2,0,0.2,0s0.2,1,0.2,1.4
	c0.3-0.5,0.8-1,1.3-1.3c0.3-0.2,0.7-0.4,1.1-0.4c0.6,0,1,0.4,1.8,0.4c1.7,0,3.3-1.3,4.5-1.7c0.9-0.3,1.6-0.5,2.1-1
	c0.3-0.2,0.7-0.7,1.1-1.4c0.5-0.9,1.1-1.7,1.7-1.8c-0.3,0-0.5,0.1-0.8,0.1c0,0,0.2-0.2,0.5-0.4c0.3-0.2,0.6-0.5,1.1-0.5
	c0.9,0,1.3,0.1,1.8,0.1c0.5,0,0.8-0.1,0.8-0.1s0.5,0.4,1.7,0.4c1.2,0,2,0.1,2.6,0.2s2.7-0.2,3.3-0.2c0.4,0,0.8,0.1,1.1,0.3l-1.9-5.6
	l-6.9-6l-4.1,2.9l-6.3,6.3l-6.1,2.3l-1.3,1.4L156.4,274.1L156.4,274.1z"/>
<path class="st19" d="M170.2,270.9c0,0,0.2-0.2,0.5-0.4c0.3-0.2,0.6-0.5,1.1-0.5c0.9,0,1.3,0.1,1.8,0.1c0.5,0,0.8-0.1,0.8-0.1
	s0.5,0.4,1.7,0.4c1.2,0,2,0.1,2.6,0.2c0.6,0.1,2.7-0.2,3.3-0.2c0.4,0,0.8,0.1,1.1,0.3l-0.9-2.5l-1-1.9l-2.9-3.2c0,0-3.5-2-3.5-2.1
	c0,0-1.2-0.3-1.2-0.3l-3.1,1.9l-2.9,7.4l-0.1,1.6l1.8,0.9c0.5-0.8,1-1.4,1.5-1.5C170.5,270.9,170.2,270.9,170.2,270.9L170.2,270.9
	L170.2,270.9z"/>
<path class="st20" d="M170.2,271.4c-0.3,0-0.5,0-0.6-0.2c-0.2-0.7-0.4-0.8-0.6-0.8c-0.2,0-0.5,0.4-0.6,0.5c-0.2,0-0.3-0.5-0.3-0.5
	l-0.2-0.1c0,0-1,0.7-1.7,1.4c-0.7,0.8-1.9,2.1-2.4,2.3c-0.5,0.2-2.3,0.3-3,0.4c-0.6,0.1-1.3,0.6-1.4,0.7c-0.1,0.1,0.3,0.2,0.3,0.3
	c0.1,0.1-0.6,0.1-0.7,0.2c0,0.1,0.2,0.5,0.3,0.8c0.2-0.1,0.4-0.1,0.5-0.1c0.6,0,1,0.4,1.8,0.4c1.7,0,3.3-1.3,4.5-1.7
	c0.9-0.3,1.6-0.5,2.1-1c0.3-0.2,0.7-0.7,1.1-1.4C169.6,272.2,169.9,271.7,170.2,271.4L170.2,271.4L170.2,271.4z"/>
<path class="st21" d="M145.1,310.3c0,0-0.2-0.6-1.6-2.1c-0.4-0.4-0.7-0.8-0.9-1c-0.7-0.6-1.1-0.8-1.6-1.2c-1.1-0.8-2.2-0.8-3.1-1.8
	c-0.9-1-1.9-2.8-2.7-4.7c-0.7-1.9-0.9-2.5-0.9-2.6c0-0.1,0.2-0.4,0.4-0.4c0.3,0.1,0.3,0.5,0.3,0.7c0.1,0.2,0.3,0.4,0.4,0.5
	c0.4,0.4,0.9,0.9,1.2,1.7c-0.1-0.6-0.3-1.4-0.3-1.4s1.4,0.9,2.6,1.8c1.2,0.9,1.7,1.2,2,1.8c0.3,0.6,1.2,2.1,1.6,2.6
	c0.4,0.4,5.8,2.1,5.8,2.1l2.6,1.9l1.3,2.8l-1,1.6l-1.9,0.4l-3.1-1.4L145.1,310.3L145.1,310.3L145.1,310.3z"/>
<path class="st22" d="M138.3,300.7c0,0,0.6,1,2.2,2c1.4,0.9,3.7,1.6,5.7,2.1c1.1,0.3,2.3,0.5,3.3,0.5c2.8,0,4.7-0.8,7.1-1
	c1.3-0.1,2.9-0.2,4.5-0.6c2.1-0.5,3.3-1.1,5-1.9c1.2-0.6,2.4-1,3.3-1.5c1.3-0.8,2.2-1.6,3.3-1.8c-0.1,0.4-0.3,1-1.3,1.7
	c0.6,0,1.3-0.1,1.3-0.1s-0.8,0.4-2.1,1.5c-0.8,0.6-1.9,1.7-3,2.4c-0.7,0.4-1.5,0.8-2,1c-1.2,0.7-1.7,1-2.6,1.9c0.3,0,0.3,0,0.3,0
	s-1,0.1-1.8,0.5c-0.2,0-0.4-0.1-0.9,0.1c-0.4,0.1-0.9,0.4-1.4,0.5c-0.7,0.2-1,0.1-1,0.1l0.1,0.2c0,0-0.9,0-1.2,0c0.1,0,0,0,0,0
	c-0.1,0-0.1,0-0.2,0.1c-0.1,0.1-0.3,0.2-0.5,0.2c-0.1,0-0.2,0-0.3,0c0,0.1,0.3,0.6,0.5,0.9c-0.1,0.1-1.9,1.4-1.9,1.4
	c0.1,0.1,0.1,0.2,0.1,0.3c0.1,0.2,0.1,0.4,0.1,0.5c0.1,0.2,0.2,0.3,0.2,0.3s-0.2,0-0.6,0.1c-0.3,0.1-0.7,0.2-1.2,0.3
	c-0.2,0-0.3,0-0.5,0c0.1,0.2,0.4,0.8-0.2,1.6c-0.6,0.8-0.8,0.9-1,1.4c-0.1-0.1-0.2-0.1-0.3-0.2c-0.2-0.1-0.5-0.2-0.6-0.4
	c-0.1,0.3-0.1,0.5-0.2,0.7c-0.2,0.5-0.5,1-0.5,1.4c-0.2-0.2-0.6-0.7-1.1-0.6c-0.5,0.1-1,0.8-1.1,1c0-0.1-0.1-0.2-0.1-0.1
	c0,0.2-0.3,2-2,3.4c0-0.4,0-1.2-0.1-1.5c-0.2,0.2-0.3,0.4-1.5,0.9c-1.1,0.5-0.9,1-0.9,1s-0.1-0.8,0.5-1.6c0.6-0.8,1-1.2,1-1.3
	c0-0.1,0-0.1-0.1-0.2c-0.1-0.1-0.2-0.2-0.2-0.2c0.1,0,1-0.5,1-1.4c-0.1-0.8-0.4-1.3-0.7-1.6c0,0,0.4-0.3,0.3-0.4
	c0-0.1-0.5-0.4-0.6-0.6c0-0.1,0-0.2,0.1-0.3c0.1-0.2,0.1-0.3,0.1-0.4c0-0.2-0.3-0.7-0.3-0.8c0.1,0,0.4,0,0.4,0s-0.3-0.5-0.4-0.7
	c-0.1-0.2-0.2-0.9-0.2-1c0.1,0,0.5,0,0.5,0c0-0.1-0.3-0.3-0.2-0.5c0.1,0,0.3,0.1,0.4,0.3c-0.1-0.3-0.3-0.7-0.6-0.9
	c0.2-0.1,0.7-0.2,1.1,0.1c0.5,0.3,0.6,0.7,0.6,0.7s0.3,0.2,0.7,0.5c0.5,0.4,1.1,0.9,2.1,1.3c0.2,0.1,0.8,0.1,1.1,0
	c0.2,0,0.3-0.1,0.5-0.2c0.1,0,0.1-0.1,0.2-0.1c-0.1-0.2-0.2-0.3-0.3-0.5c0.1,0,0.3,0,0.3,0s0.1-0.2-0.3-0.6c0.1-0.1,0.2-0.2,0.2-0.3
	c-0.1,0-0.4-0.2-0.4-0.3c0.1-0.1,0.2-0.2,0.3-0.3c-0.1-0.1-0.4-0.5-0.5-0.5c0.1,0,0.3-0.1,0.4-0.2c0,0-0.7-0.2-0.9-0.3
	c-0.2-0.2-0.5-0.4-0.7-0.5c-0.2-0.1-0.5-0.1-0.7-0.3c0.1,0,0.3,0,0.5,0c0.1,0,0.2,0,0.2,0c0-0.1,0-0.2,0.3-0.2
	c0.1,0,0.3-0.1,0.4-0.1c0,0-0.3,0-0.6-0.3c-0.3-0.3-0.6-0.6-0.8-0.6c-0.2,0-0.6,0.1-0.8,0.1c-0.3,0-0.4-0.2-0.4-0.2s-1,0.1-3.4-1.3
	c-2-1.2-2.9-2.3-2.9-2.3c-0.2-0.1-0.4-0.2-0.5-0.3C139.3,302.6,138.2,301.8,138.3,300.7L138.3,300.7L138.3,300.7z"/>
<path class="st23" d="M167.2,253.5c0.2,0.1,0.3,0.2,0.5,0.3c0.4,0.4,0.6,1.2-0.2,2.1c0.3,0.1,0.5,0.2,0.8,0.1c-0.3,0.3-1,1.1-1,1.7
	c0,0.5,0.3,0.7,0.3,0.7s-0.5,0.6-0.5,1.6c0.2-0.3,0.5-0.5,0.8-0.7c0.6-0.5,1.4-1,1.9-1.3c0,0.1,0,0.3,0.1,0.4c0,0,1-0.8,1.9-0.5
	c0.4,0.2,0.2,0.7,0.2,0.7s0.5-0.2,0.9,0.2s0.9,1.3,1.2,1.7c0.1,0.2,0.4,0.5,0.7,1c0.4,0.7,0.8,1.5,1.1,2.3c0-0.4,0.1-1,1.3-0.6
	c1.2,0.4,2.5,1.3,3.6,3c1.1,1.7,1.4,3.6,1.9,4.3c0.6,0.7,1.1,1.9,1.2,2.4c0,0.5-0.2,2.1,1,6.3c0.3-1.3,0.8-4.3,0.8-4.3l0.3-2.6
	l0.3-8l-8.4-6.9l-6.5-4.7l-4.3,0.4L167.2,253.5L167.2,253.5L167.2,253.5z"/>
<path class="st24" d="M182.7,265.5c0,0-0.1-0.8-2.1-2.1c-2-1.3-3.5-1.3-4.9-2.4c-1.1-0.9-2.2-2.9-3-3.5c-0.7-0.7-0.8-2.5-0.8-2.5
	l2.4-2l3.6-5.2l3-3.3l1.5,2l2,2.4l1.1,4.8l0.4,7L182.7,265.5L182.7,265.5z"/>
<path class="st25" d="M185.2,273.8c0.1-1.1-0.1-2.1-0.4-3.1c-0.5-1.6-1.7-4.5-2.2-5.5c-0.2-1.2-0.1-1.3,0.2-1.4
	c0.2-0.1,1.1-0.6,1.6-2.3c0.5-1.7,1.9-1.8,1.9-1.8l0.9-0.7l1.4,3.4l1.2,3.1l0.4,2.4l0.3,2l-0.6,4.2l-3.2,2.9L185.2,273.8
	L185.2,273.8L185.2,273.8z"/>
<path class="st26" d="M140.7,321.1L140.7,321.1c0.1-0.1,0.1-0.2,0.2-0.2c0.1-0.1,0.1-0.2,0.1-0.2c0.1,0,0.4-0.2,0.6-0.1
	c0.2,0,0.7,0.3,1,0.2c0.6,0,1.2-0.4,2.3-0.3c1.6,0.3,1.9,1.4,2.9,2c0.6,0.4,1.3,0.2,1.4,0.2h0.2c0,0,0.3-0.3,0.5-0.3
	c0.3,0,0.3,0.3,0.5,0.3c0.5,0.1,1.4-0.2,1.8-0.1c0.3,0.1,0.5,0.3,0.6,0.6c0.1,0.3,0,0.7-0.2,0.9c-0.5,0.4-1,0.9-1,1.2
	c0.1,0.1,0.2,0.2,0.3,0.3C148,324.5,144.2,323,140.7,321.1L140.7,321.1z"/>
<path class="st27" d="M182.6,305.4c0,0,1.2-1.6,1.7-2.4c0.4-0.8-1.3-11.4-1.3-11.4l3.6-11.6l-0.1-3.8c0,0,0.2-3.5,0.6-5
	c0.5,0.9,2,1.9,2.3,2.5c0.2-1.1,0.7-3.3,0.6-5.7c0.3,0.4,1,5,1,5l0.7,3l0.9,3.2l1,3.4l0.6,2.4l0.3,0.6l0.3,1l0.3,1.1l0.8,2.5
	l0.5,2.1l0.4,3.7c0.1,0.3,0.1,0.6,0.2,0.9c0,0.4-0.1,0.6-0.1,0.7c0,0.1,0.1,0.9,0.1,1.5c-0.1,0.6-0.1,1.1-0.6,1.6
	c-0.5,0.4-0.8,3.1-0.8,3.1l-0.9-0.6c0,0,0.2-0.8-0.2-1.5c-0.4-0.7-1.2-0.9-1.7-0.8c-0.4,0.1-1.3,0.2-1.6,0.5c-0.3,0.3-1,1-1.6,1.4
	c-0.8,0.5-2,0.5-2.7,0.7c-0.7,0.2-1.4,0.6-2.2,1.2C183.9,304.7,183.3,305.1,182.6,305.4L182.6,305.4L182.6,305.4z"/>
<path class="st28" d="M182.6,322.5c0,0,0.1,0,0.2,0.1c5.6-2.6,10.6-6.3,14.7-10.9c0-1.6-0.1-3.2-0.2-3.8c-0.1-1.3,0-2.6-0.1-3.3
	c0-0.8-0.5-3.8-0.7-4.6c-0.2-0.8-0.6-1.2-0.7-1.2c-0.1,0-0.4,1.5-0.4,1.9s-0.1,1.3-0.1,1.5c-0.1,0-0.1-0.2-0.1-0.2
	c-0.1,0.2-0.2,0.5-0.2,0.6s0.1-0.3,0-0.4c-0.1-0.1-0.2,0-0.1-0.2c0-0.1,0-0.2,0.1-0.3c0,0-0.2,0.3-0.4,1.2c-0.2,0.9-0.2,0.9-0.2,1
	c-0.1,0.1-0.4,0.4-0.4,0.5c0,0.2,0.3,0.4,0.3,0.5c0,0.2-0.3,1.1-0.4,1.6c-0.1,0.4-0.1,1.3-0.2,1.8c-0.1,0.4-0.2,0.6-0.4,0.8
	c0.2,0,0.4,0.1,0.4,0.1s0.3,1.2-0.4,2.2c-0.3,0.3-0.3,0.5-0.6,0.8c-0.5,0.6-0.9,1.2-1,1.7c0-0.1,0-0.3-0.1-0.4c0,0-0.8,1-1.2,1.5
	c-0.4,0.7-1.1,0.7-1.2,0.8c-0.2,0.2-0.2,0.5-0.2,0.7c-0.2,0-0.4,0.1-0.6,0.7c-0.1,0.3-0.3,0.6-0.7,0.8s-0.8,0.3-1,0.3
	c0.2,0.1,0.3,0.1,0.4,0.1c-0.1,0.2-0.7,0.5-1.3,0.9c-0.6,0.4-0.9,0.9-1,1.3c-0.2,0.3-0.4,0.5-0.8,0.6c0.2,0.1,0.4,0.3,0.5,0.4
	c-0.2,0-0.5,0-1,0.5C183,322.4,182.8,322.5,182.6,322.5L182.6,322.5L182.6,322.5z"/>
<path class="st29" d="M171.7,326.2c0.3-0.2,0.6-0.4,1-0.5c1.2-0.5,2.5-0.6,3-0.7c0.5-0.2,0.9-0.4,1.5-0.5c0,0.1,0,0.3,0,0.4
	C175.3,325.4,173.5,325.8,171.7,326.2L171.7,326.2z"/>
<path class="st30" d="M194.3,293.9c0,0-0.3,1.4-0.7,2.2c-0.4,0.9-0.9,2-0.9,2c0-0.3,0-0.5,0.1-0.8c-0.6,0.3-1.9,1.1-2.3,1.5
	c-0.4,0.3-1,0.9-1.1,1.2c0.4-1.1,0.8-2.1,0.8-2.5c-0.6,0.4-3.2,2.6-4.6,4l-4.3,3.5c-0.5,0.3-1,0.5-1.5,0.7c-0.7,0.3-1.6,0.6-2.3,0.8
	c0.2-0.5,0.4-0.9,0.8-1.3c0.4-0.4,1.6-1.7,1.8-2.3c0.2-0.6,0.2-1,0-1.6c-0.2,0.1-0.7,0.1-1,0.2c-0.3,0.1-0.7,0.4-0.7,0.4
	s0.3-1.4,0.8-2.8c-0.4,0-1.1,0.1-1.1,0.1s1-1.6,2.6-2.8c-0.5,0.1-1,0.3-1.5,0.5c-1,0.4-2,1-2.8,1.3c0.4-0.6,3.6-5.1,5.5-9.3
	c1.9-4.2,2.6-5.2,3-7.5c0.2-1.1,0.2-2.7,0.2-4.2c0.1-1.5,0.2-2.8,0.1-3.6c0.5,0.6,2.3,2.3,2.4,6.1c0.1,3.8-1.7,9-3.7,11.7
	c0.5,0.1,1.7,0.3,2.9-1.9c1.2-2.2,1.2-2.8,1.7-3.7c0.1,0.4,0,0.6,0,0.6s1.8-2.2,2.7-5c0.2,1.2,0.7,2.2-0.1,4.4
	c-0.7,2-1.7,2.4-1.7,2.4s0.5-0.1,1.1-0.5c0.1,0.3,0.1,0.6,0.3,0.7c0.2,0.1,0.5,0.3,0.5,0.5c0.2-0.3,0.5-0.7,0.6-1
	c-0.1,0.6-0.1,3.3,0.2,4.7c0.6-0.1,1.2-0.1,1.7-1.2c-0.3,1.1-0.3,1.7-0.1,2.6C194,294.3,194.3,293.9,194.3,293.9L194.3,293.9
	L194.3,293.9z"/>
<path class="st31" d="M173.8,250.6c0,0-0.6,0.3-1.6,0.3c-0.9,0-0.6-0.3-2-0.3c-2.2,0-9.7,1.2-11,1.2c-0.9,0,2.9,0.4,2.9,0.4l9.6,0.1
	l1.9-0.2l0.7-1.5L173.8,250.6z"/>
<path class="st32" d="M149,269.3c0,0-1.2,0.9-1.7,1.7c-0.5,0.7-0.8,1.2-1.4,1.8c0.1,0,0.3,0,0.4-0.1c0,0,0,0.2-0.1,0.2
	c0.2,0,0.3,0,0.4,0.2c-0.2,0.1-0.6,0.6-0.3,1.1c0.3,0.4,0.9,0.5,0.9,0.5s-0.1,0.4,0.4,0.3c1.2-0.1,2.5-0.6,3.2-0.4
	c0.6,0.2,1,0.2,1.4,1c0.5,0.8,0.9,0.9,0.9,0.9s0.3-0.7,0.2-1.7c0.2-0.6,0.4-1.2,0.4-1.8l-0.4-3l-1.8-2.3l-2.3,1.3L149,269.3
	L149,269.3z"/>
<path class="st33" d="M151.2,268.9c0,0,0.2,0.4,0.9,0.4c-0.1,0.2-0.1,0.2-0.1,0.3c0,0.1,0,0.3,0,0.3c0.1,0,0.2-0.1,0.2-0.2
	c0,0.2,0,0.4,0,0.6c0,0.1,0.1,0.2,0.1,0.3c0,0,0-0.1,0-0.1c0,0,0.2,0.4,0.5,0.8c0-0.1,0-0.1,0-0.2c0,0.1,0,0.2,0.1,0.3
	c0,0-0.1,0-0.1-0.1c0,0,0,1.2,0.3,1.9c0,0,0.1-0.1,0.1-0.1c0,0,0,0.3-0.1,0.6c-0.1,0.3,0,0.7,0,0.7c0.1-0.1,0.3-0.2,0.5-0.3
	c0.2-0.1,0.6-0.4,0.9-1c0.1-0.4,0.2-0.7,0.3-1.1c0.1,0.1,0.1,0.3,0.2,0.5c0,0.2,0.4,0.1,0.4,0.1l0.1-0.9l0.5-1.9l0.4-1.2l2-3.2
	l3.7-2.8l3.2,0.7l2.7-3.7l-4.7-2.8l-4.4,0.5l-4,5.6l-3.2,5.1L151.2,268.9L151.2,268.9L151.2,268.9z"/>
<path class="st34" d="M174.4,260.8c0,0-0.3,0.1-1.1,0.5c-0.8,0.4-1.3,0.5-1.7,1.1c-0.3,0.6-0.3,1.1-0.3,1.1s0.5-0.2,0.9-0.3
	c0.3-0.1,0.7-0.1,0.7,0.1c0,0.1-0.1,0.2-0.2,0.3c0,0,0.6,0,0.6,0.3c0,0.3-0.1,0.6-0.2,0.8c-0.1,0.2-0.6,0.4-0.7,0.6
	c-0.1,0.4,0.1,0.4,0,0.7c-0.1,0.3-0.3,0.9-1.2,1.8c-0.9,1-1.2,1.7-1.2,1.7s-0.4-0.8-0.6-1.5c-0.2,0.1-1,0.5-1,0.5l-1.9-6.7l0-0.4
	c0,0,0.2-0.2,0.2-0.6c-0.3-0.1-0.3-0.2-0.7-0.5s-0.7-0.8-1.3-1.1c-0.1-0.2-0.2-0.4-0.7-0.5s-0.8-0.2-0.8-0.2s0.3-0.1,0.4-0.3
	c-0.3,0-0.5,0.1-1.2,0.1c-0.6,0-0.7,0-1.1,0s-0.8,0.2-0.9-0.3c-0.2-0.1-0.5,0-0.9,0.4c-0.3,0.5-0.4,0.8-1,1c0,0.3-0.1,0.5-0.3,0.8
	c-0.2,0.3-0.4,0.6-0.8,1c-0.6,0.7-0.5,1.8-1.4,2.7c-0.9,0.9,0.2-2.4,0.2-2.4l1.5-3.6l4.3-4.2l6.6-0.4l0.6,3.4l3.2,1.1L174.4,260.8
	L174.4,260.8L174.4,260.8z"/>
<path class="st23" d="M175.5,261.6l-2.8-4l-1.9-1.5c0,0-1.4-2.5-1.5-2.6c-0.1-0.1-1.4-0.2-2.2-0.3l0.2,0.4c0.2,0.1,0.3,0.2,0.5,0.3
	c0.4,0.4,0.6,1.2-0.2,2.1c0.3,0.1,0.5,0.2,0.8,0.1c-0.3,0.3-1,1.1-1,1.7c0,0.5,0.3,0.7,0.3,0.7s-0.5,0.6-0.5,1.6
	c0.2-0.3,0.5-0.5,0.8-0.7c0.6-0.5,1.4-1,1.9-1.3c0,0.1,0,0.3,0.1,0.4c0,0,1-0.8,1.9-0.5c0.4,0.2,0.2,0.7,0.2,0.7s0.5-0.2,0.9,0.2
	s0.9,1.3,1.2,1.7c0.1,0.2,0.4,0.5,0.7,1c0.4,0.7,0.8,1.5,1.1,2.3c0-0.3,0.1-0.8,0.6-0.8L175.5,261.6L175.5,261.6z"/>
<path class="st35" d="M133.8,272.9c0,0-0.2-0.5,0-1.4c0.2-1,0.5-1.4,0.6-2.8c0.1-1.4,1-3.1,1-3.1l2.5-1.1l1.8,0.5l0.5,2.4l-2.3,1.2
	c0,0-0.1,0.5-0.8,1c-0.6,0.4-1.5,0.8-1.7,1.2c-0.1,0.3-0.2,0.5-0.3,0.8c0,0-0.6-0.1-1,0.3C133.8,272.2,133.9,272.6,133.8,272.9
	L133.8,272.9z"/>
<path class="st36" d="M138.9,272.3c0,0-0.2,0.1-0.4,0.5c-0.2-0.3-0.5-1.7-0.5-3.1c0-1.3-0.1-1.7,0.2-2.1s1.5-1,1.4-1.8
	c-0.2-0.8-0.9-1.1-1.8-0.9c-0.6,0.2-1.1,1.5-1.7,2.1c-0.5,0.5-1.1,0.4-1.2,0.7c-0.2,0.4,0,0.7-0.1,1c0,0.1-0.2,0.5-0.6,1
	c-0.7,1-1.9,2.5-2.1,3.8c0.1-0.7,0-0.8,0.2-1.6l-0.1-0.2l0.8-2.5l0.5-2.1l1.1-3.5l2-3.6l1.9-2.2l2,0.1l0.2,3l1.1,5.7l2.4,3l-3.9,2.6
	L138.9,272.3L138.9,272.3L138.9,272.3z"/>
<path class="st37" d="M140.1,273.4c0,0-0.3,0.1-0.4,0c-0.1-0.1-0.2-0.1-0.2-0.2s0.3-0.2,0.3-0.3c0-0.1-0.1-0.2-0.2-0.2
	c-0.2,0-0.2,0.1-0.2,0.1s-0.2-0.1-0.3-0.2c0.1,0,0.2,0,0.3,0c-0.2-0.1-0.4-0.2-0.7-0.2c0.2-0.1,0.6-0.5,0.8-0.5c0.3,0,0.4,0,0.4-0.2
	c0-0.1-0.2-0.3-0.4-0.4c0.1-0.1,0.1-0.2-0.1-0.6c-0.2-0.4-0.1-0.6-0.1-0.7c0.1-0.1,0.3-0.3,0.3-0.5c0.1-0.1,0.2-0.3,0.3-0.4
	c0.1-0.1,0.3-0.2,0.6-0.3c0.3-0.1,0.5-0.2,0.7-0.1c0.2,0.1,0.1,0.3,0.1,0.3s0.5-0.2,1,0.1c0.5,0.2,1.7,0.4,1.7,0.4l0.4,0.9l-2.8,2.4
	l-1.2,0.6L140.1,273.4L140.1,273.4L140.1,273.4z"/>
<path class="st38" d="M144,269.4c0,0-0.9,0.6-1.1,0.8c0.1,0,0.3,0.1,0.2,0.2c-0.1,0.1-0.7,0.5-1,0.9c-0.3,0.4-0.6,0.9-0.8,1.1
	c-0.1,0.2-1,0.8-1.3,0.9c0.6,0,1.9-0.8,2.4-0.8c0,0.2,0.1,0.5,0.4,0.5c0.3,0,1.1,0.2,2.1-0.5c1.1-0.6,0.7-1.1,1.2-1.4
	c0.9-0.6,1.2-1.1,1.7-1.4s0.7-0.4,0.7-0.4s0-0.2,0.2-0.2c0.1,0,0.1,0.1,0.2,0.1c0,0,0.8-0.6,1.9-0.7c0,0,0,0-0.1-0.1
	c0,0,0.1,0,0.1-0.1c0,0,0.1-0.1,0.1,0c0,0,0.1,0.3,0.2,0.4c0.2-0.1,0.5-0.8,0.5-0.8l0.8-2.3v-2.1l-0.6,0.1l-4.7,2l-2.8,2.9
	L144,269.4L144,269.4z"/>
<path class="st39" d="M157.5,259.2c0.3-0.1,0.5-0.2,0.7-0.3c-0.1,0.3-0.1,0.5-0.5,1.1c-0.4,0.6-0.4,0.7-0.8,1.3
	c-0.3,0.6-0.4,1.6-0.7,2c0.1-0.1,0.3-0.1,0.4-0.1c0,0-0.3,0.3-0.4,0.6c-0.1,0.3-0.4,0.9-1,1.3c-0.6,0.4-1.3,0.6-2.1,1.5
	c-0.8,0.9-1.6,1.9-2,2.3c0.2-0.4,0.5-1.1,0.6-1.6s0-1.1,0.1-1.7c0.1-0.6,0.1-1.1,0.8-2.2c0.6-1.1,1.7-5,1.7-5l2.4-0.8L157.5,259.2
	L157.5,259.2L157.5,259.2z"/>
<path class="st40" d="M155.8,257.8c0,0-0.7,1-0.9,1.9c-0.2,0.9,0,0.8-0.1,1.3c-0.1,0.3-0.1,0.6,0,0.8c0.2-0.4,0.6-0.7,1-1
	c0.7-0.4,1.2-0.7,1.6-1c0.3-0.4,0.6-1,1.3-1.4c-0.3,0-0.7-0.2-0.8-0.2c0.3-0.3,1.2-0.8,2-1.4c0.9-0.6,0.8-0.9,2.2-1.5
	c-0.5,0.1-0.7,0-1.1,0c0.2-0.3,0.7-0.5,1.2-1c0.5-0.5-0.3-1.3-0.3-1.3l-4.1,2.5L155.8,257.8L155.8,257.8z"/>
<polygon class="st41" points="144.5,255.9 144.6,255.2 145.8,253.3 147,249.9 147,245.3 146.9,242.7 147.1,241 147.3,240.4 
	147.4,240.2 148.5,240.7 149.9,242.6 150,246.3 148.6,252.1 144.7,256.3 "/>
<path class="st31" d="M147.6,240c0,0-0.6,0-0.8,2.6c-0.1,2.6-0.2,3.9-0.3,5.2c-0.1,1.3-0.3,2.1-0.4,2.8c-0.1,0.8-0.2,1.8-0.5,2.4
	c-0.2,0.3-0.5,1.2-1.3,1.9c-0.9,0.8-2.2,1.3-2.4,1.3c-0.3,0.1-2.1,0.3-2.8,0.6c-0.3,0.1-0.7,0.3-1.2,0.7c-1,0.9-2.2,2.4-3.1,4.2
	c-1.4,2.8-2.8,10.6-2.8,10.6l0.3-0.5c0,0,0-0.7,0.7-1.9c0.7-1.2,0.5-2.6,1.4-5c0.4-0.9,0.8-2.1,1.4-3.1c0.9-1.6,2-3,3.1-3.8
	c1.8-1.2,3.8-1.5,3.8-1.5l2.1-1.4c0,0,0.4-0.7,0.9-1.5c0.7-1.1,1.6-2.4,1.7-4.3c0.3-2.8-0.4-4.6-0.4-6.2s0.1-2.8,0.4-3.1
	C147.8,239.9,147.6,240,147.6,240L147.6,240L147.6,240z"/>
<path class="st42" d="M147.6,252.3c0,0,0.9-2.3,1.4-4.3c0.1-0.4,0.2-0.8,0.3-1.1c0.2-1.9,0.3-2.7,0-3.8c-0.2-0.8-1-1.5-1.3-2
	c-0.4-0.6-0.6-0.8-0.5-0.9s0.4-0.3,0.7-0.3c0.6,0,1.2,0.3,1.7,0.8c0.6,0.7,1.1,3.1,1.1,3.1l0.5,3.1l1.3,3.9L147.6,252.3L147.6,252.3
	L147.6,252.3z"/>
<path class="st43" d="M156.4,250c0,0-0.2,0.1-0.5,0c0,0.3-0.1,0.5-0.3,0.7c-0.3-0.1-3.4,0.1-3.4,0.1s-1.4-0.3-1.9-2.2
	c-0.3-1.3,0.2-3,0.1-4.2c-0.3-1.7-0.7-2-0.7-2.5s-0.1-0.7-0.1-1c-0.2,0-0.3-0.1-0.4-0.1c0-0.2,0-0.3-0.1-0.6c0.1,0,0.7,0.1,1.5,0.8
	c0.6,0.6,0.6,0.8,0.7,0.9c0.1,0.1,1.1,0.9,1.5,1.7c0.4,0.8,1.2,3.4,1.4,3.8c0.1,0.2,0.2,0.3,0.5,0.7
	C154.9,248.9,155.6,249.8,156.4,250L156.4,250L156.4,250z"/>
<path class="st31" d="M151.3,242c0.5,0.8,0.9,1.6,1.3,2.4c0.5,1,0.7,1.9,1.3,2.6c-0.3-0.9-0.9-2.7-1.2-3.3
	C152.3,243,151.5,242.3,151.3,242L151.3,242L151.3,242z"/>
<path class="st44" d="M145.9,254.9c0,0-0.8,0.2-2.3,1c-0.5,0.3-1,0.5-1.4,0.7c-1.2,0.5-2.4,1-3.4,1.3c0.1,0.1,0.1,0.1,0.1,0.1
	s0,0.4,0.2,0.6c-0.1,0.1-1.7,1.2-1.2,4.8c0.3-0.1,0.7-0.3,0.7-0.3c0.1,0,0.1,0.3,0.2,0.3s0.5-0.2,0.9-0.7c0,0.2-0.3,2.4,1,3.8
	c0.2-0.3,0.8-1.2,0.8-1.2l0-0.3c0,0,0.1-1,0.4-1.9s1-1.6,1-1.6l3.4-4.8L145.9,254.9L145.9,254.9L145.9,254.9z"/>
<path class="st45" d="M142.8,262c-0.2,0.1-0.3,0.2-0.5,0.3c-0.1-0.2-0.1-0.9,0.3-1.5c0.5-0.8,1.7-1.8,2.1-2.6c0.2-0.5,0.1-1.8,2-3.5
	c1.9-1.7,2.6-2.3,2.6-2.3l3.1-1.5l3.8,1.5l-1.9,7.3l-1.4,3.4l-5.8-1.1L142.8,262L142.8,262L142.8,262z"/>
<path class="st46" d="M145,260l0.7-0.9v-0.6c0,0,0.8-0.2,1.7-1.1c0.9-0.9,2-2.5,3.1-2.4c1,0.1,1.1,2.3,1.2,2.9c0,0.6,0.2,2,0.4,2.7
	c0.2,0.7-2.5,3.5-2.5,3.5l-1.9,1.4L145,260L145,260z"/>
<path class="st47" d="M147.2,267.5c0,0,0.6-0.9,0.2-1.1c0.3-0.6,0.7-1.2,0.7-1.2s0.3-0.8,1.4-1.8c1.1-1,1.7-1.7,1.9-2.4
	c0.1-0.4,0.2-0.9,0.2-1.3c0.1,0.1,0.2,0.2,0.4,0.3c0.2,0.1,1,0.8,0.9,2.1c-0.1,1.4-0.6,1.9-0.6,1.9s-0.5,0.5-0.8,0.7
	c-0.4,0.3-0.5,0.5-1.1,0.6c0.1-0.1,0.1-0.1,0.2-0.1c0,0-0.6-0.1-1,0.2c-0.3,0.3-1.1,1.3-1.5,1.6
	C147.6,267.2,147.2,267.5,147.2,267.5L147.2,267.5L147.2,267.5z"/>
<path class="st48" d="M173.3,252.2c-0.9-0.3-1.9-0.5-2.9-0.6c-1.7-0.1-4.1,0-6.4,0.1c-2.5,0-4.9-0.9-8.1-1c-0.5-0.3-1.9-1.7-6,1.2
	c0.3,0,3-0.6,4,0.6c1,1.2,0.7,3.2,0.6,3.7c-0.3,1.1-1.1,2.7-1.4,3.8c-0.3,1.1-0.3,1.7-0.5,2.5c-0.2,0.8-0.8,1.2-0.4,2.1
	c0.4-0.3,0.6-0.3,1.3-1.8c0.7-1.5,0.5-2.6,1.7-3.9c1.1-1.3,3-3.1,3.7-3.5c0.7-0.4,6.3-3.3,12.1-0.6
	C172.3,254.5,173.3,252.2,173.3,252.2L173.3,252.2L173.3,252.2z"/>
<path class="st49" d="M152.2,251.1c0-0.1,0-0.1,0-0.2c-0.1-0.1-0.1-0.2-0.2-0.3c0,0-1.4-0.3-2.1-0.2c-1.2,0.1-2.3,1.7-2.9,2.4
	s-1.2,2-1.9,2.6c0-0.1,0-0.1,0-0.2c0,0,0,0.1,0,0.1s-0.1,0.1,0,0.2l0.1,0.1c0,0,1.1-0.5,2.6-1.9c1.6-1.4,2.8-2.2,3.4-2.4
	C151.5,251.3,151.9,251.2,152.2,251.1L152.2,251.1L152.2,251.1z"/>
<path class="st50" d="M179.1,245.2c0,0-0.3,0.3-0.6,0.7c-0.7,0.7-1.6,1.6-2.4,2.4c-0.7,0.8-1.6,1.5-2.5,2.5c-0.9,1.1-2,2.3-2.3,2.6
	c-0.3,0.3-0.4,0.9-0.4,1.2c-0.1-0.1-0.3-0.2-0.3-0.2c0.1,0.1,0.1,0.2,0.2,0.3c0.2,0.3,0.5,0.6,0.7,0.8c0.2,0.3,0.3,0.6,0.4,0.9
	c0.1,0,0.7,0.1,1.5-1.1c0.8-1.2,1.7-2.6,1.7-2.6l1.6-2.3l1-2l1.2-2.2L179.1,245.2L179.1,245.2L179.1,245.2z"/>
<path class="st31" d="M180.7,243.6c0,0-1,0.8-1.3,1.2s-1.2,1.7-1.2,1.7l0.3,0l1.6-1.4l0.6-1.1L180.7,243.6L180.7,243.6z"/>
<path class="st51" d="M180.4,306.1c0,0,0-0.6,0.3-1c0.4-0.4,1.3-1,2.2-3.1c0.9-2.1,1-2.6,1-2.6s-1.6,1.4-2.6,1.7
	c0.2-0.5,0.4-0.8,0.5-1.1c-0.1-0.1-0.7-0.3-0.8-0.3c0.3-0.3,0.5-1.1,1.1-1.6c0.8-0.6,2.3-1.7,3.5-2.6c1.2-1,3.4-3.2,3.7-3.8
	c0.2,0.3,0.2,0.4,0.2,0.4s-1.1,1.5-1.7,2.4c-0.5,0.8-0.5,1.3-0.5,1.3l1.1-0.5c0,0,0.3,1.2-1.1,2.9c0.6-0.2,0.9-0.1,1.2-0.3
	c-0.6,0.4-1.4,0.9-2.1,2.3c-0.7,1.4-1.7,3-3.4,4C181.4,305.3,180.4,306.1,180.4,306.1L180.4,306.1L180.4,306.1z"/>
<path class="st52" d="M176.2,253c0,0-0.6,1.3-0.7,2.4c0,0.3-0.1,0.4-0.1,0.7c0,0.9,0.1,2-0.2,2.5c-0.1-0.2-0.1-0.3-0.2-0.4
	c-0.1,0.3-0.3,1.4-0.5,1.7c-0.1-0.3-0.3-1.1-0.2-2.2s0-1.2,0-1.4c0,0.3-0.3,0.7-0.3,1c-0.1-0.2-0.3-0.5-0.4-0.7
	c-0.1,0.2-0.2,0.4-0.3,0.5c0-0.1-0.1-0.3-0.1-0.7c0-0.4,0-0.9,0-1c0-0.2,0.4-1,1.1-1.8c0.8-0.9,1.7-2.7,1.9-3.2
	c0.3-0.5,1.3-2.8,1.3-2.8h0.8l-1.2,2.7c0,0-0.7,1.5-1.1,2s-1.1,2.1-1.5,2.7c0.3-0.3,0.5-0.5,0.7-0.8C175.5,254,176.2,253,176.2,253
	L176.2,253L176.2,253z"/>
<path class="st53" d="M180.7,243.5c-0.1,0.4-0.3,0.8-0.6,1.1c-0.5,0.6-1.5,1.4-2,2c-0.5,0.6-1.4,2.3-1,4.2c0.2-0.4,0.4-1.3,1.2-2.2
	c0.8-1,1.6-2,2-2.9c0.4-0.9,0.5-1.5,0.5-1.5l0.2-0.2l-0.1-0.4L180.7,243.5L180.7,243.5z"/>
<path class="st31" d="M196.6,295.7c0,0-0.3-0.9-0.4-1.6c-0.1-0.8,0.2-0.9-0.1-1.8c-0.2-0.5-0.5-0.5-0.6-0.5s-0.1-0.9-0.1-1.3
	c0-0.4,0-1-0.1-1.3c-0.1-0.1-0.2-0.2-0.4-0.8c-0.2-0.6-0.3-0.9-0.4-1c-0.1-0.2-0.4-0.3-0.4-0.5c0-0.3,0.3-0.5,0.3-0.6
	c0-0.2-0.3,0-0.3-0.1c-0.1-0.1,0.2-0.7,0.1-0.7c0,0-0.3,0.3-0.4,0.2c-0.1-0.1-0.2-1-0.3-1.7c-0.1-0.6-0.3-1-0.3-1.2
	c0-0.2-1.1-3.2-1.3-4c-0.2-0.6-0.4-1.3-0.5-1.9c-0.1-0.4-0.1-1.1-0.2-1c0,0.1,0,0.5-0.1,0.4c-0.1,0-0.3-1.4-0.3-1.6
	c-0.1-0.2-0.4-0.9-0.5-1.5c-0.1-0.5-0.3-1.9-0.4-2.8s-0.2-1.3-0.2-1.6c0-0.6,0-1.1-0.1-1.7c-0.2-1-0.5-2.2-0.7-2.9
	c-0.5-1.3-1.9-4.7-2.2-5.5c0-0.2,0.3-0.1,0.3-0.1s0.7,1.7,1.2,3c0.5,1.3,1,2.5,1.1,2.6c0.1,0.1,0.8,1.4,1.2,3.5s0.4,4.1,0.6,5.4
	c0.1,0.6,0.2,1.3,0.4,1.9c0.2,0.7,0.5,1.5,1,2.6c0.4,1,0.6,1.7,0.8,2.4c0.2,0.9,0.2,1.5,0.3,2c0.1,0.4,0.2,1.1,0.6,2.2
	s0.8,2.4,1.1,3.3c0.6,1.7,0.9,3.1,1,3.9C196.4,292.1,196.7,294.9,196.6,295.7L196.6,295.7L196.6,295.7z"/>
<path class="st54" d="M180.8,243.4L180.8,243.4c0,0.1,0.1,0.1,0.1,0.3c0,0.2,0,0.4,0,0.6c0,0.3-0.1,0.5-0.1,0.7
	c0,0.4,0.1,0.8-0.5,1.8c-0.2,0.3-0.3,0.5-0.3,0.7c-0.2,0.4-0.2,0.5-0.4,0.7c0.3-0.2,1.3-0.8,1.8-0.7c-0.3,0.2-0.9,0.6-1.2,1.1
	c0.1,0,0.4,0.1,0.9,0c0.9-0.1,1.8-0.4,2.7-0.4c0.9,0.1,0.6-1.1,0.6-1.1l-1.1-2.4l-2-1.4L180.8,243.4L180.8,243.4z"/>
<path class="st55" d="M186.1,261.2c0,0-0.9-0.9-1.3-4c-0.4-3.1-0.3-7.8-0.3-7.8l-0.7-1.8c0,0-0.2-1.2-0.5-1.7s-1.1-1.2-1.5-1.6
	s-0.7-0.9-1-1c0.1-0.2,0.6-1.3,2.7-1.3c2,0,2.6,1.1,2.9,1.5c0.2,0.4,1.2,2.2,1.5,5.5c0.3,3.4,0.3,3.6,0.3,4.8c0,0.6-0.3,2.1-0.6,3.7
	C187.1,259,186.8,260.5,186.1,261.2L186.1,261.2z"/>
<path class="st52" d="M183.2,263.9c0.3,0,0.6,0,0.9-0.2c0.3,0,1.3,0.1,2.2-0.9c0.1,0.2,0.2,0.9-0.2,1.4c0.2-0.2,0.5-0.3,0.5-0.3
	c0,0.3,0.3,1.2-0.9,3.4c0.3-0.3,0.7-0.3,1-0.4c0,0.4,0.2,1.8-0.3,2.5c-0.4,0.5-1,0.3-1,0.3c0-0.1,0-0.2,0-0.3c0-0.2-0.1-0.4,0-0.6
	c-0.3-0.1-0.6-0.3-0.8-0.6c-0.7-0.6-1.6-1.7-1.6-2.6c-0.1-0.9,0.7-1.1,0.7-1.1c-0.1-0.1-0.1-0.1-0.2-0.2
	C183.4,264.3,183.4,264.1,183.2,263.9L183.2,263.9L183.2,263.9z"/>
<path class="st56" d="M177.2,254c0,0,0-0.1-0.3,0.2c0-0.3,0.1-0.5,0.1-0.7c0.1-0.2,0.2-0.4,0.4-0.6c-0.1,0.2-0.2,0.4-0.2,0.4
	s0.3-0.5,0.7-0.9c0.3-0.2,0.7-0.3,0.8-0.6c0.2-0.2,0.1-0.3,0.2-0.3c0,0,0.4-0.3,1-1c0.1-0.1,0.2-0.2,0.3-0.3
	c0.1-0.1,0.4-0.2,0.8-0.4c0.4-0.2,0.8-0.5,1.1-0.6c0.5-0.2,1.1-0.2,1.3-0.6c0.2-0.1,0.4-0.6,0.4-1.1c0.3,0.1,1.8,1,2.3,3.1
	c0.4,1.4-0.3,3.7-0.6,4.7s-0.3,1.9-0.7,2.4c-0.5,0.6-2.1,1.6-2.4,2c-0.3,0.4-1.3,1.3-1.3,2c0,0.5,0.7,0.8,0.8,0.9
	c0.1,0.1,0.1,0.2,0.4,0.2c0.3-0.1,0.3-0.2,0.4-0.2c0.1,0,0.1,0,0.2,0c0,0,0.1,0,0.1,0c0,0,0,0.7-1.7,0.9c-0.1,0-0.2,0.1-0.4,0.1
	c0.2-0.1,0.3-0.1,0.5-0.4c-0.2,0-0.9-0.1-1.1-0.1c0.1-0.1,0.2-0.3,0.4-0.5c0.1-0.1,0-0.2-0.1-0.1c-0.2,0.1-0.4,0.3-0.6,0.4
	c-0.2,0.2-0.4,0.4-0.7,0.6c-0.1-0.3-0.1-0.9,0.3-1.3c-0.1,0-0.3,0.3-0.4,0.2c0-0.3,0-0.6,0.1-0.9c0.1-0.4,0.6-1,0.6-1l2.5-4.4
	l0.5-3.3L177.2,254L177.2,254L177.2,254z"/>
<path class="st57" d="M177,254.2c0,0-0.1,0.1,0.1,0.3c0,0.1-0.1,0.3-0.3,0.4c-0.1,0.2-0.3,0.3-0.3,0.4c-0.1,0.3-0.2,0.5-0.2,0.6
	c0,0.1,0,0.9-0.4,1.4c-0.1,0.2-0.3,0.5-0.3,0.7c-0.2,0.3-0.4,0.6-0.4,0.8c-0.1,0.3-0.1,1-0.1,1s0.2-0.2,0.2-0.3
	c-0.1,0.2-0.2,0.4-0.3,0.6c0.1-0.1,0.4-0.3,0.8-0.7c0.6-0.5,1.7-1.5,2.9-2.2c-0.4,0.1-0.7,0.1-0.9,0.2c0.2-0.2,2-2.3,2.9-2.5
	c0.1-0.1,0.1-0.2,0.1-0.3l-0.8-0.1l-1.6,0.3l-0.2-1.2L177,254.2L177,254.2z"/>
<path class="st58" d="M179.6,261.3c0,0-0.2,0.2-0.4,0.7c-0.2-0.2-0.3-0.3-0.4-0.5c-0.3-0.5-0.7-1.1-1.8-0.8c0-0.3,0-0.5,0-0.7
	c0.2,0,0.7-0.5,1.2-1.1c0.4-0.4,0.7-0.9,1-1.5c0.2-0.1,0.4-0.3,0.8-0.5c0.5-0.3,1.1-0.8,1.2-1.3c-0.2,0.1-0.7,0.3-1.5,0.3
	c0.3-0.1,0.7-0.3,0.7-0.9c0.1-0.1,0.2-0.1,0.2-0.1c-0.1,0-0.2,0-0.3,0c0-0.1,0-0.1-0.2-0.1c-0.1,0-0.2,0-0.2,0.1
	c-0.1,0-0.2,0-0.4,0.1c-0.1,0.1-0.5,0.4-0.6,0.5c0.1-0.1,0.1-0.2,0.1-0.2s-0.4,0-0.7,0.2c-0.5,0.2-1.1,0.5-1.7,0.8
	c0.1-0.1,0.1-0.2,0.1-0.2c0,0,0.1,0,0.1-0.1s0-0.2,0-0.2c0.2-0.4,0.4-0.7,0.6-1.1c0.3-0.4,0.3-0.9,0.3-0.9l1.2-0.6l3.4-0.8l2.2,0.1
	l-0.3,1.5l-1.3,2.7l-1.1,2.4l-1.3,1.5L179.6,261.3L179.6,261.3L179.6,261.3z"/>
<path class="st59" d="M185.1,254.7c0,0-1.3,1.6-1.7,1.9c0.2-0.5,1.7-3.5,2.2-4.3c-0.1-0.1-0.3-0.1,0.1-1.6c-0.3,0.7-0.4,1.1-0.7,1.3
	c-0.3,0.2-0.3,0.1-0.5,0.1c0-0.1,0-0.1,0-0.2c0,0-1.1-0.1-1.9-0.1s-2.3,0.4-3.1,0.7c-0.7,0.3-1,0.3-1.3,0.4
	c-0.2,0.2-0.4,0.4-0.5,0.5c-0.1,0.1-0.5,0.2-0.6,0.3c-0.1,0.2-0.3,0.3-0.3,0.4s0,0.1,0.1,0.1c0,0,0.3-0.2,0.7-0.4
	c0.4-0.3,1-0.5,1.4-0.7c1.1-0.4,1.5-0.4,2-0.5c0.5-0.1,1.3-0.3,1.8-0.3c0.5,0,1.5,0,1.7,0c-0.1,0.1-0.2,0.2-0.1,0.5
	c0,0.1-0.1,0.2-0.2,0.4c-0.2,0.6-0.7,1.7-0.9,2.3c-0.3,0.7-0.7,1.4-0.9,1.7c-0.2,0.4-0.6,1.4-1,1.9c-0.4,0.5-0.6,0.9-0.8,1
	s-1.1,0.8-1,1.1c0.2-0.1,1.3-0.5,2.1-1.4s1-1.4,1.6-1.9c0.6-0.5,1.1-1.3,1.4-2C184.8,255.4,184.8,255.3,185.1,254.7L185.1,254.7
	L185.1,254.7z"/>
<path class="st60" d="M156.6,266.9c0,0-0.2,0.7-0.6,1.1c-0.4,0.3-1.1,0.6-1.1,1.2c-0.1,0.6,0.7,0.9,0.7,0.9s-0.4,0.7-0.4,1.2
	c0,0.5,0,0.6,0,1.2c-0.1,0-0.1,0.1-0.2,0.2c0,0,0,0.5,0.4,0.8s0.7,0.5,0.9,0.4c0,0.1,0.1,0.1,0.1,0.2c0,0,0.3-0.7,0.5-1.4
	c0.2-0.7,0.4-0.6,0.4-1.5s0.9-2.4,0.9-2.4l0.6-1.3l-1-0.7L156.6,266.9L156.6,266.9z"/>
<path class="st61" d="M158.4,268.2c-0.2,0.2-0.4,0.4-0.5,0.6c-0.3,0.3-0.4,0.7-0.8,0.8s-0.6,0.1-0.6,0.5s0.4,0.5,0.6,0.7
	c0.2,0.2,0.4,0.5,0.3,0.9c0.1-0.1,0.3-0.1,0.5-0.5c0.2-0.4,1.6-3,1.6-3L158.4,268.2L158.4,268.2z"/>
<path class="st62" d="M163.8,262.2c0,0,0.1-0.3,0-0.5c-0.1-0.2-0.8-0.3-1.2-0.6c-0.4-0.3-0.8-0.5-1.2-0.3c0.1-0.1,0.3-0.4,0.1-0.5
	c-0.2-0.1-0.8,0.2-1,0.4c-0.2,0.1-0.6,0.3-0.6,0.4c-0.1,0.1-0.2,0.3-0.3,0.2c-0.1-0.1-0.1-0.2-0.3-0.1c-0.1,0.1-0.8,0.6-0.9,0.9
	c-0.1,0.3-0.4,1-1.2,1.8s-1.1,1.3-0.9,1.6c0.2,0.3,0.3,0.1,0.4,0.3c0,0.2,0,0.5,0,0.7c-0.1,0.4-0.3,0.8,0,0.9
	c0.5,0.2,1.1-0.2,1.2-0.1c0.2,0.2-0.1,1,0.4,1.1c0.6,0.2,1.1-0.1,1.1-0.1l2.1-1.1l2-1l1-2l-0.5-1.7L163.8,262.2L163.8,262.2z"/>
<path class="st63" d="M161.8,267c0,0-0.3-0.5,0.1-1c0.4-0.5,1-0.7,1.3-1c0-0.1-0.1-0.1-0.2-0.1c0.2-0.3,0.4-0.5,0.7-0.6
	c-0.1-0.1-0.3-0.2-0.4-0.2c-0.4,0-0.6,0.2-1,0.2c-0.3,0-0.4-0.2-0.4-0.2s0.6-0.1,0.5-0.3c-0.1-0.3-0.2-0.3-0.2-0.3s1.1-0.5,1.3-0.7
	c0.2-0.2,0.2-0.5,0.2-0.7c0.1,0,0.9-0.4,1.2-0.2c0.3,0.2,0.1,0.6,0.1,0.6s1-0.7,1.4-1.4c0.4,0,0.6-0.3,0.9-0.3c0.4,0,1,0.5,1.1,1.7
	c0.1,0.6,0.2,1,0.1,2.2c-0.1,0.6,0,2,0.2,2.7c0.1,0.5,0.4,0.5,0.4,0.5c0,0.2-0.1,0.3-0.3,0.4c-0.2,0.2-0.2,0.7-0.2,0.9
	c0,0.1,0.1,0.3,0.1,0.4c0,0-0.3,0.3-0.3,0.5c-0.1,0.2-0.3,0.3-0.5,0.3c-0.2,0-0.1,0-0.3,0c-0.3,0-0.3,0.1-0.5,0
	c-0.2-0.1-0.3-0.1-0.2-0.6c0.1-0.5-1.9-1.7-1.9-1.7L161.8,267L161.8,267L161.8,267z"/>
<path class="st64" d="M158.1,272c0,0,0.7,1,3.7,1c1.4,0,1.9-0.1,2.2-0.2c0.3-0.1,1.5-0.5,2.7-1.9c1.1-1.3,0.8-1.8,0.8-1.8l-0.6-0.1
	l-2,0.3l-6,2.5L158.1,272L158.1,272z"/>
<path class="st65" d="M160.3,272.2c0,0-2.5,0.6-2.5-1c0-1.6,1.6-3.2,2-3.5c0.4-0.3,1.4-0.6,1.4-0.6h2.4l0.4,1.2l-0.2,2.6
	L160.3,272.2L160.3,272.2z"/>
<path class="st66" d="M162.6,267.5c0,0-0.5-0.4-1.6,0.2c-1.1,0.6-2,1.9-2.1,3c-0.1,1,0.8,1.8,2.2,1.8c1,0,1.7-0.1,2-0.2
	c-0.1-0.1-0.5-0.6-0.5-0.6L162.6,267.5L162.6,267.5L162.6,267.5z"/>
<path class="st67" d="M162.2,267.8c0,0-0.1-0.1-0.5,0.1c-0.3,0.2-0.7,0.6-1,0.9c-0.2,0.2-0.3,0.3-0.5,0.4c-0.5,0.6-0.9,1.5-0.7,2
	c0.2,0.5,1,1,3,0.6L162.2,267.8L162.2,267.8L162.2,267.8z"/>
<path class="st65" d="M161.5,268.7c0,0-0.3,0.5-0.3,1.3c0,0.8,0.4,2.1,2.1,2.2c1.3,0.1,2.1-1.8,3-2.6c0.7-0.6,1.1-0.6,1.1-0.6
	s-0.7-0.8-2.6-1.8c-1.9-1-4-1.1-5.2,0.4c0.5,0,2.3-0.5,2.3-0.5l0.9,0.3L161.5,268.7L161.5,268.7L161.5,268.7z"/>
<path class="st68" d="M164,269.8c-0.1-0.1-0.1-0.3,0.1-0.3s0.3,0,0.4,0.2s0.2,0.3,0,0.4C164.5,270.1,164.1,270,164,269.8L164,269.8z
	 M163.6,268.7C163.6,268.7,163.5,268.7,163.6,268.7c0-0.2,0.1-0.4,0.3-0.4c0.3,0.1,0.2,0.3,0.2,0.4c0,0.1-0.3,0.2-0.4,0.2
	C163.6,268.8,163.6,268.8,163.6,268.7C163.6,268.7,163.6,268.7,163.6,268.7L163.6,268.7z"/>
<path class="st69" d="M142.3,269.2c0,0,0.6,0.5,1.3,0.4c0.7,0,1.6-0.8,2.1-1.2c0.3-0.3,0.5-0.6,0.7-0.8c0.2-0.2,0.3-0.3,0.4-0.4
	c0.1-0.2,0.3-0.4,0.3-0.5c-0.2,0.1-0.4,0.4-0.7,0.5c-0.3,0.2-0.8,0.4-1,0.5c-0.2,0.1-2.4,1.2-2.4,1.2L142.3,269.2L142.3,269.2z"/>
<path class="st70" d="M143.3,263.3c0,0,0.3-0.2,1-0.4c0.6-0.2,1.9-0.3,1.9-0.3l1.1,0.5l0.4,1.6l-0.8,1.7l-1,0.6l-1.1-1.8
	L143.3,263.3L143.3,263.3L143.3,263.3z"/>
<path class="st71" d="M141.9,264.8l-0.4,0.3c0,0,0.1-0.2,0.2-0.7s0.5-1.8,1.1-2.5s0.6-0.7,0.6-0.7c-0.1,0-0.2,0-0.3,0.1
	c0.1-0.2,0.6-0.8,1.1-1.1c0.5-0.3,0.7-0.4,1.2-0.2s0.7,0.4,1,0.4s0.7-0.4,0.7-0.4s0.1,0.3-0.2,0.8s-1.4,1.8-1.4,1.8l-2.4,1.6
	L141.9,264.8L141.9,264.8L141.9,264.8z"/>
<path class="st72" d="M143.7,263.1c0,0,1.7,0.2,2.3-0.3c0,0.1,0.1,0.1,0.1,0.1c0,0,0,0.1,0,0.1c0.1,0,0.1,0,0.2,0c0.1,0,0.1,0,0.2,0
	c0.1,0,0.1,0,0.2,0c0,0.1-0.1,0.2-0.1,0.2c0.1,0,0.2,0,0.2,0.1c0,0.1,0,0.3-0.1,0.3c-0.1,0-0.2,0-0.2,0c0,0.1,0,0.3,0.1,0.4
	c0.2,0.3,0.5,0.6,0.9,0.5c0,0,0.2,0.6-0.8,1.8c-0.1,0.2-0.3,0.4-0.4,0.6c-0.1,0.1-0.1,0.3-0.2,0.5c0,0,1.7-0.6,2.2-2.1
	c0.5-1.5,0.6-2.9,0.5-4.3c0-0.4-0.1-0.7-0.2-0.9c-0.2-0.5-0.9-0.4-1.2-0.1c-0.4,0.4-1,1.3-1.9,2
	C144.4,262.7,144.3,262.9,143.7,263.1L143.7,263.1L143.7,263.1z"/>
<path class="st64" d="M141.6,265.3c0,0-0.3,0.2-0.5,0.9c-0.2,0.8,0.2,1.7,0.3,2s0.6,1.1,1.5,1.1c0.2,0,0.4,0,0.6-0.1
	c0.3-0.1,0.6-0.3,0.9-0.5c0.4-0.3,0.7-0.5,0.7-0.6c-0.1,0-2.4-1.9-2.4-1.9l-0.9-1L141.6,265.3L141.6,265.3z"/>
<path class="st73" d="M143.7,268.4c0,0,0.5,0,0.7-0.2c0.3-0.2-1.6-2-1.6-2l0.1,2L143.7,268.4z"/>
<path class="st74" d="M141.7,265.1c0,0-0.2,0.4-0.2,0.6c0,0.4,0.1,1.6,0.2,2c0.1,0.4,0.6,1,1.3,1c0.4,0,1-0.3,1-0.3
	c0-0.1-0.6-0.2-0.7-0.4c-0.1-0.2-0.1-0.5-0.2-0.9c0-0.3,0-0.5,0.1-0.6c0.2-0.2,0.3-0.9,0.3-0.9l0.8-1.4h-1l-1.2,0.7L141.7,265.1z"/>
<path class="st65" d="M141.4,265.6c0,0,0.8-1,1.5-1.3c0.7-0.2,1-0.1,1-0.1l-0.4,1l-0.6,0.6l0,0.3c0,0-0.1,0.9,0.5,1.5
	c0.6,0.6,1,0.6,1.3,0.6c0.3,0,1-0.2,1.3-1.1c0.3-0.8,0.6-1.9-0.1-2.9c-0.6-1-1.8-1.1-2-1.1C143.8,263.2,142.1,263.3,141.4,265.6
	L141.4,265.6L141.4,265.6z"/>
<path class="st75" d="M161.4,269.1c-0.3-0.1,0-1,0.3-1.2c0.3-0.3,0.7-0.5,1.3-0.6c0.2,0,0.5,0.1,0.4,0.3c-0.1,0.3-0.5,0.7-0.8,1
	C162.1,269,161.7,269.2,161.4,269.1z"/>
<path class="st76" d="M145.7,264.6c0.2,0,0.5,0.2,0.5,0.4c0.1,0.3-0.1,0.8-0.5,0.8c-0.3,0-0.5-0.4-0.5-0.5c0-0.1,0-0.2,0.1-0.3
	C145.3,264.9,145.3,264.6,145.7,264.6z"/>
<path class="st77" d="M142.6,264.8c0,0-0.5,0.3-0.8,0.8c-0.2,0.4-0.2,0.8-0.2,1.2c0,0.2,0.2,0.7,0.4,0.9c0.1,0.2,0.3,0.3,0.4,0.3
	c0.1,0,0.4-0.4,0.4-0.6s0-1.1,0.3-1.6C143.4,265.3,142.6,264.8,142.6,264.8L142.6,264.8L142.6,264.8z"/>
<path class="st78" d="M142.7,264.7c-0.1,0.1-0.3,0.1-0.2,0.2c0,0.1,0.4,0.2,0.5,0.4c0.1,0.2,0.1,0.5,0.1,0.6c0.1,0,0.2-0.1,0.3-0.2
	c0.2-0.2,0.4-0.5,0.6-0.5c0.1,0,0.2,0.1,0.3,0.1c0.2,0,0.3-0.1,0.4-0.2c0-0.2-0.3-0.4-0.5-0.4c0-0.2,0.1-0.4-0.1-0.5
	c-0.2-0.2-0.7,0.1-0.8,0.2S142.7,264.7,142.7,264.7L142.7,264.7L142.7,264.7z"/>
<path class="st79" d="M155.2,281.3l1.2-0.3l0.3,0.2c0,0,0.2,0.5,0.6,0.6c-0.1,0.3-0.4,0.5-0.4,0.6s0.2,0.3,0.2,0.3s-1,1.7,1,3.5
	c-0.5,0.2-1.1,0.5-1.4,0.6c0.2,0.1,0.7,0.2,1,0.3c0.2,0.2,0.2,0.3,0.4,0.4c0.2,0.1,0.3,0.3,0.3,0.3c-0.1-0.1-0.6-0.3-0.7-0.1
	c-0.1,0.2-1.9,0.1-1.9,0.1l-3.1,0.6c0,0,0.1-0.3-0.2-0.6c-0.4-0.3-0.9,0-1.4-0.4c-0.7-0.5-0.7-1.1-0.9-1.3c0.2-0.1,0.6-0.3,1.7-0.5
	c0-0.1-0.2-0.3-0.1-0.5c0.1-0.3,0.5-0.4,0.4-0.8c0.2,0,0.3,0,0.7-0.6c0.4-0.5,0.7-0.7,1-0.7s0.5,0,1.1-0.5c0.4-0.4,0.3-0.7,0.3-0.7
	S155.3,281.8,155.2,281.3L155.2,281.3L155.2,281.3z"/>
<path class="st80" d="M151.7,281.4c0-0.1,0.1-0.1,0.5-0.1c0.4,0,3.1-0.3,3.8-0.3c0.7-0.1,3.3,0,4.6,0.3c1.3,0.3,2.5,0.6,3.2,0.7
	c0.6,0.2,0.8,0.2,0.8,0.3c0,0.1-0.2,0.2-0.2,0.1c-0.1,0-2.1-0.6-2.8-0.8c-0.6-0.1-2.8-0.5-4-0.5c-1.1,0-1.6,0-2.5,0.1
	c-1,0.1-2.5,0.3-3,0.2C151.6,281.5,151.7,281.5,151.7,281.4L151.7,281.4L151.7,281.4z"/>
<path class="st81" d="M158.1,287.6c0,0,1.6,0.9,2.2,1.9c0.4,0.8-0.3,1.2-0.3,1.2s0.9,0,0.8,0.5c-0.1,0.3-1.6,1.2-2.6,1.6
	c-1,0.4-1,0.4-1.5,0.5c-0.5,0.1-1.8-0.2-2.1,0.2c-0.3,0.4-0.2,0.8-0.1,0.9c0.1,0.1,0.7,0.1,0.7,0.1s-0.1,0.4-1.5,0.4
	s-1.7,0.1-1.7,0.3c-0.1,0.1,0.3,0.1,0.9,0.2c0.6,0.1,1.5,0.2,1.5,0.2s-0.3,0.2-1,0.4c-0.8,0.2-2.1,0.4-2.5,0.6
	c0.2,0.1,0.5,0.3,0.6,0.3c-0.3,0.1-0.8,0.3-0.9,0.3c0.1,0.1,0.3,0.2,0.3,0.2s-0.7,0.8-1,1c-0.4,0.2-2.6,1.2-3.4,1
	c-1.9-0.5-2.1-2.6-2.6-2.7c-0.7-0.2-1,0.2-1.7-0.1c0.3-0.2,0.4-0.3,0.7-0.4c-0.3-0.2-1.9-1.2-1.9-1.2c-0.2-0.4-0.4-0.7-0.6-1.1
	c-0.3-0.5-0.8-1.3-1.1-1.9c-0.8-1.4-0.8-2-1.5-2.8c0.1-0.2,0.5-0.1,0.5-0.1l5.7,1.9l10.2,0.3l2.6-3.8L158.1,287.6L158.1,287.6z"/>
<path class="st82" d="M143,293.4c0.1,0.1,0.1,0.1,0.2,0.2c0.2,0.1,0.5,0.3,0.7,0.5c0.1-0.1,0.3-0.3,0.6,0s0.8,0.1,1,0.2
	c0.3,0.1,0.3,0.1,0.3,0.1s0.2-0.1,0.5-0.3c0.2-0.1,0.5-0.1,0.7-0.2c0.3-0.1,0.5-0.1,0.7-0.1c0.2,0.1,0.8,0.8,3.3-0.2
	c2.4-0.9,2.9-1,3.3-0.9c0-0.1,0.1-0.3,0.7-0.3c0-0.3-0.5-1.1-0.5-1.1l-2.8-1h-1.5l-4.6,0.8l-2.5,1.4L143,293.4L143,293.4z"/>
<path class="st83" d="M141.5,291.8c0,0,0.1,0.4,0.7,0.9c0.6,0.4,0.8,0.7,0.8,0.7s0.1-0.2,0.2-0.3c0.1-0.2,0.2-0.4,0.3-0.4
	c0.3-0.1,1,0.1,1.2,0.1c0.1,0,0.1-0.3,0.2-0.3c0.3,0,0.5,0.2,0.7,0.2s0.4,0,0.4-0.1s0.1-0.7,0.5-1c0.5-0.3,1.1-0.2,1.2-0.1
	c0,0.1,0,0.4,0.3,0.4c0.3,0,0.3,0,0.6,0.1c0.3,0.1,0.6,0,0.8,0.4c0.1,0,0.4-0.1,0.4-0.5c0.2-0.1,0.3-0.2,0.6-0.7
	c0.1-0.1,0.2-0.3,0.3-0.4c0.3,0,0.6-0.1,1,0.3c-0.1,0.1-0.2,0.2-0.3,0.3c0.1,0.1,0.2,0.2,0.3,0.4c0.1,0.2,0.2,0.3,0.3,0.4
	c0.3,0.1,0.9,0,1.5,0c0.6,0,1.1,0.3,1.3,0.4c0.1,0,0.1-0.1,0.3,0c0.2,0,0.3,0.1,0.1-0.2c0.1,0.1,0.3,0.2,0.4,0.1s0.2-0.3,0.5-0.3
	c0.3,0,0.4,0,0.6-0.3c0.2-0.4-0.4-0.4-0.4-0.4s0.3-0.3,0.6-0.6c0.4-0.3,0.8-0.8,0.9-1.3c0.2-1-0.8-1.1-0.8-1.1l-4.8,1.5l-5.9-0.3
	L141.5,291.8L141.5,291.8L141.5,291.8z"/>
<path class="st84" d="M137.2,277.9c0,0-0.2,0.2-0.3,0.7c-0.1,0.5-0.1,0.4-0.1,0.7s-1,3.6-0.7,4.7c0.4,1.1,1,1.5,1.4,2.4
	c0.1,0.2,0.2,0.3,0.2,0.5c0.1,0.6,0,1,0.2,1.6c0.1,0.2,0.2,0.4,0.4,0.7c0.5,0.5,1.2,1,1.6,1.3c0.5,0.5,1.1,1.5,2,1.6
	c0.4,0.1,1.1-0.1,1.6-0.4c0.5-0.3,0.8-0.7,1.2-0.9c0.3-0.2,0.7-0.2,1-0.3c0.7-0.1,1.3-0.2,1.7-0.1c0.6,0.1,1.9,0.5,2.6,0.5
	c0.6,0,1.2-0.1,1.7-0.2c1.1-0.3,2.5-0.9,3.4-1.1c0.5-0.2,1-0.2,1.4-0.3c0.7-0.2,1.4-0.4,1.7-0.9c-0.2-0.3-0.5-0.7-2.1-0.7
	c-1.8,0-3.8,1-4.9,1.2c-1,0.2-1.5,0.3-2.6-0.1c-1.1-0.4-1.1-0.7-1.1-0.7s-1.2-0.8-1.7-2.9c-0.5-2.1,0-3.6,1.3-5
	c0.3-0.4,0.3-0.7,0.3-0.7s0.8-1.1,0.6-2.2c-0.3-1-1.9-0.8-1.9-0.8L137.2,277.9L137.2,277.9L137.2,277.9z"/>
<path class="st85" d="M138.5,281.4c-0.1,0.1-0.1,0.3-0.1,0.4c0,0.2,0.1,0.5,0.7,1.1c0.5,0.5,0.4,1.1,0.4,1.1s0.3,0.1,1-0.3
	c0.6-0.3,0.8,0.2,0.8,0.2c0.2-0.1,0.4-0.1,0.5-0.2c0.2,0,0.3-0.1,0.5-0.2c0,0,0.7,0.7,1.3,1c0.5,0.3,0.9,0.5,1.1,0.3
	c0.3-0.2,0.3-0.5,0.2-0.7c-0.1-0.1-0.1-0.3-0.2-0.4c-0.2-0.3-0.4-0.5-0.5-0.8c0-0.5,0.4-1.2,0.3-1.3c-0.1-0.2-0.4-0.2-1.3,0.1
	C142.4,282.2,138.5,281.4,138.5,281.4L138.5,281.4L138.5,281.4z"/>
<path class="st86" d="M140.6,284.9c0,0-0.4-0.4-0.3-2.5c0.2,0,0.4,0,0.6,0.1C140.9,282.5,141.1,284.1,140.6,284.9z"/>
<path class="st65" d="M137.4,276.3c0.1,0,0.1-0.1,0.2-0.2c-0.2,0.3-0.9,1.5-0.3,3.3c0.6,1.8,2,3.2,3.8,3.2c1.8,0.1,2.7-0.8,3.8-2.1
	c0.4-0.5,0.9-1.2,1.3-1.6c0.6-0.7,1.1-0.9,1.1-1.6c0-1.4-1.4-2-3.5-2.6c-2.1-0.6-4-0.5-4.9-0.1C138.1,275.1,137.6,275.6,137.4,276.3
	L137.4,276.3L137.4,276.3z"/>
<path class="st87" d="M144.1,285.5l0.2-0.1c0,0,0-0.6,0.3-0.6c0.3,0,0.4,0.4,0.3,0.5c0,0.1-0.1,0.3-0.3,0.3
	C144.2,285.6,144.1,285.5,144.1,285.5L144.1,285.5z"/>
<path class="st88" d="M143.4,282.9c0,0,0.2-0.1,0.3,0.1c0.2,0,0.8-0.1,1,0.1c0.2,0.1,0.3,0.3,0.3,0.3s-0.8,0.2-1.2,0
	C143.4,283.2,143.4,282.9,143.4,282.9z"/>
<path class="st89" d="M146.9,283c0,0-0.4-0.3-0.9-0.4c-0.1,0-0.1,0-0.2,0c0,0-0.1-0.1-0.1-0.1l-0.3,0.1c0,0,0,0.1,0.1,0.2
	c0.1,0.1,0.3,0.2,0.4,0.3c0.1,0.2,0.1,0.2,0.1,0.2c0,0,0.3,0,0.4-0.1C146.6,283.2,146.9,283,146.9,283L146.9,283L146.9,283z"/>
<path class="st90" d="M142.9,284.6c0,0,0.1-0.5,0.6-0.6c0.5,0,0.6,0.5,0.6,0.5l-0.3,0.3C143.8,284.8,143.6,284.5,142.9,284.6
	L142.9,284.6z"/>
<path class="st91" d="M146.3,282.3c0,0-0.3,0.3-0.9,0.4c-0.1-0.1-0.2-0.2,0-0.5s0.4-0.3,0.6-0.3C146.1,282,146.3,282.1,146.3,282.3z
	"/>
<path class="st89" d="M147.5,282.6c0-0.1,0-0.1,0-0.1c0,0,0.3-0.1,0.3-0.1c0,0,0,0.1,0,0.2s0,0.2,0,0.2c-0.1,0.1-0.2,0.1-0.3,0.1
	c-0.1,0-0.1-0.1-0.1-0.2C147.4,282.7,147.5,282.7,147.5,282.6z M148.9,281.8c0,0,0.1-0.1,0.2-0.1c0.1,0,0.1,0.1,0.1,0.1
	c0,0,0,0,0.1,0.1c0,0.1,0.1,0.2,0.1,0.3s-0.2,0.1-0.2,0.1C149.1,282.2,148.9,281.9,148.9,281.8z"/>
<path class="st84" d="M146.2,282.8c0,0,0.2,0,0.4,0.2c-0.1,0.1-0.2,0.1-0.2,0.1S146.4,283,146.2,282.8L146.2,282.8z"/>
<path class="st64" d="M145.8,281.1c0,0,0.1-0.1,0.2-0.1c0.1,0,0.1,0.1,0.2,0.1c0.1,0,0.1,0,0.2-0.1s0.2,0,0.2,0c0,0,0,0,0,0.1
	c0-0.1,0-0.1,0.1-0.2c0.1,0,0.1-0.1,0.2,0c0,0.1,0.1,0.3,0.1,0.3c0,0-0.3,0.1-0.3,0.1c0,0.1,0.2,0.3,0.2,0.3s-0.2,0.1-0.3,0.1
	C146.6,281.6,145.9,281.2,145.8,281.1L145.8,281.1z M146.8,279.8C146.8,279.8,146.8,279.7,146.8,279.8c-0.1-0.1-0.3-0.1-0.3,0
	s0.2,0.6,0.3,0.9c0.2,0.3,0.3,0.5,0.5,0.6c0.1,0,0.2,0,0.2-0.1c0,0,0.1-0.3,0-1c0-0.7,0-1.3-0.1-1.4s-0.2,0-0.3,0
	C147.2,278.9,146.8,279.7,146.8,279.8L146.8,279.8L146.8,279.8z"/>
<path class="st91" d="M146.1,283.8c0,0-0.3-0.2-0.5-0.1c-0.3,0.1-0.2,0.6-0.2,0.6c0.1,0,0.2,0,0.3,0
	C145.8,284.2,146.1,284,146.1,283.8L146.1,283.8z"/>
<path class="st89" d="M146.6,284.4c0-0.2-0.2-0.2-0.2-0.2c0-0.1,0.1-0.1,0.2-0.1c0.1,0,0.2,0.1,0.3,0.2c0.1,0.1,0.2,0.2,0.3,0.3
	s-0.2,0.4-0.3,0.4C146.6,284.9,146.7,284.6,146.6,284.4L146.6,284.4z M148.1,284.2c0,0-0.3,0.1-0.3,0c0-0.1,0.1-0.1,0.2-0.1
	c0.1-0.1,0.1-0.1,0.2-0.1c0,0,0.1,0,0.1,0c0,0,0.2-0.1,0.3,0c0.1,0.1,0,0.1,0.1,0.1c0,0.1,0.1,0.2,0.1,0.2c0,0.1-0.2,0.2-0.4,0.2
	C148.1,284.5,148.2,284.3,148.1,284.2z M150,283.9c0,0,0.1,0.1,0,0.1c-0.1,0.1-0.3,0.2-0.6,0.2c-0.2,0-0.4,0-0.4,0s0.2-0.2,0.3-0.3
	c0-0.1,0.1-0.1,0.2-0.1c0.1,0,0.5,0,0.6-0.1c0.1,0,0.2,0,0.1,0.1C150.1,283.9,150,283.9,150,283.9L150,283.9z M150.5,281.4
	c0,0-0.1,0.3-0.3,0.3c-0.1,0-0.1-0.1-0.1-0.1c0-0.1,0.1-0.2,0.1-0.2c0,0-0.1,0-0.1-0.1c0-0.1,0.1-0.2,0.3-0.2
	c0.1-0.1,0.2-0.1,0.3-0.1c0.1,0,0.3,0,0.3,0.1s-0.2,0.3-0.2,0.3C150.7,281.5,150.6,281.5,150.5,281.4L150.5,281.4z M148.7,286.1
	c0,0-0.2,0-0.2,0.1c0,0,0,0,0.1,0C148.7,286.2,148.7,286.2,148.7,286.1c0,0.1,0,0.2,0.2,0.2c0.1,0,0.2,0,0.3-0.1
	c0.1,0,0.2-0.1,0.2-0.2c0-0.1-0.1-0.2-0.2-0.2c-0.1,0-0.1,0-0.2,0c0,0,0-0.1-0.2,0c-0.1,0.1-0.1,0.1-0.1,0.1
	C148.7,286.1,148.7,286.1,148.7,286.1L148.7,286.1z M147.8,286.9c0,0,0.2-0.1,0.3-0.1c0.1,0,0.2,0.3,0.2,0.3c0,0-0.2,0.1-0.3,0.1
	s-0.2-0.1-0.2-0.2c0,0,0.1,0,0.1-0.1C147.9,287,147.8,286.9,147.8,286.9L147.8,286.9z M147.2,285.8
	C147.3,285.7,147.3,285.7,147.2,285.8c0.1-0.1,0.2-0.1,0.2-0.1c0-0.1,0.1-0.1,0.1-0.1c0.1,0,0.2,0,0.2,0c0,0.1,0.1,0.2,0.1,0.3
	c0,0.1-0.1,0.2-0.3,0.3c-0.2,0.1-0.5,0.1-0.5,0c0,0-0.1-0.2,0-0.3S147.1,285.8,147.2,285.8L147.2,285.8L147.2,285.8z"/>
<path class="st84" d="M147.5,285.8c0,0-0.1,0.1-0.1,0.1c0,0,0,0.1,0,0.1c0,0,0.2,0,0.2,0C147.5,286,147.5,285.9,147.5,285.8z"/>
<path class="st64" d="M146.3,285.4c0.1,0,0.2,0,0.3,0c0.1,0,0.1,0.1,0.1,0.2c-0.1,0.1-0.2,0.2-0.3,0.2c-0.2,0-0.4-0.1-0.4-0.2
	c0-0.1,0-0.2,0.1-0.3C146.1,285.4,146.2,285.4,146.3,285.4L146.3,285.4L146.3,285.4z"/>
<path class="st91" d="M146.2,285.5c0,0-0.3,0.2-0.3,0.3c-0.1,0.1-0.5,0.6-0.6,0.7c0-0.1,0.1-0.1,0.1-0.2c-0.2,0.1-0.3,0.2-0.3,0.4
	c-0.1,0.3,0.5,0.4,0.9,0.6c0.4,0.1,0.6,0.2,0.6,0.2c-0.2-0.2-0.3-0.5-0.4-0.7c-0.2-0.4-0.2-0.4-0.1-0.6c0.1-0.2,0.2-0.3,0.2-0.4
	C146.2,285.6,146.2,285.5,146.2,285.5z"/>
<path class="st65" d="M137.2,286.1c0.1,0,0.1,0,0.2,0c0.1,0,1.3-0.5,2.6-0.4c1,0.1,1.9,0.2,2.8,0.5c1.6,0.4,3.6,1.3,4.9,1.7
	c0.3,0.1,0.7,0.4,0.9,0.5c1,0.4,1,0.4,1.6,0.5c0.7,0.1,1.4-0.1,2.1-0.3c0.9-0.2,2.4-0.3,3.8-0.5c0.4-0.1,0.9-0.2,1.3-0.3
	c0,0-1.1,1.1-3.6,1.5c-1,0.2-2.1,0.2-3.1,0c-0.8-0.1-1.4-0.2-1.8-0.3c-0.5-0.1-1.4-0.5-2.6-0.8c-0.8-0.2-1.7-0.4-2.8-0.6
	C141,287.2,138.2,286.7,137.2,286.1L137.2,286.1z"/>
<line class="st92" x1="135.9" y1="276.2" x2="129.3" y2="270.1"/>
<path class="st3" d="M134.3,281.3c-0.6,0.5-1.3,1-1.9,1.5l-1.9,1.5c-0.7,0.5-1.3,1-2,1.5c-0.7,0.5-1.3,1-2,1.4
	c0.6-0.5,1.3-1,1.9-1.5c0.7-0.5,1.3-0.9,2-1.4l1.9-1.5C133,282.3,133.7,281.8,134.3,281.3L134.3,281.3z M130.9,286.8
	c0,0,0.7-0.6,1.6-1.4c1.1-1,2.4-2.3,2.8-2.5L130.9,286.8L130.9,286.8z"/>
<path class="st3" d="M130.9,286.8c0.3-0.3,0.7-0.7,1.1-1l0.6-0.5c0.2-0.2,0.4-0.3,0.5-0.5c0.3-0.3,0.7-0.7,1-1.1
	c0.2-0.2,0.4-0.3,0.5-0.5c0.1-0.1,0.2-0.2,0.3-0.2c0.1-0.1,0.2-0.2,0.3-0.2c-0.1,0.1-0.2,0.2-0.3,0.3c-0.1,0.1-0.2,0.2-0.3,0.3
	c-0.2,0.2-0.4,0.3-0.5,0.5c-0.4,0.3-0.8,0.6-1.1,1s-0.7,0.7-1.1,1C131.7,286.1,131.3,286.5,130.9,286.8L130.9,286.8z M135.6,283.6
	c0,0-2.6,2.5-3.1,2.9L135.6,283.6z"/>
<path class="st3" d="M135.6,283.6c-0.2,0.3-0.5,0.5-0.7,0.8l-0.8,0.7c-0.3,0.3-0.5,0.5-0.8,0.8c-0.3,0.2-0.5,0.5-0.8,0.7l0.8-0.7
	c0.3-0.3,0.5-0.5,0.8-0.7l0.8-0.7C135.1,284.1,135.3,283.9,135.6,283.6z M135.7,285c-0.2,0.7-0.5,1.3-0.8,1.9
	c-0.7,1.3-1.7,3-2.1,3.8L135.7,285L135.7,285z"/>
<path class="st3" d="M135.7,285c0,0.3-0.1,0.5-0.2,0.8c-0.1,0.3-0.2,0.5-0.3,0.7c-0.1,0.2-0.3,0.5-0.4,0.7c-0.1,0.2-0.3,0.5-0.4,0.7
	l-0.8,1.4c-0.3,0.5-0.5,0.9-0.8,1.4c0.2-0.5,0.5-1,0.7-1.4c0.3-0.5,0.5-0.9,0.8-1.4c0.1-0.2,0.2-0.5,0.3-0.7
	c0.1-0.3,0.2-0.5,0.3-0.7c0.1-0.3,0.2-0.5,0.3-0.7C135.4,285.5,135.5,285.2,135.7,285L135.7,285z"/>
<path class="st93" d="M138.5,291.5c0,0-0.8,1-0.7,2.3C138,293.1,138.3,292.1,138.5,291.5z M139.3,292.5c0,0-0.3,2.8-0.5,4.2
	C139.1,295.1,139.1,295.2,139.3,292.5z M144.4,296.8c0,0-1.2,3.4-1.2,4.4C143.5,300.2,144,298.2,144.4,296.8L144.4,296.8z"/>
<path class="st94" d="M147.1,291.2c0,0,1.9,3.1,3.3,5.8C150.1,295.7,149.2,293.2,147.1,291.2z"/>
<path class="st95" d="M152.2,295.8c1,1.8,2,3.7,2.8,5.7C154.8,300.1,154.4,297.9,152.2,295.8z"/>
<path class="st96" d="M167.1,300.4c0.3-0.2,0.9-1.3,1.5-1.5c0.5-0.3,1-0.3,1.4-0.9c0.5-0.6,0.6-0.9,1.7-1.4c1.5-0.6,0.5-1.5,0.5-1.5
	c0.2-0.2,0.3-0.3,0.5-0.4c0.4-0.3,0.8-0.6,0.8-1.3c-0.1-1-0.3-2.6-1.1-3.4c0.8-0.2,2.4-0.3,3.4-0.5c1.1-0.3,1.7-0.7,1.7-0.7
	s-0.7-1.1,0.4-2.3c1.1-1.1,1.9-1.8,2.6-3.1c-0.7-0.1-1.9-0.5-4.7,0.6c0.2,0.1,0.3,0.2,0.4,0.3c0,0-1.8,0.5-2.4,1
	c-1.1,1-1.3,1.7-2.5,2.3c-1.2,0.6-2.4,0.4-3.5,0.9s-1.2,0.9-1.5,1c0.1,0.1,0,0.3,0.1,0.4c-0.1,0.1-0.6,1-1.2,1
	c0.1,0.2,0.5,0.4,0.5,0.4s-0.3,0.3-1.2,0.3c0.4,0.5,0.9,1,2,1.7c-0.1,0.2-0.5,0.5-0.3,0.9c0.2,0.4,0.6,0.9,2.4,1.3
	c-0.9,0-2,0.3-3.4,0.1c-1.4-0.2-1.7-0.3-2.6-0.1c0.1,0.1,0.3,0.1,0.6,0.3c-0.2,0-1.7-0.2-2.2,0.5c-0.5,0.7-0.8,1.8-0.7,2.6
	c-0.3,0.1-0.5,0.4-0.4,0.9c0.1,0.5,0.8,0.6,1.3,1c0.4,0.3,0.5,0.4,0.9,0.4c0.4-0.1,1.1-0.5,1.5-0.5c0.4,0,0.7,0.3,0.7,0.3
	s1-0.5,1.1-0.4c0.1,0.1,0,0.7,0.1,0.8C165.6,301.3,166.8,300.6,167.1,300.4L167.1,300.4z"/>
<path class="st97" d="M190,268.9c-4.9-12.7-17.1-15-17.1-15h-34.7l0.1,12.9h6.9v28.9h-7v12.9H172c8.1,0,14.6-8.2,14.6-8.2
	C197,285.6,190,268.9,190,268.9L190,268.9z M172.1,291.7c0,0-2.6,3.8-5.5,3.8h-5.8l-0.1-28.7h7.4c0,0,3.4,0.7,5.8,7.5
	C173.9,274.3,177.1,284,172.1,291.7z"/>
</svg>
