<?xml version="1.0" encoding="utf-8"?>
<!-- Generator: Adobe Illustrator 19.0.0, SVG Export Plug-In . SVG Version: 6.00 Build 0)  -->
<svg version="1.1" id="Elon" xmlns="http://www.w3.org/2000/svg" xmlns:xlink="http://www.w3.org/1999/xlink" x="0px" y="0px"
	 viewBox="112.9 230.5 100 100" style="enable-background:new 112.9 230.5 100 100;" xml:space="preserve">
<style type="text/css">
	.st0{fill:#050505;}
	.st1{fill:#E5E5E5;}
	.st2{fill:#010101;}
	.st3{fill:#544842;}
	.st4{fill:#443B35;}
	.st5{fill:#F4F4F4;}
	.st6{fill:#0A0805;}
	.st7{fill:#DCDCDC;}
	.st8{fill:#FBB96D;}
	.st9{fill:#FBB669;}
	.st10{fill:#FEFEFE;}
	.st11{fill:#FBB466;}
	.st12{fill:#FBB060;}
	.st13{fill:#FBB668;}
	.st14{fill:#FBB76A;}
	.st15{fill:#665A50;}
	.st16{fill:#6A5E53;}
	.st17{fill:#5C5048;}
	.st18{fill:#60544B;}
	.st19{fill:#554942;}
	.st20{fill:#574B44;}
	.st21{fill:#564A43;}
	.st22{fill:#524640;}
	.st23{fill:#594D46;}
	.st24{fill:#62574D;}
	.st25{fill:#FBB262;}
	.st26{fill:#6D6155;}
	.st27{fill:#6B5C51;}
	.st28{fill:#5A4F47;}
	.st29{fill:#75695B;}
	.st30{fill:#584C45;}
	.st31{fill:#534741;}
	.st32{fill:#594C45;}
	.st33{fill:#5D5149;}
	.st34{fill:#FBFBFB;}
	.st35{fill:#806F4E;}
	.st36{fill:#534740;}
	.st37{fill:#62564D;}
	.st38{fill:#6E6256;}
	.st39{fill:#5D5048;}
	.st40{fill:#664C19;}
	.st41{fill:#887A5E;}
	.st42{fill:#5A4E46;}
	.st43{fill:#665A4F;}
	.st44{fill:#716658;}
	.st45{fill:#706457;}
	.st46{fill:#60524A;}
	.st47{fill:#64594F;}
	.st48{fill:#5C5148;}
	.st49{fill:#5F544A;}
	.st50{fill:#67584E;}
	.st51{fill:#5F544B;}
	.st52{fill:#594E46;}
	.st53{fill:#695D52;}
	.st54{fill:#776C5D;}
	.st55{fill:#726759;}
	.st56{fill:#5E534A;}
	.st57{fill:#644915;}
	.st58{fill:#6A5F53;}
	.st59{fill:#735D32;}
	.st60{fill:#61564C;}
	.st61{fill:#745F36;}
	.st62{fill:#64584E;}
	.st63{fill:#61534A;}
	.st64{fill:#6C5425;}
	.st65{fill:#807563;}
	.st66{fill:#5E5249;}
	.st67{fill:#7E7362;}
	.st68{fill:#6E582C;}
	.st69{fill:#60554B;}
	.st70{fill:#6D5527;}
	.st71{fill:#695020;}
	.st72{fill:#685D51;}
	.st73{fill:#544841;}
	.st74{fill:#6D572B;}
	.st75{fill:#453B36;}
	.st76{fill:#3C332E;}
	.st77{fill:#2E2623;}
	.st78{fill:#F8B367;}
	.st79{fill:#403732;}
	.st80{fill:#423B2C;}
	.st81{fill:#403632;}
	.st82{fill:#CC8F4D;}
	.st83{fill:#8D663B;}
	.st84{fill:#E8A359;}
	.st85{fill:#453B35;}
	.st86{fill:#D09859;}
	.st87{fill:#4D423A;}
	.st88{fill:#4A4339;}
	.st89{fill:#413732;}
	.st90{fill:#342D29;}
	.st91{fill:#443B36;}
	.st92{fill:#D89752;}
	.st93{fill:#654524;}
	.st94{fill:#231D1B;}
	.st95{fill:#FAFAFA;}
	.st96{fill:#FBBB70;}
	.st97{fill:#E8E8E8;}
	.st98{fill:#F8F8F8;}
	.st99{fill:#F6F6F6;}
	.st100{fill:#F2F2F2;}
	.st101{fill:#EFEFEF;}
	.st102{fill:#ECECEC;}
	.st103{fill:#EAEAEA;}
	.st104{fill:#EBEBEB;}
	.st105{fill:#F1F1F1;}
	.st106{fill:#F3F3F3;}
	.st107{fill:#ECA65A;}
	.st108{fill:#FBCA87;}
	.st109{fill:#FBBD73;}
	.st110{fill:#FBBD74;}
	.st111{fill:#FBC47E;}
	.st112{fill:#FBC682;}
	.st113{fill:#FBC886;}
	.st114{fill:#FBCB89;}
	.st115{fill:#FBC17A;}
	.st116{fill:#FBC078;}
	.st117{fill:#FBBF76;}
	.st118{fill:#FBC47F;}
	.st119{fill:#FBC783;}
	.st120{fill:#FBC27C;}
	.st121{fill:#FCFCFC;}
	.st122{fill:#FACD8D;}
	.st123{fill:#FBD092;}
	.st124{fill:#FBC27B;}
	.st125{fill:#FBC581;}
	.st126{fill:#FADDA6;}
	.st127{fill:#FAD9A1;}
	.st128{fill:#F9D9A0;}
	.st129{fill:#FAC885;}
	.st130{fill:#FAD397;}
	.st131{fill:#F9D59A;}
	.st132{fill:#FACD8E;}
	.st133{fill:#F8D499;}
	.st134{fill:#F9CF92;}
	.st135{fill:#F0F0F0;}
	.st136{fill:#FBCF90;}
	.st137{fill:#FAD79D;}
	.st138{fill:#FADBA3;}
	.st139{fill:#F9D397;}
	.st140{fill:#FBD294;}
	.st141{fill:#FAD89F;}
	.st142{fill:#F9D396;}
	.st143{fill:#FDFDFD;}
	.st144{fill:#FBC987;}
	.st145{fill:#FBCB8A;}
	.st146{fill:#FBD193;}
	.st147{fill:#FAD396;}
	.st148{fill:#FAD599;}
	.st149{fill:#FBCE8E;}
	.st150{fill:#FAD79C;}
	.st151{fill:#F8C888;}
	.st152{fill:#FAE0AB;}
	.st153{fill:#FBCC8C;}
	.st154{fill:#FAE2AE;}
	.st155{fill:#FAE5B3;}
	.st156{fill:#FAE9B8;}
	.st157{fill:#FBCD8D;}
	.st158{fill:#FAEBBC;}
	.st159{fill:#FAEDC0;}
	.st160{fill:#FAF0C3;}
	.st161{fill:#FAF2C7;}
</style>
<path d="M123.7,286.6c-0.5,0.5-0.9,1-1.5,1.4c-0.4,0.2-0.7,0.4-1,0c-0.3-0.4,0-0.6,0.4-0.9c2.2-1.7,3.3-4.2,3.9-6.8
	c0.6-2.5,0.5-5.1,0.3-7.7c0-0.3-0.2-0.7-0.3-1c-0.6-2-0.4-3.9,0.8-5.7c0.6-0.9,1.3-1.8,2-2.8c-2,0.4-3.9,0.4-5.8-0.2
	c-1.4-0.4-2.7-1.1-3.8-2.1c-0.3-0.2-0.7-0.4-0.5-0.9c0.2-0.6,0.7-0.3,1-0.3c0.1,0,0.2,0,0.3-0.1c-0.4-0.3-0.7-0.6-1.1-1
	c-0.3-0.3-0.6-0.5-0.3-1c0.3-0.4,0.6-0.2,0.9-0.1c3,0.8,5.8,0.4,8.5-1.1c0.5-0.3,0.8-0.7,0.8-1.3c0.2-2.5,0.6-4.9,1.3-7.3
	c0.7-2.5,1.8-3.2,4.4-3c0.7,0.1,1.5,0.2,2.2,0.3c0.5,0.1,0.6,0,0.7-0.5c0.1-1.9,0.7-3.8,1.6-5.5c0.2-0.3,0.3-0.7,0.8-0.6
	c0.5,0.1,0.4,0.5,0.4,0.8c0.1,1.4,0.3,2.7,1.2,4c0.4-1.5,0.8-2.9,1.6-4.1c0.2-0.3,0.4-0.5,0.5-0.8c0.6-0.8,0.9-0.8,1.4,0.1
	c0.6,1.3,1.6,2.2,3,2.8c-0.3-3.6,1.2-6.6,2.8-9.5c0.1,0,0.3,0,0.4,0c0.3,0.2,0.5,0.4,0.5,0.9c0.2,3.1,2,5.1,5,5.8
	c1.6,0.4,3.1,0.4,4.7,0.2c-1.3-0.7-2.6-1.4-3.8-2.4c-0.3-0.2-0.8-0.4-0.5-1c0.3-0.5,0.7-0.2,1.1-0.1c3.2,1.3,6.5,1.7,10,1.7
	c2.5,0,5-0.1,7.5,0.4c5.3,0.9,8.4,4.1,9.6,9.3c0.1,0.1,0.2,0.3,0.2,0.5c0.1,0.8,0,1.7-0.1,2.5c0,0.2-0.1,0.4-0.1,0.6
	c-0.2,1.1-0.5,2.2-0.9,3.2c-0.3,0.7-0.5,1.5-0.9,2.1c0.4-0.5,0.5-1.3,0.9-2c0.4-0.9,0.7-1.9,0.9-2.9c0.3-1.4,0.3-2.8,0.3-4.2
	c-0.5-3.9-2.6-6.6-5.9-8.5c-0.2-0.1-0.5-0.2-0.7-0.3c-0.3-0.2-0.5-0.4-0.3-0.8c0.1-0.3,0.4-0.5,0.7-0.4c3.5,1,7,2.1,9.1,5.5
	c0.5,0.8,0.8,1.7,0.9,2.7c0,0.7,0.3,0.8,0.9,0.7c1.4-0.3,2.8-0.6,4.3-0.5c1.7,0,2.5,0.6,3.1,2.2c0.2,0.5,0.4,1.1,0.5,1.6
	c0.1,0.8,0.4,0.8,1,0.5c0.2-0.1,0.3-0.1,0.5-0.2c0.2-0.1,0.5-0.1,0.7,0.1c0.2,0.2,0.2,0.5,0,0.8c-0.3,0.6-0.6,1.2-1.1,1.6
	c-0.7,0.5-0.5,1.2-0.5,1.9c0,0.5,0.4,0.3,0.6,0.2c0.4-0.2,0.7,0,0.8,0.4c0.1,0.4-0.2,0.6-0.5,0.7c-0.8,0.1-0.8,0.6-0.8,1.3
	c0.1,0.8,0.1,1.6,0.1,2.4c0,0.4,0.2,0.5,0.6,0.5c0.4,0,0.9,0,1.3,0c0.3,0,0.7-0.1,0.9,0.3c0.2,0.5-0.2,0.7-0.5,0.9
	c-0.1,0.1-0.2,0.2-0.4,0.3c0.6,0.3,1.1,0.2,1.7,0.2c0.5,0,0.8,0.2,0.7,0.7c-0.1,0.3,0,0.4,0.2,0.6c0.7,0.9,0.8,1.8,0,2.5
	c-0.9,0.9-1,2.1-1.8,3.1c0.9,0.1,1.6-0.2,2.3-0.2c0.3,0,0.6,0,0.8,0.3c0.2,0.4-0.1,0.6-0.3,0.8c-0.5,0.4-1,0.9-1.6,1.4
	c0.6,0.2,1.1,0.3,1.6,0.4c0.3,0.1,0.5,0.2,0.5,0.5c0,0.3-0.2,0.5-0.5,0.6c-0.4,0.1-0.8,0.3-1.3,0.5c0.4,0.5,0.7,1,1,1.5
	c0.2,0.3,0.4,0.6,0.1,0.9c-0.3,0.3-0.6,0.1-0.9,0c-0.8-0.3-1.6-0.7-2.4-1c-0.3-0.1-0.6-0.3-1-0.2c-1.5-0.6-3-1.2-4.5-1.9
	c-0.7-0.3-1.4-0.1-2-0.3c-0.1,0-0.2-0.1-0.3-0.1c0,0-0.1,0-0.2-0.1c0,0.1,0.1,0.1,0.2,0.1c1.6,1,3.2,2.1,4.9,2.9
	c1.1,0.5,2.3,0.9,3.4,1.5c0.5,0.3,1.2,0.4,1.8,0.6c0.3,0.1,0.8,0.1,0.8,0.6c0,0.6-0.5,0.5-1,0.6c0.9,1.3,1.7,2.6,2.6,3.9
	c0.2,0.3,0.7,0.7,0.3,1.2c-0.4,0.5-0.8,0-1.2-0.2c-0.4-0.2-0.8-0.5-1.4-0.6c0.1,0.5,0.1,1.1,0.2,1.6c0.2,1.5,0.3,3.1,0,4.6
	c0,0.2-0.1,0.4,0,0.6c0.7,2.3,1.1,4.8,2.4,6.9c0.4,0.7,0.9,1.2,1.5,1.7c0.3,0.2,0.7,0.4,0.5,0.9c-0.1,0.4-0.5,0.3-0.9,0.3
	c-0.1,0-0.3-0.1-0.4,0.1c-0.4,1.1-1.4,1.1-2.2,1.4c-0.1,0.1-0.3,0.3-0.5,0.3c-0.6-0.1-0.7-0.4-0.5-0.9c0.1-0.2,0.3-0.3,0.1-0.6
	c-0.3-0.3-0.1-0.6,0.2-0.9c0.3-0.1,0.6-0.1,0.9-0.1c0.1,0,0.1,0,0.2,0c0.1,0,0.1,0.1,0.1,0c-0.2-0.1-0.3-0.1-0.5-0.2
	c-0.1,0-0.2-0.1-0.2-0.1c-0.3-0.3-0.7-0.5-0.6-1c0.1-0.5,0.6-0.6,1-0.5c-1.8-3.8-2.6-7.8-3.7-11.8c-0.4,2.1-1.2,4.2-1.9,6.3
	c-0.2,0.6-0.6,1-1.4,0.7c-0.3-0.3-0.3-0.8-0.2-1.2c0.2-2.9,0.4-5.8,0.3-8.7c0-0.6,0-1.2,0.1-1.8c0.1-0.6-0.1-0.9-0.7-1.1
	c-0.7-0.1-1.4-0.4-2-0.7c-0.8-0.5-1.5-1.2-2.1-1.8c-0.3-0.3-0.6-0.7-0.3-1.2c0.3-0.4,0.8-0.3,1.2,0c0.1,0.1,0.2,0.3,0.4,0.4
	c0.8,0.9,1.7,1.5,2.8,1.8c0.3,0.1,0.6,0.3,0.8-0.1c0.2-0.4,0.1-0.8-0.3-1.1c-0.6-0.4-1.3-0.6-1.9-1c-0.3-0.2-0.6-0.3-1-0.4
	c-1.6-0.6-2.7-2-4-3c-0.1-0.1-0.2-0.2-0.3-0.3c-0.3-0.3-0.5-0.6-0.4-1.1c0.1-0.5,0.6-0.3,0.8-0.4c-0.7-0.2-1.4-0.4-2-1.1
	c-0.1-0.6,0.1-0.9,0.7-1.1c2.6,0.2,5.2,0.6,7.8,1c0.3,0,0.6,0.1,0.8,0.1c1.5,0.2,1.7,0.1,2.4-1.4c-2.7,0.8-5.4,0.8-8.2,0.2
	c-2.1-0.6-3.3-2.1-4.3-3.8c-0.3-0.6-0.6-1.1-1-1.7c-0.3-0.4-0.7-0.9-0.3-1.5c2.2-0.9,4.4-1.2,6.7-1c0.4,0,0.7,0.1,1.1,0.2
	c1,0.2,2,0.3,3,0.6c-0.1-3.7-0.1-7.3-1.1-10.9c-0.5-2-1.3-2.5-3.4-2.2c-1,0.1-2,0.3-3,0.5c-0.6,0.1-0.9,0.4-1,1
	c-0.1,0.8-0.4,1.5-0.8,2.2c-0.8,1.6-1.8,3.2-2.9,4.6c-0.5,0.8-1.2,1.4-1.4,2.4c-0.1,0.5-0.6,0.7-1.1,0.8c-0.7,0.1-1-0.3-1.2-1
	c-0.1-0.3-0.1-0.7-0.2-1c-0.1-0.2-0.1-0.4-0.4-0.3c-0.9,0.5-1.3-0.2-1.6-0.9c-0.2,0.1-0.1,0.3-0.1,0.4c-0.2,0.9-0.7,1-1.3,0.4
	c-0.5-0.5-1-1.1-1.6-1.6c-0.3-0.3-0.6-0.6-1-0.7c-2.8,0.5-5.5-0.1-8.2-1c-0.9-0.3-1.7-0.7-2.6-1.1c-1-0.4-2-1-2.8-1.8
	c-0.6-0.5-1.1-1.1-1.8-1.5c-0.3-0.2-0.4-0.4-0.6-0.6c-0.2-0.3-0.5-0.7-0.8-0.9c-0.4-0.3-0.6-0.8-1-1.2c-0.3-0.4-0.5-0.9-0.8-1.3
	c-0.2-0.4-0.3-0.8,0-1.1c0.5-0.3,0.9-0.1,1.2,0.2c0.3,0.4,0.5,0.8,0.8,1.2c0.2,0.4,0.5,0.7,0.8,1c0.5,0.7,1.1,1.2,1.7,1.8
	c0.3,0.3,0.7,0.5,1,0.8c0.4,0.4,0.9,0.7,1.3,1c0.7,0.5,1.5,1,2.3,1.3c2.4,1,4.8,1.8,7.4,1.8c-0.5-0.2-1-0.4-1.5-0.6
	c-0.5-0.2-1-0.3-1.5-0.4c-0.5-0.2-1-0.4-0.9-1.1c0.1-0.1,0.2-0.2,0.3-0.3c0.4-0.1,0.7-0.1,1.1-0.1c1,0.2,2,0.5,2.9,1
	c1.4,0.7,2.7,1.5,3.9,2.5c0.4,0.4,0.7,0.5,0.9-0.2c0.1-0.4,0.4-0.7,0.8-0.7c0.4,0,0.7,0.3,0.9,0.6c0.1,0.2,0.2,0.4,0.3,0.7
	c0.2,0.5,0.5,0.4,0.9,0.3c1.8-0.2,1.7-1.7,2-2.8c0.1-0.2,0-0.4,0.1-0.7c0.1-1,0.2-1.9,0-2.9c-0.2-0.5-0.2-1-0.3-1.5
	c-0.1-0.5-0.3-0.9-0.6-1.3c-0.2-0.3-0.3-0.8-0.6-1.1c-0.3-0.4-0.5-1-0.9-1.3c-0.4-0.4-0.7-0.9-1.3-1.1c-0.5-0.3-0.9-0.8-1.5-1
	c-0.6-0.3-1.3-0.6-2-0.6c-1.6-0.5-3.2-0.7-4.9-0.7c-2.4,0-4.9,0.2-7.3-0.2c-0.5-0.1-1-0.2-1.6-0.3c-0.3,0-0.6-0.3-0.9-0.2
	c0.2-0.1,0.4,0,0.6,0.1c1.9,0.6,3.9,1,5.9,1.2c0.3,0.1,0.6,0.2,0.9,0.2c0.1,0,0.2,0,0.3,0.1c0.2,0.1,0.5,0.1,0.7,0.2
	c0.5,0.2,1,0.3,1.6,0.5c0.1,0,0.2,0.1,0.2,0.1c0.7,0.2,1.3,0.6,2,0.9c0.6,0.4,1.3,0.7,1.9,1.1c0.4,0.3,0.9,0.6,1.4,1
	c0.6,0.4,1.1,0.9,1.7,1.3c0.4,0.4,0.8,0.8,1.2,1.2c0.4,0.6,0.9,1.1,1.2,1.8c0.5,0.8,0.6,1.6,0.7,2.5c0,0.5-0.2,0.8-0.7,0.8
	c-0.5,0-0.7-0.3-0.8-0.7c0-0.2,0-0.4-0.1-0.6c-0.1-0.4-0.1-0.8-0.4-1.1c-0.2-0.2-0.3-0.4-0.4-0.6c-0.2-0.4-0.3-0.8-0.7-1.1
	c-0.5-0.4-0.8-1-1.3-1.3c-0.6-0.4-1.2-1-1.8-1.3c-0.5-0.3-0.9-0.6-1.4-0.9c-0.7-0.4-1.3-0.9-2.1-1.1c-1.1-0.4-2.1-0.8-3.3-1.1
	c-1.5-0.2-3-0.6-4.6-0.5c-0.4,0-0.8,0-1.2-0.1c-1.9-0.2-3.8,0-5.6-0.1c-1,0.1-1.8-0.3-2.7-0.6c-0.6-0.2-1.1-0.5-1.6-0.8
	c-0.6-0.4-1.2-0.9-1.6-1.5c-0.2-0.3-0.4-0.6-0.7-0.8c-0.4-0.4-0.4-0.9-0.6-1.5c-0.5,0.6-0.6,1.2-0.8,1.8c-0.1,0.2-0.1,0.3-0.2,0.5
	c-0.2,0.5-0.2,1-0.4,1.5c-0.2,0.6-0.1,1.2-0.1,1.8c0,0.2,0,0.5,0,0.7c0,0.3,0,0.7,0.1,1c0.1,0.3,0.1,0.6,0.2,0.9
	c0.1,0.5,0.3,0.9,0.5,1.3c0.2,0.4,0.4,0.8,0.6,1.1c0.1,0.3,0.2,0.5,0.4,0.8c0.2,0.3,0.4,0.6,0.6,0.9c0.2,0.3,0.4,0.6,0.6,0.9
	c0.2,0.4,0.5,0.7,0.7,1c0.6,0.8,1.2,1.7,2.1,2.2c0.7,0.7,1.6,1.1,2.5,1.6c0.8,0.4,0.8,0.7,0.4,1.4c-0.4,0.2-0.8,0.1-1.1-0.1
	c-1.6-0.6-2.9-1.9-4.1-3c-0.8-0.7-1.2-1.7-1.9-2.5c-0.5-0.7-0.7-1.6-1.3-2.3c-0.4-0.4-0.4-1.1-0.8-1.5c-0.5-0.6-0.5-1.3-0.8-2
	c-0.4,0.2-0.3,0.5-0.3,0.8c0,0.4,0,0.7,0.1,1.1c0,0.1,0,0.2,0.1,0.3c0,0.5,0.2,1,0.4,1.4c0.3,0.9,0.6,1.8,1.1,2.6
	c0.6,1.3,1.6,2.3,2.6,3.3c0.6,0.5,1.2,0.9,1.9,1.2c0.4,0.2,0.7,0.4,0.6,0.9c-0.1,0.5-0.5,0.6-0.9,0.6c-0.5-0.1-0.9-0.3-1.2-0.6
	c-1.5-0.9-2.6-2.2-3.7-3.6c-0.6-0.9-1-1.9-1.5-2.9c-0.3-0.5-0.3-1.1-0.5-1.7c-0.1-0.3-0.1-0.5-0.2-0.8c0-0.1-0.1-0.2-0.1-0.3
	c-0.1-0.4,0-0.8-0.2-1.2c-0.1-0.4-0.1-0.8-0.1-1.3c0-0.1,0-0.3,0-0.4c0-0.3-0.2-0.5-0.5-0.7c-0.6-0.4-1-1-1.4-1.7
	c-0.6,0.6-0.7,1.3-1,2c-0.2,0.4-0.3,0.9-0.4,1.3c-0.2,1.2-0.2,2.3,0.2,3.5c0.1,0.6,0.4,1.2,0.7,1.8c0.4,0.9,1,1.7,1.7,2.5
	c1.3,1.7,3,3.1,4.8,4.4c0.4,0.3,0.8,0.6,1.2,0.9c0.3,0.3,0.3,0.7,0,1c-0.3,0.3-0.7,0.3-1,0.1c-0.2-0.1-0.4-0.2-0.6-0.3
	c-1.2-1.2-2.6-2.1-3.9-3.3c-1.2-1.2-2.4-2.6-3.3-4.1c-0.7-1-1-2.1-1.3-3.2c-0.1-0.4,0-0.8-0.2-1.1c-0.5-0.4-0.6-1-1-1.4
	c-0.5-0.7-0.5-1.6-0.9-2.2c-0.1,0.6-0.3,1.3-0.4,2.1c-0.2,1.1-0.1,2.2,0.1,3.3c0.1,1.1,0.5,2.1,1,3.1c1,1.7,2.5,3,4.2,4
	c0.6,0.4,1.2,0.8,1.9,1.1c1.1,0.5,1.1,0.7,0.5,1.7c-0.1,0.1-0.1,0.2-0.1,0.4c-0.2,0.5-0.6,0.7-1.1,0.9c-1.4,0.6-2.8,0.4-4.2,0.4
	c-2.5-0.3-4.1-1.6-5-4c-0.5-1.3-0.6-2.6-0.8-3.9c-0.1-0.4,0-0.9,0.5-1.2c0.7-0.2,0.9,0.3,1.2,0.7c1.2,1.8,2.8,3.1,4.8,3.9
	c-1.6-1.2-2.7-2.7-3.6-4.5c-0.3-0.7-0.6-1.4-0.6-2.2c-0.1-0.8-0.5-1.1-1.3-1.3c-0.7-0.1-1.4-0.2-2.1-0.3c-1-0.1-1.8,0.4-2.2,1.3
	c-0.4,0.8-0.6,1.6-0.8,2.4c-0.7,3-1.1,6-1.1,9.1c0,2.2,0.1,4.4,0.6,6.5c0.3,1.7,0.7,3.3,1.2,5c0.3,0.8,0.2,1.6-0.3,2.4
	c-1.1,2-1.2,4.3-1.5,6.5c-0.4,2.6-0.7,5.3-0.8,7.9c-0.2,0.6-0.1,1.2-0.1,1.8c0,0.3,0,0.7-0.2,1c-0.1,0.4-0.3,0.7-0.8,0.7
	c-0.4,0-0.6-0.3-0.7-0.7c-0.4-1.2-0.5-2.4-0.7-3.7c0-0.3,0-0.6-0.2-0.9c-1.3,3.2-0.9,6.9-3.1,9.9c0.5-0.2,0.9-0.2,1.1,0.3
	c0.2,0.5-0.1,0.8-0.4,1c-0.3,0.2-0.6,0.3-0.8,0.5c-0.2,0.1-0.4,0.2-0.6,0.3c-0.3,0.1-0.6,0.2-0.9,0.2c-0.2,0-0.4-0.2-0.6,0
	c-0.4,0.1-0.7,0.3-1-0.2c-0.2-0.3,0-0.6,0.3-0.8c2.3-1.6,3.2-3.9,3.6-6.5c0.1-1,0.4-1.9,0.5-2.9C124,286.8,124.2,286.5,123.7,286.6z
	"/>
<path class="st0" d="M163.8,328.5c-0.4-0.3-0.3-0.8-0.6-1.1c-0.1-0.1,0,0-0.1-0.1c-0.4-0.4-1-0.8-0.4-1.4c0.6-0.6,1,0,1.4,0.4
	c0,0,0.1,0.1,0.1,0.1c0.1,0.2,0.2,0.3,0.3,0.5c0.1,0.4,0.3,0.7,0,1.1c-0.1,0.1-0.2,0.3-0.4,0.4C164,328.5,163.9,328.5,163.8,328.5z"
	/>
<path class="st1" d="M204.1,299.1c0.1-0.1,0.2-0.1,0.3-0.2c-0.1,0.3-0.2,0.5-0.2,0.8c-0.5,0-0.9,0.2-1.1,0.7c-2.4,3.9-5.6,7-8.9,10
	c-0.2,0.2-0.5,0.6-0.9,0.1c0.5-2.5-0.1-4.9-0.6-7.3c-0.5-2.7-1.7-5.3-2.8-7.8c0-0.7,0.7-0.8,1.1-1.2c0.6-0.4,1.2-0.6,1.8-1
	c0.8-0.5,1.7-0.7,2.6-0.9c0.9-0.3,1.9-0.3,2.8-0.2c3,0.4,4.7,1.8,5.3,4.3c0.1,0.6,0,1.2,0.1,1.9
	C203.4,298.6,203.2,299.2,204.1,299.1z"/>
<path class="st2" d="M193.3,310.6c3.8-3.1,7.1-6.5,9.7-10.6c0.3-0.5,0.6-0.9,1.2-0.3c0.1,0.6-0.3,1-0.6,1.4
	c-3.6,5.4-8.3,9.7-13.5,13.4c-5,3.6-10.6,6.2-16.4,8.3c-3,1.1-6,2.2-8.1,4.9c-0.2,0.2-0.4,0.2-0.6,0.2c-0.6-0.4-0.4-0.8-0.2-1.3
	c0.9-1.5,2.5-2.1,3.9-3c0.9-0.5,1.9-0.8,2.8-1.3c2.8-1,5.7-2.1,8.4-3.4c1.3-0.5,2.6-1.2,3.8-1.9c0.8-0.3,1.5-0.8,2.3-1.3
	c0.7-0.4,1.4-0.9,2.1-1.3c0.7-0.4,1.3-0.8,1.9-1.3c0.5-0.4,1-0.7,1.5-1.1c0.5-0.3,0.9-0.7,1.4-1.1
	C192.9,310.8,193,310.6,193.3,310.6z"/>
<path class="st3" d="M193.3,270.3c2.4-0.1,4.3,1.5,6.4,2.2c0.1,0,0.1,0.2,0.2,0.3c0.5,0.7,1.1,1.3,1.5,2c-2.3-0.5-4.3-1.6-6.3-2.8
	c-0.8-0.5-1.5-1-2.2-1.5C192.9,270.2,193.1,270.2,193.3,270.3z"/>
<path class="st4" d="M185.3,246.5c0.5,1.1,0.1,2.2,0,3.3c0,0.4-0.1,0.7-0.2,1.1c-0.4-0.1-0.2-0.4-0.2-0.6c0-0.2,0-0.4,0-0.6
	c0.1-0.9,0.1-1.8,0-2.6c0-0.1,0-0.3,0-0.4C185.1,246.6,185.2,246.5,185.3,246.5z"/>
<path class="st5" d="M164.9,326.6c-0.2,0.4-0.5,0.9,0,1.3c-0.1,0.1-0.3,0.1-0.4,0.2c-0.1-0.4-0.2-0.7-0.2-1.1
	C164.4,326.7,164.6,326.5,164.9,326.6z"/>
<path class="st2" d="M162.8,327.7c-0.3,0.2-0.6,0.3-0.9-0.1c-2-2.3-4.7-3.4-7.4-4.4c-6.6-2.4-12.8-5.3-18.4-9.5
	c-4.9-3.6-9.3-7.7-12.6-12.9c-0.2-0.3-0.6-0.6-0.4-1.1c0.3-0.4,0.6-0.4,1-0.1c1.2,1.4,2.1,2.9,3.3,4.3c1.9,2.2,3.9,4.2,6.1,6.1
	c0.7,0.6,1.4,1.2,2.1,1.7c0.5,0.4,1,0.8,1.5,1.1c0.5,0.4,1,0.8,1.5,1.1c0.7,0.4,1.3,0.9,2,1.3c0.5,0.3,1,0.7,1.5,0.9
	c0.6,0.3,1.1,0.7,1.7,0.9c0.3,0.1,0.5,0.3,0.8,0.4c0.6,0.3,1.3,0.6,1.9,0.9c1.7,0.9,3.5,1.5,5.2,2.2c1.9,0.8,3.8,1.4,5.7,2.2
	c1.5,0.6,2.9,1.5,4.1,2.5c0.3,0.3,0.5,0.5,0.8,0.8c0.1,0.1,0.1,0.1,0.2,0.2C162.7,326.9,163.3,327.2,162.8,327.7z"/>
<path class="st6" d="M123.9,299.8c-0.3-0.2-0.6-0.2-0.9,0c0-0.2,0.3-0.5-0.2-0.6c-0.3,0-0.5-0.1-0.8-0.2c-0.8-0.2-1.3-0.8-1.4-1.6
	c0.2-0.2,0.4-0.2,0.6-0.2c0.4,0.2,0.7,0,1-0.1c0.1-0.1,0.3-0.1,0.5-0.2c0.3-0.2,0.5-0.4,0.8-0.4c0.4,0.1,0.7,0.3,0.7,0.8
	c0,0.1,0,0.2-0.1,0.3c-0.1,0.2-0.3,0.3-0.4,0.4c0.2,0.2,0.4,0.1,0.6,0.2C124.9,298.9,124,299.3,123.9,299.8z"/>
<path class="st5" d="M162.8,327.7c0.2-0.6-0.3-0.9-0.5-1.3c0-0.7,0.3-1,1-0.9c0.6,0,1,0.5,0.9,1.2c0,0-0.1-0.1-0.1-0.1
	c-0.4-0.3-0.7-1-1.2-0.5c-0.5,0.5,0.2,0.8,0.4,1.1c0,0.1,0,0.2,0.1,0.3C163.1,327.5,162.9,327.6,162.8,327.7z"/>
<path class="st7" d="M123.7,286.6c0.1-0.2,0.2-0.4,0.4-0.3c0.2,0.2,0.1,0.5-0.1,0.8C123.9,286.8,123.9,286.6,123.7,286.6z"/>
<path class="st8" d="M192.7,293.4c-0.6,0.3-1.1,0.6-1.7,1c-0.4-0.4-0.2-0.9-0.1-1.4c2.1-7.1,1.5-14.1-1.8-20.8
	c-2.6-5.3-6.6-9.5-11.8-12.4c-4.3-2.3-8.8-3.4-13.8-3.4c-8.1,0-15,2.9-20.6,8.6c-4.4,4.5-7,9.9-7.8,16.1c-0.5,3.9-0.2,7.8,0.9,11.6
	c0.1,0.5,0.4,1-0.1,1.5c-0.6,0-1.2-0.2-1.5-0.8c0.3-0.4,0.2-0.8,0.1-1.2c-2.6-9.9-0.5-18.8,5.9-26.6c3.4-4.3,7.8-7.4,13-9.2
	c0.7-0.2,1.5-0.5,2.2-0.8c0.1,0,0.2,0,0.3,0c0.7,0.1,1.3,0.2,2,0c-0.3-0.5-1.2-0.5-1-1.3c0.2-0.2,0.5,0,0.7-0.2
	c0.9-0.2,1.7,0.2,2.6,0.3c2.9,0.3,5.8,0.3,8.7-0.2c0.2,0,0.4,0,0.6,0c3-0.3,5.6,1.1,8.1,2.4c4.1,2,7.5,5,10.4,8.6
	c0.5,0.6,1.2,1.3,0.8,2.2c0,0.1,0,0.2,0.2,0.3c0.7,0.3,1.3,0.6,2,0.9c0,0.3-0.2,0.2-0.3,0.2c-0.3,0-0.5,0-0.6,0.3
	c-0.1,0.3,0,0.5,0.3,0.7c0.2,0.2,0.4,0.3,0.5,0.5c1.6,3.3,2.7,6.7,3.2,10.4c0.5,4.1,0.1,8.1-1,12C192.9,293,192.8,293.2,192.7,293.4
	z"/>
<path class="st9" d="M140.7,258.3c1.5,0,3,0,4.4-0.6c0.4-0.2,0.7-0.3,0.8-0.8c1-0.6,2-0.6,3.1-0.3c0.4,0.3,0.1,0.6-0.1,0.8
	c-0.3,0.3-0.6,0.5-1,0.7c-5.7,3.5-9.9,8.2-12.5,14.4c-1.3,3.1-2.1,6.4-2.3,9.9c-0.2,3.1,0.2,6.1,0.8,9.2c0.1,0.5,0.3,1.1-0.1,1.5
	c-0.9,0-1.8-0.1-2.5-0.8c0.2-0.5,0.2-1,0.1-1.5c-0.6-2.8-1-5.6-0.8-8.4c0.4-7.3,2.7-13.8,7.4-19.5c0.7-0.9,1.6-1.7,2.2-2.8
	c0.4-0.9,1.3-1.1,2.1-1.6c0,0-0.2-0.1-0.1,0c0,0,0,0.1-0.1,0.1C141.2,258.8,141,258.7,140.7,258.3z"/>
<path class="st10" d="M194.7,258.8c-2.7-0.5-5.4-0.1-8,0.7c-0.4,0.1-0.6-0.2-0.9-0.4c-0.6-0.4-1.3-0.8-2-1.1
	c-0.3-0.1-0.6-0.2-0.6-0.6c0.5-0.2,1-0.4,1-1.1c0-0.2,0.2-0.5,0.3-0.7c1.4-1.9,2.7-3.8,3.8-5.8c2.1-2.2,5.3-1.5,6.3,1.3
	c0.7,2.1,0.9,4.4,0.8,6.6C195.2,258.3,195.1,258.7,194.7,258.8z"/>
<path class="st11" d="M140.1,260.1c0.4,0.3,0,0.5-0.1,0.7c-2.5,2.8-4.7,5.8-6.3,9.3c-1.3,2.9-2.2,5.9-2.6,9.1
	c-0.1,1.2-0.3,2.4-0.4,3.6c-0.1,2.9,0.3,5.7,0.9,8.5c0.1,0.4,0.4,0.9-0.4,1c-0.9,0.5-1.7,0.4-2.6,0.1c-0.4-0.9-0.6-1.8-0.4-2.8
	c0.2-0.8,0-1.7,0.1-2.5c0.2-4.4,0.7-8.8,1.7-13c0.1-0.5,0.2-0.9,0.5-1.3c0.6-0.8,0.7-1.6,0.4-2.5c-0.1-0.4-0.1-0.8,0-1.1
	c0.6-1.4,1.2-2.9,2.2-4c0.8,0,0.4,0.7,0.6,0.9c0.6-1,1.5-2,2.4-2.9c0.9-1,2-1.8,3.1-2.6C139.6,260.2,139.8,260,140.1,260.1z"/>
<path class="st10" d="M140.1,260.1c-1.2,0.8-2.3,1.8-3.4,2.8c-1,1-1.9,2.1-2.8,3.3c-0.4-0.3-0.2-0.9-0.5-1.3
	c-0.7-1.2-0.6-2.5-0.8-3.8c-0.1-0.3,0-0.6-0.1-0.9c-0.2-2.4-0.5-4.8,0-7.2c0.2-1.1,0.4-2.2,1.2-3.1c0.4-0.4,0.8-0.8,1.4-0.8
	c0.2,0.1,0.5,0.1,0.4,0.4c-0.3,0.2-0.4,0.4-0.4,0.8c0.2,1.5,0.3,2.9,0.9,4.3c0.9,2.1,2.5,3.3,4.7,3.6c0.5,0.3,1.1,0,1.7,0.2
	C141.6,259.1,140.7,259.4,140.1,260.1z"/>
<path class="st12" d="M135,249.3c-1.2,0.3-1.7,1.2-2,2.3c-0.7,2.1-0.6,4.3-0.5,6.5c0,0.7,0.1,1.4,0.1,2.2c0.2,0.6,0.1,1.1-0.4,1.6
	c-0.7,0.7-1.1,1.6-1.6,2.4c-0.2,0.3-0.3,0.7-0.7,0.9c-0.6-2.5-0.7-5-0.6-7.5c0.1-3.2,0.5-6.4,1.4-9.5c0.6-2.4,1.4-2.9,3.8-2.6
	c0.2,0,0.3,0,0.5,0.1c1.9,0.2,1.9,0.2,2.4,2.1c0.1,0.6,0.4,1.2,0.5,1.8c-0.8,0.2-1.4-0.3-2.2-0.3C135.5,249.4,135.3,249.2,135,249.3
	z"/>
<path class="st8" d="M133.7,293c0.1-1.3-0.4-2.5-0.6-3.8c-0.5-3.3-0.6-6.6,0-10c0.8-4.6,2.5-8.8,5.2-12.6c2.6-3.6,5.7-6.6,9.6-8.9
	c0.5-0.3,0.9-0.6,1.2-1.1c0.1-0.1,0.2-0.1,0.4,0c0.2,0.1,0.5,0.3,0.7,0.4c0.2,0.1,0.6,0.2,0.8-0.1c0.2-0.3,0.2-0.6-0.1-0.8
	c0.5-0.5,0.5-0.5,1.3-0.2c-0.4-0.4-0.8-1.1-0.8-1.4c-0.1-0.6,0.1-0.7,0.6-0.5c0.4,0.2,0.7,0.4,1.1,0.6c0.7,0.2,1.5,0.5,2.3,0.7
	c0.3,0.1,0.6,0,0.6,0.4c-3.2,1.2-6.5,2.4-9.4,4.5c-6.2,4.6-10.4,10.5-12.1,18.1c-0.5,2.6-0.8,5.1-0.7,7.7c0.1,2.2,0.5,4.4,1.2,6.5
	c0.1,0.5,0.1,0.7-0.4,0.7C134.1,293.6,133.8,293.5,133.7,293z"/>
<path class="st13" d="M183.1,257.5c1.2,0.6,2.5,1.1,3.6,2c0,0.2-0.1,0.4,0.1,0.6c1.1,1.4,1.7,3.1,2.9,4.4c0.7,0.8,1.5,1.3,2.5,1.6
	c-0.1,0.5-0.6,0.4-0.9,0.4c-0.6,0.1-1.2-0.2-1.8,0.1c-0.6,0.1-0.6,0.5-0.5,1c-0.1,0-0.2-0.1-0.2-0.1c-0.1-1.9-1.6-3-2.7-4.3
	c-2.6-2.9-5.6-5.1-9-6.8c-1.6-0.8-3.4-1.4-5.1-2c-0.8-0.3-1.5,0-2.2-0.1c-0.1-0.1,0.3-0.3-0.1-0.4c-0.8-0.2-1.6-0.5-2.3-1
	c-0.2-0.1-0.4-0.2-0.3-0.4c0-0.3,0.3-0.3,0.5-0.3c0.3,0,0.6,0,0.9,0.1c1.4,0.3,2.8,0.6,4.2,0.7c1,0.1,2.1,0.2,3-0.4
	c1,0.5,1.6,1.3,2.4,2.1c0.3,0.3,0.5,0.8,1,0.6c0.6-0.2,0.2-0.7,0.3-1.1c0-0.1,0.1-0.3,0.2-0.6c0.3,0.6,0.5,1.1,0.9,1.4
	c0.5,0.5,0.9-0.2,1.3-0.4c0.4,0.6,0.4,1.2,0.5,1.9C182.2,257.3,182.5,257.6,183.1,257.5z"/>
<path class="st12" d="M194.7,258.8c0.4-0.9,0.2-1.8,0.2-2.7c0-1.4-0.2-2.9-0.5-4.3c-0.7-2.7-2.6-3.6-5.2-2.4c-0.3,0.2-0.7,0.3-1,0.5
	c0.3-1,0.7-1.9,0.9-2.9c0-0.3,0.1-0.5,0.5-0.6c1.6-0.4,3.1-0.7,4.7-0.7c1.1,0,1.8,0.5,2.2,1.5c0.6,1.7,0.9,3.5,1.1,5.3
	c0.2,2.3,0.3,4.5,0.3,6.8C196.7,259.3,195.7,259.1,194.7,258.8z"/>
<path class="st3" d="M175.7,252.8c-0.4,0.7-1.2,0.7-1.9,0.7c-1.8,0-3.6-0.5-5.4-0.8c-0.4-0.1-0.8-0.2-1.4-0.1c1.2,0.8,2.4,1,3.6,1.6
	c-0.3,0.1-0.5,0.2-0.7,0.3c-1.7,0.1-3.4,0.4-5.1,0.4c-2.4,0-4.7-0.2-7.1-0.6c-0.1,0-0.1-0.1-0.1-0.1c0,0,0-0.1,0.1-0.1
	c0.3-0.6,0-0.9-0.6-1.1c-0.9-0.4-1.8-0.9-2.5-1.7c0.3-0.6,0.9-0.5,1.4-0.5c2.8,0,5.6,0,8.4,0c0.2,0,0.3,0,0.5-0.1
	c1.7,0.6,3.3,1.4,5,1.8c1.6,0.3,3.2,0.5,4.8,0.5C175,253,175.3,252.6,175.7,252.8z"/>
<path class="st12" d="M203.3,298.3c0-0.6,0-1.1-0.1-1.7c-0.5-2.8-2.4-4.1-5-4.4c-0.4-0.2-0.4-0.5-0.4-0.9c0.1-0.4,0-0.8,0-1.2
	c0.6,0.1,0.8-0.2,1-0.8c0.8-2.3,1.6-4.6,2.1-7.1c1.4,4.6,2.1,9.2,4.4,13.2c-0.1,0-0.2,0.1-0.2,0c-0.4-0.2-0.8-0.8-1.2-0.2
	c-0.4,0.6,0.3,0.7,0.6,1c0.1,0.1,0.1,0.1,0.2,0.2c0.1,0.3-0.2,0.3-0.3,0.3c-0.2,0-0.4-0.1-0.6,0.1c-0.1,0.3-0.1,0.6,0.1,0.8
	c0.3,0.3-0.2,0.2-0.2,0.4C203.6,298.4,203.4,298.4,203.3,298.3z"/>
<path class="st14" d="M192.7,293.4c0.1-1.4,0.6-2.8,0.9-4.2c0.4-2.9,0.6-5.7,0.1-8.7c-0.5-3.2-1.3-6.2-2.7-9.1
	c-0.2-0.4-0.2-0.7-0.2-1.1c1.4,0.9,2.4,2.2,4,2.9c0.5,0.3,0.4,0.6,0.1,0.9c-0.1,0.1-0.2,0.1-0.3,0.1c-0.4,0.1-0.6-0.2-0.9-0.3
	c-0.3-0.2-0.7-0.4-0.9,0c-0.2,0.3,0,0.6,0.2,0.8c0.5,0.7,1.3,1.2,2,1.8c0.7,0.9,0.6,2,0.8,3c0.5,3.8,0.4,7.6-0.5,11.3
	c-0.1,0.5-0.1,1.1-0.1,1.6C194.4,292.9,193.5,292.9,192.7,293.4z"/>
<path class="st11" d="M195.2,292.4c-0.7-0.2-0.4-0.8-0.3-1.2c0.9-3.1,1-6.4,0.9-9.6c-0.1-1.7-0.4-3.5-0.7-5.2
	c0.9,0.4,1.7,0.8,2.7,0.9c0.5,0,0.5,0.3,0.5,0.7c-0.2,3.7-0.2,7.4-0.5,11.1c0,0.3-0.2,0.7,0.1,1c0.3,0.2,0.5,0.5,0.3,0.9
	c-0.2,0.4-0.1,0.8,0.1,1.2C197.2,292.2,196.2,292.2,195.2,292.4z"/>
<path class="st15" d="M158.1,242.9c-0.3-0.3-0.6-0.5-1-0.4c-0.1,0.7-0.6,0.9-1.2,0.9c-1.9,0-3.7,0-5.6,0c-0.4,0-0.9,0-1.1-0.5
	c-0.2-0.3-0.2-0.6-0.2-0.9c0.5-0.4,1.1-0.3,1.6-0.3c7.1,0,14.2,0,21.3,0c0.2,0,0.4,0,0.6-0.1c0.8,0.2,1.4,0.7,2.1,1.2
	c0,0.5-0.3,0.5-0.7,0.6c-0.3,0.1-0.6,0.1-0.9,0.1c-4.3,0-8.7,0-13,0C159.1,243.4,158.5,243.5,158.1,242.9z"/>
<path class="st12" d="M128.4,287.1c0.1,1.7-0.1,3.5,0.2,5.2c-0.1,0.4-0.5,0.4-0.8,0.5c-2,0.6-3.2,1.8-3.5,3.9c0,0.3,0,0.7-0.4,0.7
	c0-0.4-0.2-0.7-0.6-0.8c-0.1,0-0.1-0.1-0.1-0.1c0,0,0-0.1,0.1-0.1c0.1-0.1,0.3-0.3,0.4-0.4c0.2-0.2,0.2-0.5,0-0.7
	c-0.2-0.3-0.4-0.2-0.7,0c-0.2,0.1-0.4,0.4-0.9,0.4c1.9-2.3,2.2-5,2.7-7.7c0.2-1.2,0.5-2.4,1.3-3.5c0.2,1.2,0.4,2.4,0.6,3.5
	c0.1,0.6,0.3,1.2,0.4,1.8c0.1,0.3,0.1,0.6,0.5,0.6c0.4,0,0.5-0.3,0.6-0.6C128.3,288.8,128.2,287.9,128.4,287.1z"/>
<path class="st16" d="M172.3,241.6c-0.1,0.6-0.7,0.4-1,0.4c-7.1,0-14.2,0-21.2,0c-0.4,0-0.8,0-1.2,0c-0.2-0.3-0.1-0.6-0.2-1
	c0.4-0.5,0.9-0.5,1.5-0.5c5.9,0,11.8,0,17.6,0c0.4,0,0.9,0.1,1.3-0.1C170.2,240.7,171.3,241,172.3,241.6z"/>
<path class="st17" d="M161.3,246.9c-0.6-0.6-1.3-1.1-1.7-1.9c0.4-0.2,0.9,0.1,1.3,0.1c5.6,0,11.1,0.1,16.7-0.1
	c0.6,0.3,0.9,0.9,1.3,1.3c0,0.5-0.4,0.6-0.8,0.6c-0.4,0.1-0.8,0-1.1,0c-4.4,0-8.7,0-13.1,0C163,247,162.2,247,161.3,246.9z"/>
<path class="st18" d="M177.6,245c-0.2,0.4-0.5,0.4-0.9,0.4c-5.3,0-10.7,0-16,0c-0.4,0-0.8-0.2-1.1-0.4c-0.3-0.3-0.6-0.5-0.7-0.9
	c0.4-0.4,1-0.3,1.5-0.3c4.5,0,8.9,0,13.4,0c0.7,0,1.3,0,2-0.1C176.4,244,177,244.5,177.6,245z"/>
<path class="st19" d="M183.8,250.1c0,1.1-0.5,2.1-0.8,3.2c-0.1,0.2-0.2,0.5-0.4,0.3c-0.6-0.6-1-0.1-1.4,0.3
	c-0.3,0.2-0.5,0.2-0.7-0.2c-0.2-0.4-0.4-0.8-0.6-1.3c-0.1-0.3-0.3-0.5-0.6-0.5c-0.3,0-0.5,0.3-0.6,0.6c-0.5,1-0.5,1-1.3,0.3
	c-1.1-1-2.4-1.7-3.7-2.4c0.2-0.5,0.7-0.5,1.1-0.5c1.3,0,2.5,0,3.8,0c0.7,0,1.3-0.1,1.7-0.7c0.2,0.2,0.2,0.4,0.2,0.6
	c0,0.4,0.1,0.7,0.5,0.8c0.5,0,0.6-0.4,0.6-0.8C182.5,249.6,183.2,249.5,183.8,250.1z"/>
<path class="st20" d="M180.4,249.1c0.1,0.8-0.3,1-1.1,1c-1.5,0-3,0-4.5,0c-0.4,0-0.8,0-1.1,0.2c-0.9-0.3-1.9-0.6-2.8-1
	c-0.4-0.2-0.7-0.1-1.1,0c-0.1,0.1-0.1,0.1-0.2,0.2c-0.1,0.2-0.3,0.3-0.5,0.3c-1.1-0.1-2.2,0-3.2,0.1c-0.9-0.2-1.6-0.7-2.3-1.3
	c0.4-0.7,1-0.5,1.6-0.5c4.8,0,9.6,0,14.4,0c0.2,0,0.3,0,0.5,0C180.4,248.3,180.4,248.7,180.4,249.1z"/>
<path class="st21" d="M164.7,250.7c-0.2,0.5-0.7,0.4-1.1,0.4c-2.7,0-5.3,0-8,0c-0.4,0-0.8,0-1.2,0.2c-0.9-0.6-1.5-1.4-2.1-2.3
	c3.2,0.2,6.5,0.1,9.7,0C162.9,249.7,163.8,250.2,164.7,250.7z"/>
<path class="st3" d="M151.9,254.1c-0.4,0-0.6,0.1-0.4,0.6c0.2,0.5,0.5,0.9,0.7,1.4c-0.5,0.2-1-0.4-1.4,0.1c-1.9-1.3-3.7-2.7-5.3-4.4
	c-0.2-0.3-0.4-0.5-0.6-0.8c1.1-0.6,2.3-0.2,3.4-0.4C149.3,251.9,150.5,253.1,151.9,254.1z"/>
<path class="st22" d="M199.1,280.7c0.1-1.5-0.1-3.1,0.1-4.6c0.1-0.6,0.3-0.7,0.8-0.5c0.8,0.2,1.4,0.7,1.9,1.4
	c0.5,0.9,1.1,1.7,1.7,2.6c-0.1,0.1-0.2,0.1-0.2,0.1c-1.1-0.6-1.7-0.5-1.3,1.1c0.1,0.5,0.1,0.9,0.2,1.4c0.1,0.2,0.3,0.5-0.2,0.6
	c-0.3-1.1-0.5-2.2-0.8-3.3c-0.1-0.3-0.1-0.7-0.6-0.7c-0.4,0.1-0.4,0.4-0.5,0.7c-0.3,1.6-0.4,3.2-0.9,4.8c-0.2,0-0.3-0.1-0.3-0.3
	C199.1,282.9,198.9,281.8,199.1,280.7z"/>
<path class="st23" d="M180,248.1c-0.1,0.6-0.6,0.3-0.9,0.3c-4.8,0-9.5,0-14.3,0c-0.4,0-0.8,0-1.2,0.2c-0.5-0.2-0.9-0.6-1.3-0.9
	c0.3-0.5,0.8-0.5,1.3-0.5c5,0,10,0,15.1,0c0.4,0,0.7,0.1,1.1,0.3C179.8,247.7,179.9,247.9,180,248.1z"/>
<path class="st24" d="M175.7,243.6c-0.1,0.6-0.6,0.4-1,0.4c-4.9,0-9.8,0-14.7,0c-0.4,0-0.8,0-1.2,0c-0.3-0.3-0.6-0.7-0.8-1.1
	c0.4,0.1,0.7,0.2,1.1,0.2c4.7,0,9.4,0,14.1,0c0.4,0,0.8,0.1,1.1-0.4C174.9,243,175.3,243.3,175.7,243.6z"/>
<path class="st25" d="M130,265.3c0.6-1.3,1.3-2.6,2.3-3.7c0.4-0.4,0.4-0.8,0.4-1.3c0.3,1.6,0.5,3.1,0.8,4.7c-0.6,1.3-1.5,2.6-2,3.9
	c-0.2,0.4-0.3,0.8-0.3,1.3C130.5,268.6,130.1,267,130,265.3z"/>
<path class="st26" d="M169.1,240.5c0,0.1,0.3,0.2,0.1,0.3c-0.2,0.1-0.5,0-0.7,0c-6.1,0-12.1,0-18.2,0c-0.5,0-1.1,0-1.6,0.2
	c0-0.3,0-0.5,0-0.8c0.2-0.4,0.6-0.5,1.1-0.5c4.6,0,9.1,0,13.7,0.2c0.3,0,0.6,0.1,0.9-0.1C166,239.9,167.5,240.1,169.1,240.5z"/>
<path class="st27" d="M189.1,261.4c-0.4-0.3-1-0.6-0.9-1.1c0.1-0.4,0.8-0.3,1.2-0.4c3.2-0.8,6.2,0.1,9.3,1c0.1,0.2-0.1,0.3-0.2,0.4
	c-1.7,0.4-3.4,0.1-5,0.2C192,261.8,190.6,262,189.1,261.4z"/>
<path class="st21" d="M194.2,268.4c1.7,0.1,3.3,0.4,4.9,0.7c0.5,0.1,0.8,0.1,1.1-0.3c0.4-0.6,1.1-0.2,1.6-0.4
	c0.1,0.3-0.1,0.4-0.3,0.6c-1,1-1,1,0.4,1.6c-0.7,0.4-0.7,0.9-0.2,1.5c-2.9-1-5.7-2.2-8.4-3.5C193.6,268.1,193.9,268.4,194.2,268.4z"
	/>
<path class="st22" d="M136.8,252.7c2.3,2.2,5.2,3.2,8.3,3.7c-1,0.9-3.6,1.2-5.4,0.6c-1.8-0.6-2.8-2-3.1-3.8
	C136.5,252.9,136.4,252.7,136.8,252.7z"/>
<path class="st28" d="M179.6,247.5c-5.3,0-10.5,0-15.8,0c-0.5,0-1.1,0-1.6,0.2c-0.3-0.2-0.6-0.5-0.9-0.7c0.3-0.3,0.7-0.2,1.1-0.2
	c5.1,0,10.2,0,15.3,0c0.4,0,0.9,0.2,1.2-0.4C179.4,246.6,179.5,247,179.6,247.5z"/>
<path class="st29" d="M168.3,239.2c-2.1-0.1-4.2-0.4-6.2-1.3c0-0.2,0-0.3,0.2-0.2c2.6,0.4,5.2,0.4,7.9,0.4c2.2,0,4.4,0,6.5,0.8
	c-0.1,0.7-0.7,0.6-1.1,0.6c-1.7,0-3.4,0.1-5,0c-0.4,0-0.8,0.1-1.2,0l0,0C169,239.1,168.6,239.4,168.3,239.2z"/>
<path class="st3" d="M143.5,254.1c-1.7-1-3.2-2.2-4.1-4c0.3-0.3,0.6-0.3,0.9-0.3c0.7,0,1.4-0.1,2.1-0.3c1,1.4,2.1,2.7,3.2,3.9
	c0.1,0.5-0.3,0.6-0.6,0.6C144.5,254.2,144,254.2,143.5,254.1z"/>
<path class="st30" d="M162.1,249c-0.1,0.6-0.6,0.4-0.9,0.4c-2.3,0-4.5,0-6.8,0c-0.7,0-1.4,0.3-2-0.4c-0.3-0.2-0.5-0.6-0.7-1
	c0.4-0.3,0.8-0.3,1.2-0.3c1.9,0,3.8,0,5.7,0c0.5,0,1.1,0,1.5-0.3C161,247.8,161.5,248.5,162.1,249z"/>
<path class="st31" d="M155.9,255.8c-1-0.3-2.1-0.3-2.9-1.1c0.3,0,0.7,0,0.8-0.4c0.1-0.4-0.3-0.5-0.6-0.7c-0.7-0.4-1.4-0.7-1.9-1.3
	c0.1-0.2,0.2-0.3,0.4-0.3c0.7,0,0.9-0.3,0.8-0.9c1.2,1.1,2.4,2.3,4,2.9c0.2,0.2,0.5,0.3,0.6,0.6c0.5,0.4,0.9,0.8,1.5,1.1
	c0,0.1,0,0.3-0.2,0.3c-0.8,0-1.5,0.1-2.3-0.1L155.9,255.8L155.9,255.8z"/>
<path class="st32" d="M189.5,266.7c0.5-0.4,1.1-0.3,1.7-0.4c0.3,0,0.7,0.1,1-0.1c1.5,0.3,3,0.4,4.5,0.4c1.5,0,2.9-0.3,4.4-0.9
	c-0.3,0.9-0.8,1.5-1.3,2.1c-0.2,0.3-0.6,0.2-0.9,0.2C195.7,267.6,192.6,267.1,189.5,266.7z"/>
<path class="st18" d="M150.2,245.4c-0.3-0.3-0.5-0.7-0.6-1.1c0.4-0.6,1-0.5,1.5-0.5c2,0,4,0.1,6-0.1c0.4,0.3,0.5,0.8,0.8,1.1
	c0.2,0.5-0.2,0.7-0.5,0.8c-2.3,0.1-4.6,0.2-6.9,0C150.4,245.6,150.3,245.5,150.2,245.4z"/>
<path class="st20" d="M148.3,250.5c-1.1,0.6-2.3,0.2-3.4,0.4c-0.8-0.7-1.3-1.5-1.7-2.4c0.3-0.5,0.8-0.4,1.2-0.5
	c0.8-0.1,1.6,0.1,2.4-0.3C147.3,248.6,147.8,249.6,148.3,250.5z"/>
<path class="st30" d="M142.4,249.6c-0.2,0.6-0.7,0.5-1.2,0.5c-0.6,0-1.2,0-1.9,0c-0.6-0.9-1-1.9-1.1-3c0.4-0.2,0.8-0.1,1.3-0.1
	c0.7,0,1.2-0.1,1.6-0.7C141.5,247.4,141.9,248.5,142.4,249.6z"/>
<path class="st33" d="M150.2,245.4c2.3,0,4.5,0,6.8,0c0.4,0,0.9,0.1,1-0.5c0.5,0.3,0.6,0.8,0.9,1.2c0.1,0.8-0.5,0.8-0.9,0.8
	c-1.2,0.1-2.3,0-3.5,0c-0.8,0-1.7,0-2.5,0c-0.6,0-1.1-0.1-1.4-0.7C150.3,245.9,150.2,245.7,150.2,245.4z"/>
<path class="st34" d="M135,249.3c1-0.5,1.9,0,2.9,0.4c0.9,1.9,2.3,3.4,4.1,4.7c-0.7,0.3-1-0.1-1.4-0.3c-1.9-0.9-3.4-2.1-4.4-3.9
	c-0.2-0.3-0.4-0.5-0.7-0.5C135.4,249.4,135.2,249.4,135,249.3z"/>
<path class="st21" d="M165.9,249.9c1-0.6,2.2-0.3,3.2-0.3c0.2,0,0.4,0,0.5,0c0,0.5,0.2,0.7,0.7,0.8c1.3,0.3,2.6,0.7,3.7,1.5
	C171.2,251.9,168.4,251.3,165.9,249.9z"/>
<path class="st35" d="M128.2,259.6c0,0.3,0,0.7,0.1,1c0.3,1.1-0.2,1.4-1.2,1.5c-2,0.3-3.9,0-5.7-0.9c1.6-0.1,3.1,0,4.7-0.5
	c0.4-0.1,0.9-0.3,1.4-0.4c0.4-0.1,0.6-0.3,0.6-0.7C128.1,259.5,128.2,259.5,128.2,259.6z"/>
<path class="st36" d="M143.5,254.1c0.4-0.2,0.8-0.2,1.2-0.2c0.4,0,0.8,0,1-0.4c1.2,1.1,2.6,2,3.8,3.2c-0.1,0-0.3,0-0.4,0
	c-1.1-0.1-2.1,0.1-3.2,0.2c0-0.1-0.1-0.2-0.1-0.3c0.8-0.9,0.8-0.9-0.3-1.4C144.8,255,144.1,254.6,143.5,254.1z"/>
<path class="st16" d="M175.7,242.2c-0.7-0.3-1.3-0.7-1.9-1.1c0.4-0.5,0.9-0.5,1.4-0.5c1.6-0.1,3.2,0.1,4.8-0.1
	c0.6,0.2,1,0.7,1.3,1.1c0.2,0.6-0.3,0.6-0.6,0.6C179.1,242.3,177.4,242.4,175.7,242.2z"/>
<path class="st37" d="M157.2,243.7c-0.1,0.5-0.5,0.4-0.8,0.4c-1.7,0-3.5,0-5.2,0c-0.5,0-1.1,0-1.6,0.2c-0.3-0.4-0.4-0.8-0.5-1.3
	c0.3,0.2,0.7,0.2,1,0.2c1.9,0,3.9,0,5.8,0c0.5,0,0.9-0.1,1.1-0.6C156.9,243,157,243.3,157.2,243.7z"/>
<path class="st21" d="M152.5,250.9c0.1,0.1,0.1,0.3,0.2,0.4c0.5,0.6,0.2,0.7-0.3,0.7c-0.3,0-0.7,0-1,0.2c-1.1-0.9-2-1.9-2.6-3.2
	c0.6-0.4,1.3-0.1,1.9-0.5C151.2,249.3,151.8,250.1,152.5,250.9z"/>
<path class="st38" d="M180,240.5c-0.1,0.5-0.5,0.4-0.8,0.4c-1.3,0-2.6,0-3.9,0c-0.5,0-1.1,0-1.6,0.2c-0.7-0.3-1.4-0.6-2.1-1
	c0.5-0.5,1.1-0.5,1.8-0.5c1.3,0,2.7,0,4,0c0.3,0,0.7,0,1-0.1C179.2,239.6,179.5,240.1,180,240.5z"/>
<path class="st39" d="M199.5,265c-2.3,1-8.1,0.8-9.2-1.3c1,0.2,1.9,0.6,2.9,0.8c1.5,0.3,2.9,0,4.4-0.2c0,0.1,0,0.3,0,0.3
	C198.3,264.6,198.9,264.7,199.5,265z"/>
<path class="st40" d="M126.9,276.6c-0.4-0.7,0.2-1.5-0.2-2.2c1.9,0.9,2.1,1.6,1.5,3.9c-0.2,0.3,0,0.7-0.2,0.9l0,0
	c-0.3,0.4,0,0.9-0.2,1.3l0,0c-0.6,0.3-0.8,0.1-0.9-0.5C127,278.8,127.2,277.7,126.9,276.6z"/>
<path class="st41" d="M128.2,259.6c-0.1,0-0.1,0-0.2,0c-0.6-0.5-1.3-0.2-2-0.1c-1.5,0.2-3.1,0.1-4.5-0.3c0-0.4,0.3-0.2,0.5-0.2
	c0.5-0.1,1,0.1,1.5-0.1c1.4-0.2,2.8-0.6,4-1.3c0.7-0.4,0.8-0.2,0.7,0.5C128.3,258.6,128.3,259.1,128.2,259.6z"/>
<path class="st28" d="M150.6,246.1c0.3,0.2,0.7,0.4,1.1,0.4c2.1,0,4.2,0,6.3,0c0.4,0,0.8,0.1,0.9-0.5c0.4,0.2,0.6,0.5,0.8,0.9
	c0,0.6-0.5,0.7-0.9,0.7c-2.2,0.1-4.5,0.1-6.7,0c-0.4,0-0.7-0.2-0.9-0.4C150.9,246.8,150.6,246.5,150.6,246.1z"/>
<path class="st42" d="M151.1,247.1c0.3,0.2,0.7,0.2,1.1,0.2c2.1,0,4.1,0,6.2,0c0.5,0,1,0,1.3-0.4c0.2,0.2,0.4,0.4,0.5,0.6
	c0.1,0.8-0.5,0.6-0.9,0.6c-2.5,0-5.1,0-7.6,0C151.4,247.8,151.2,247.5,151.1,247.1z"/>
<path class="st43" d="M175.7,242.2c1.6-0.4,3.2-0.1,4.8-0.2c0.3,0,0.8,0.2,0.9-0.4c0.5,0.3,0.6,0.9,0.9,1.3c0,0.3-0.2,0.4-0.4,0.4
	c-1.6,0-3.3,0.3-4.8-0.2C176.5,242.9,176,242.6,175.7,242.2z"/>
<path class="st44" d="M178.5,239.5c0.2,0.5-0.2,0.4-0.5,0.4c-1.2,0-2.3,0-3.5,0c-1,0-1.9,0-2.9,0.2c0,0,0,0,0,0
	c-0.5-0.3-1.1-0.4-1.7-0.6c-0.3,0-0.5,0-0.7-0.2c2.1-0.4,4.2-0.1,6.3-0.2c0.4,0,0.8,0.1,1.1-0.4C177.3,238.8,178,239.1,178.5,239.5z
	"/>
<path class="st45" d="M164.4,239.9c-0.3,0.3-0.7,0.2-1.1,0.2c-4.5,0-9,0-13.4,0c-0.4,0-0.8,0-1.2,0.2c0-0.7-0.1-1.3,0.2-1.9
	c0.1,0.1,0.2,0.2,0.3,0.4c0,0.4,0.3,0.5,0.7,0.5c1.6,0,3.2,0,4.8,0c0.1,0,0.1-0.1,0.1-0.1c0.9,0.1,1.7,0.7,2.6,0.6
	c1.4,0.2,2.9,0,4.3,0.1c0.5,0,1.1-0.1,1.6,0.1C163.6,239.9,164,239.9,164.4,239.9z"/>
<path class="st30" d="M183.8,250.1c-0.7-0.3-1.4,0-2.1-0.4c-0.3-0.8-0.5-1.6-0.8-2.5c0.5-0.2,1-0.1,1.5-0.1c0.5,0,1-0.1,1.4-0.3
	C184.1,248,184.1,249,183.8,250.1z"/>
<path class="st31" d="M195.7,273.6c0.7,0.3,1.3,0.7,2,1c0.3,0.1,0.5,0.3,0.5,0.6c0.2,1.1-0.1,1.3-1.1,1c-1.2-0.3-2.2-0.9-3-1.9
	c0.2-0.3,0.6,0,0.8-0.2l0,0C195.1,273.9,195.3,273.7,195.7,273.6z"/>
<path class="st46" d="M199.5,265c-0.6-0.1-1.2-0.1-1.9-0.2c-0.2,0-0.4,0-0.4-0.2c0-0.1,0.3-0.2,0.4-0.3c1.5-0.4,2.9-1,4.3-1.7
	c0.2-0.1,0.5-0.4,0.8-0.1c0.3,0.3,0.1,0.6-0.1,0.9c-0.5,0.6-1.2,1-1.9,1.2C200.2,264.8,199.8,264.9,199.5,265z"/>
<path class="st17" d="M183.8,246.9c0,0.3,0,0.6-0.4,0.6c-0.8,0-1.6,0.2-2.4-0.2c-0.4-0.6-0.8-1.1-1.2-1.7c1.2-0.5,2.4-0.3,3.7-0.2
	C183.8,245.8,183.4,246.4,183.8,246.9z"/>
<path class="st42" d="M146.8,247.7c0,0.6-0.4,0.5-0.8,0.5c-1,0.1-1.9-0.2-2.9,0.2c-0.4-0.5-0.6-1.1-0.7-1.7c0.7-0.5,1.5-0.2,2.2-0.3
	c0.6,0,1.1-0.1,1.5-0.5C146.6,246.5,146.5,247.1,146.8,247.7z"/>
<path class="st47" d="M142.2,242.9c0-0.5,0.1-0.9,0.4-1.3c0.6,0.4,1.4,0.3,2.1,0.3c0.4,0,0.8-0.1,1.2,0.1c0,0.1,0,0.2,0,0.4
	c0,0.1-0.1,0.1-0.1,0.2c-0.1,1.6-0.1,1.6-1.8,1.6c-0.6,0-1.1,0.1-1.6-0.2C142.1,243.6,142.1,243.3,142.2,242.9z"/>
<path class="st17" d="M141.1,246.3c0.1,0.7-0.3,1-1,1c-0.6-0.1-1.3,0.1-1.8-0.2c-0.3-1.2-0.3-2.4,0-3.6c0.2,0.2,0.3,0.4,0.3,0.7
	c-0.1,0.8,0.3,1.1,1,1c0.5,0,0.9,0,1.4-0.1C141.3,245.4,141,245.9,141.1,246.3z"/>
<path class="st37" d="M177,243.1c1.5,0,2.9,0,4.4,0c0.3,0,0.6,0.1,0.9-0.2c0.4,0.2,0.4,0.8,0.6,1.1c-0.2,0.3-0.5,0.4-0.9,0.4
	c-1.1,0-2.2,0.1-3.4,0C178.1,244,177.6,243.6,177,243.1z"/>
<path class="st48" d="M142.2,242.9c0,0.3,0,0.6,0,1c0.1,0.2,0.2,0.4,0.3,0.6c0,0.5,0.4,0.6,0.8,0.7c0.9,0,1.8-0.1,2.7,0.1
	c0.2,0.2,0.2,0.5,0.2,0.8c0.1,0.6-0.2,0.8-0.8,0.8c-1,0-2,0-3,0C142,245.5,141.9,244.2,142.2,242.9z"/>
<path class="st49" d="M146,245.2c-1.1,0.4-2.3,0.1-3.4,0.2c-0.3,0-0.4-0.2-0.4-0.5c0-0.3,0-0.7,0-1c0.8,0,1.6,0,2.3,0
	c0.8,0.1,1.2-0.2,1.1-1c0-0.2,0-0.4,0.2-0.5c0,0.5,0,1,0,1.5C146.1,244.3,145.8,244.8,146,245.2L146,245.2z"/>
<path class="st50" d="M189.1,261.4c1.5,0,2.9,0,4.4,0c-0.3,0.7-0.2,0.9,0.9,1.1c0,0.7-0.6,0.7-1,0.7c-0.4,0-0.7,0-1.1-0.1
	C191,263,190,262.3,189.1,261.4z"/>
<path class="st51" d="M178.7,244.5c0.5-0.3,1.2-0.2,1.7-0.2c0.8,0,1.7,0.1,2.5-0.2c0.3,0.4,0.5,0.8,0.5,1.3
	c-1.2,0.4-2.4,0.1-3.7,0.2C179.4,245.2,179,244.8,178.7,244.5z"/>
<path class="st52" d="M150.6,248.4c-0.1,0.5-0.4,0.5-0.8,0.5c-0.3,0-0.7,0-1,0c-0.6-0.8-0.9-1.7-1.1-2.6c0.5-0.3,1.1-0.2,1.7-0.2
	C149.9,246.8,150.1,247.7,150.6,248.4z"/>
<path class="st53" d="M145.9,242c-0.9,0.4-1.9,0.1-2.8,0.2c-0.4,0-0.4-0.3-0.4-0.6c0.2-0.8,0.6-1.5,1.2-2.3
	C144.2,240.5,145.3,241,145.9,242z"/>
<path class="st54" d="M148.9,238.8c0-0.1,0-0.3,0-0.4c0-0.5,0.1-1,0.4-1.5c0.9,0.7,1.8,0.7,2.5,0c0.5,0.5,1,1,1.5,1.5
	c0.2,0.4,0,0.6-0.3,0.6C151.5,239.1,150.2,239.3,148.9,238.8z"/>
<path class="st55" d="M148.9,238.8c1.2,0,2.4,0,3.6,0c0.3,0,0.7,0.1,0.8-0.4c0.5,0.3,1,0.5,1.5,0.8c0,0.1,0.5,0.4,0,0.4
	c-1.8,0-3.5,0-5.3,0C148.8,239.5,148.9,239.2,148.9,238.8z"/>
<path class="st56" d="M186.4,246.1c-0.2-0.8-0.4-1.5-0.6-2.3c0.6-0.2,1.3,0,1.9,0c0.2,0.3,0.2,0.6,0.2,0.9c0.1,0.1,0.1,0.2,0.1,0.4
	C188.1,246.4,187.7,246.7,186.4,246.1z"/>
<path class="st57" d="M126.9,276.6c0.5,1,0.1,2.1,0.2,3.2c0,0.6,0.2,0.9,0.8,0.8c0,1.5-0.2,2.9-0.5,4.4
	C126.8,282.2,127,279.3,126.9,276.6z"/>
<path class="st42" d="M186.4,246.1C186.5,246.1,186.5,246.1,186.4,246.1c1.8,0,1.5,0.1,1.5-1.4c0.5,1.4-0.1,2.5-0.6,3.8
	c-0.1,0.2-0.1,0.4-0.2,0.6c-0.6,0.5-0.6,0-0.7-0.4c0-0.8,0.1-1.6-0.1-2.4C186.5,246.3,186.5,246.2,186.4,246.1z"/>
<path class="st58" d="M184.7,241.4c-0.6-0.8-1.3-1.6-2-2.5c1.6,0.3,2.5,1.4,3.6,2.3c0.2,0.6-0.3,0.5-0.7,0.6
	C185.2,241.9,185,241.7,184.7,241.4z"/>
<path class="st59" d="M126.4,268.4c0-0.6,0.2-1.1,0.6-1.5c0.7,0,1.4-0.2,2.1,0.2c0.4,0.4,0,1,0.4,1.3c-0.6,0.6-0.8,0.5-1.2-0.4
	c-0.6-0.4-1.1-0.4-1.1,0.6c-0.2,0.4-0.3,0.7-0.8,0.4C126.3,268.8,126.3,268.6,126.4,268.4z"/>
<path class="st60" d="M138.3,244.3c0-0.3,0-0.5,0-0.8c0-0.8,0.2-1.6,0.6-2.4c0.5,0.9,0.5,1.9,1.1,2.6
	C139.8,244.5,139.3,244.7,138.3,244.3z"/>
<path class="st61" d="M129,267.1c-0.7-0.1-1.4,0.2-2.1-0.2c0.4-0.9,1-1.6,1.6-2.4c0.4,0.4,0.3,0.9,0.3,1.3c0.2,0.3-0.1,0.7,0.2,1
	C129,266.9,129,267,129,267.1z"/>
<path class="st62" d="M187.8,243.8c-0.6,0.4-1.3,0.3-1.9,0c-0.2-0.4-0.4-0.9-0.6-1.3c0.5-0.5,1.2-0.1,1.7-0.4
	C187.6,242.6,187.5,243.3,187.8,243.8z"/>
<path class="st63" d="M192.3,263.2c0.7,0,1.5,0.1,2.1-0.6c1,0.1,2.1,0.2,3.1,0.3c0,0.1,0,0.2,0,0.3
	C195.8,263.6,194,263.8,192.3,263.2z"/>
<path class="st64" d="M127.5,273.2c-0.6-0.7-1-1.5-1.1-2.5c0.3-0.3,0.6-0.3,0.9-0.2c0.4,0.5,0.4,1.3,0.9,1.8
	c0.1,0.2,0.4,0.4,0.2,0.7C128.2,273.3,127.9,273.4,127.5,273.2z"/>
<path class="st18" d="M138.3,244.3c0.6-0.1,1.3,0.3,1.7-0.5c0.5,0.3,0.4,1.1,0.9,1.3c-0.3,0.3-2.2,0.5-2.4,0.3
	C138.1,245,138.3,244.6,138.3,244.3z"/>
<path class="st65" d="M149.4,236.4c0.1-0.8,0.5-1.5,0.9-2.2c0.5,0.6,0.3,1.4,0.8,1.9c0.3,0.4,0.2,0.7-0.3,0.8
	C150.3,236.9,149.7,237.3,149.4,236.4z"/>
<path class="st66" d="M149.2,246.2c-0.5,0.2-1.1,0.4-1.7,0.2c-0.3-0.5-0.4-1-0.4-1.5c0.4-0.3,0.9-0.2,1.3-0.1
	C149,245,148.8,245.8,149.2,246.2z"/>
<path class="st67" d="M149.4,236.4c0.5,0.5,1.1,0.2,1.6,0.2c0.4,0,0.1-0.3,0.1-0.5c0.3,0.2,0.4,0.5,0.6,0.7c0.2,0.5,0.1,0.8-0.5,0.7
	c-0.4,0-0.9,0-1.3,0c-0.4,0-0.7-0.3-0.6-0.7C149.3,236.7,149.3,236.6,149.4,236.4z"/>
<path class="st68" d="M128.2,268.1c0.3,0.3,0.6,0.9,1.2,0.4c0.5,0.4,0,1.1,0.4,1.5c-0.2,0.7-0.4,0.8-1.3,0.4
	C128,269.6,128.4,268.8,128.2,268.1z"/>
<path class="st69" d="M148.5,244.7c-0.4,0.2-0.9,0.3-1.3,0.1c0,0,0-0.1,0-0.2c-0.2-0.4,0.1-0.8-0.2-1.2c0-0.2,0-0.3,0-0.5
	c0-0.2-0.1-0.6,0.3-0.6c0.4,0,0.7,0.2,0.7,0.6C147.9,243.6,148.1,244.2,148.5,244.7z"/>
<path class="st70" d="M128.5,270.3c0.4-0.1,1,0.3,1.3-0.4c0.5,1,0.5,2.1,0,2.1C129,271.9,128.7,271.1,128.5,270.3z"/>
<path class="st71" d="M127.5,273.2c0.4-0.1,1.1-0.1,0.8-0.9c0.5,0.5,1.3,0.8,0.8,1.8c-0.2,0.4-0.3,0.5-0.6,0.2
	C128.1,273.9,127.8,273.5,127.5,273.2z"/>
<path class="st72" d="M187,242.2c-0.4,0.7-1.2,0.2-1.7,0.4c-0.2-0.4-0.4-0.7-0.6-1.1c0.5,0.1,1.1,0.6,1.6-0.2
	C186.7,241.4,186.6,242,187,242.2z"/>
<path class="st73" d="M186.5,246.3c0.4,0.7,0.1,1.5,0.2,2.2c0,0.3-0.1,0.9,0.6,0.6c0,0.7-0.6,1.1-0.8,1.7c-0.4,0-0.3-0.2-0.2-0.4
	C186.5,249.1,186.5,247.7,186.5,246.3z"/>
<path class="st74" d="M127.3,270.5c-0.3,0.3-0.6,0.2-0.9,0.2c0-0.1,0-0.2,0-0.3c-0.1-0.5-0.1-0.9,0-1.4c0.4,0.1,0.5-0.2,0.8-0.4
	c0,0.3,0,0.6,0,0.9C127.4,269.8,127.1,270.2,127.3,270.5L127.3,270.5z"/>
<path class="st26" d="M163.3,239.9c-1.7,0-3.4,0-5.1,0c-0.3,0-0.6,0.1-0.8-0.2C159.3,239.8,161.3,239.6,163.3,239.9z"/>
<path class="st75" d="M199.1,280.7c0.1,1.2-0.2,2.4,0.2,3.6c0,0.4-0.1,0.6-0.3,0.9C199,283.7,198.7,282.2,199.1,280.7z"/>
<path class="st76" d="M184.9,250.3c0,0.2,0,0.4,0.2,0.6c-0.3,0.9-0.6,1.9-0.9,2.8c-0.2,0-0.3,0-0.2-0.2
	C184.3,252.4,184.6,251.4,184.9,250.3z"/>
<path class="st77" d="M184,253.5c0.1,0.1,0.1,0.1,0.2,0.2c-0.3,0.7-0.5,1.4-1,2C183.3,254.9,183.6,254.2,184,253.5z"/>
<path class="st78" d="M195.7,273.6c-0.1,0.5-0.6,0.4-0.9,0.5c0.2-0.3,0.2-0.6,0-0.9C195.1,273.1,195.4,273.5,195.7,273.6z"/>
<path class="st79" d="M185,247.1c0.3,0.9,0.3,1.8,0,2.6C185,248.8,185,248,185,247.1z"/>
<path class="st80" d="M123.6,258.8c-0.6,0.4-1.4-0.1-2.1,0.3c-0.1,0-0.2,0-0.2-0.1c-0.1-0.2,0.1-0.2,0.2-0.2
	C122.2,258.8,122.9,258.8,123.6,258.8z"/>
<path class="st81" d="M202.1,282.8c0.2-0.1,0.2-0.4,0.2-0.6c0.3,0.4,0.1,0.9,0.2,1.3c0.1,0.2,0.1,0.4-0.2,0.4
	C202.3,283.5,202.2,283.2,202.1,282.8z"/>
<path class="st38" d="M170,239.5c0.6,0,1.2,0.1,1.7,0.6C171.1,240,170.5,239.8,170,239.5z"/>
<path class="st82" d="M203.7,297c0.2-0.4,0.7-0.1,0.9-0.4c0.2,0.1,0.4,0.1,0.5,0.2c0,0.4-0.2,0.3-0.4,0.2
	C204.4,297,204,297,203.7,297z"/>
<path class="st64" d="M126.4,269c0,0.5,0,0.9,0,1.4c-0.3-0.7-0.3-1.3,0-2C126.4,268.6,126.4,268.8,126.4,269z"/>
<path class="st2" d="M203.3,298.3c0.1,0,0.2-0.1,0.3-0.1c-0.2,0.5-0.1,0.8,0.4,0.8C203.4,299.3,203.3,299.2,203.3,298.3z"/>
<path class="st83" d="M122.2,297.2c-0.4,0.2-0.7,0.4-1.1,0c0.3-0.1,0.6-0.1,0.9-0.2C122.1,297,122.2,297,122.2,297.2z"/>
<path class="st84" d="M123.4,296.4c0,0.1,0,0.1,0,0.2c-0.2,0.2-0.4,0.4-0.7,0.4c-0.1,0-0.1-0.1-0.1-0.2c0-0.1,0-0.1,0-0.1
	C122.7,296.4,123.1,296.4,123.4,296.4z"/>
<path class="st85" d="M194.2,268.4c-0.3,0.1-0.6-0.1-0.8,0.2c-0.2-0.1-0.4-0.1-0.5-0.4C193.4,268.3,193.8,268.1,194.2,268.4z"/>
<path class="st86" d="M157,254.5c-0.3-0.1-0.5-0.3-0.6-0.6c0.4,0.1,0.7,0.3,1.1,0.2c0,0.1,0,0.1,0,0.2
	C157.4,254.3,157.1,254.2,157,254.5z"/>
<path class="st87" d="M198.5,261.2c0.1-0.1,0.1-0.2,0.2-0.4c0.2,0,0.5-0.1,0.5,0.2C199.1,261.4,198.8,261.2,198.5,261.2z"/>
<path class="st57" d="M127.9,280.5c0.1-0.4-0.2-0.9,0.2-1.3C128,279.7,128.2,280.1,127.9,280.5z"/>
<path class="st88" d="M162.3,237.6c-0.1,0.1-0.1,0.1-0.2,0.2c-0.2-0.1-0.4-0.1-0.8-0.3C161.8,237.4,162,237.4,162.3,237.6z"/>
<path class="st48" d="M146,245.2c-0.4-0.4-0.1-0.9-0.2-1.4C146.1,244.3,146,244.7,146,245.2z"/>
<path class="st78" d="M194.8,274.1c-0.2,0.2-0.5,0.2-0.8,0.2c-0.1-0.1-0.2-0.3-0.3-0.4C194.1,274,194.4,274,194.8,274.1z"/>
<path class="st66" d="M147,243.5c0.3,0.3,0.1,0.8,0.2,1.2C146.9,244.3,147,243.9,147,243.5z"/>
<path class="st21" d="M169.8,249.3c0.4-0.3,0.8-0.3,1.1,0C170.6,249.3,170.2,249.3,169.8,249.3z"/>
<path class="st89" d="M193.3,270.3c-0.2,0-0.3,0-0.4,0.2c-0.1-0.1-0.3-0.2-0.5-0.3C192.8,270.1,193,270.1,193.3,270.3z"/>
<path class="st90" d="M186.3,250.5c0,0.1,0,0.3,0.2,0.4c-0.1,0.2-0.1,0.4-0.3,0.4C186.1,251,186,250.7,186.3,250.5z"/>
<path class="st44" d="M168.3,239.2c0.3,0,0.7-0.2,1,0.2C168.9,239.3,168.6,239.4,168.3,239.2z"/>
<path class="st59" d="M129,266.7c-0.3-0.3-0.2-0.7-0.2-1C129.1,266,129,266.4,129,266.7z"/>
<path class="st91" d="M136.8,252.7c-0.2,0.1-0.2,0.3-0.2,0.4c-0.2-0.2-0.3-0.5-0.1-0.6C136.6,252.4,136.7,252.6,136.8,252.7z"/>
<path class="st92" d="M122.6,296.8c0,0.1,0,0.2,0,0.2c-0.1,0.2-0.2,0.2-0.4,0.2c-0.1-0.1-0.1-0.1-0.2-0.2
	C122.2,296.9,122.4,296.8,122.6,296.8z"/>
<path class="st57" d="M128.1,279.2c0-0.3-0.1-0.7,0.2-0.9C128.2,278.6,128.4,278.9,128.1,279.2z"/>
<path class="st64" d="M127.3,270.5c-0.3-0.3-0.2-0.6-0.2-1C127.4,269.8,127.3,270.2,127.3,270.5z"/>
<path class="st93" d="M204.8,297c0.1-0.1,0.3,0,0.4-0.2c0.2,0,0.4,0.2,0.3,0.3C205.2,297.3,205,297.1,204.8,297z"/>
<path class="st94" d="M202.3,283.9c0.1-0.1,0.1-0.2,0.2-0.4c0.2,0.2,0.3,0.4,0.1,0.6C202.5,284.3,202.4,284,202.3,283.9z"/>
<path class="st95" d="M164.1,326.7c-0.1-0.6-0.4-0.9-1-1c-0.6-0.1-0.7,0.4-0.9,0.7l0,0c-0.2-0.3-0.4-0.6-0.8-0.7
	c-2.6-2.1-5.7-3.1-8.7-4.2c-0.4-0.1-0.7-0.3-1.1-0.5c-0.5-1.1-1.6-1.7-2.3-2.6c-4.2-5.3-5.6-11.1-3.8-17.7c0.2-0.5,0.3-1.1,0.9-1.4
	c0.6-0.1,1.3-0.2,1.9,0c0.3,0.3,0,0.5,0,0.8c-2,6.1-0.7,11.5,3.5,16.2c2.6,2.9,5.9,4.6,9.8,5.1c5.1,0.7,9.6-0.8,13.4-4.3
	c3.5-3.3,5.2-7.4,5.2-12.1c0-1.5-0.3-2.9-0.7-4.3c-0.1-0.4-0.3-0.7,0-1.1c1.1-0.4,1.7-0.2,2.1,0.9c0.8,2.6,1.1,5.3,0.6,8
	c-1.2,6.4-4.7,11.1-10.7,13.9c0,0,0,0.1-0.1,0.1c-1.8,0.8-3.6,1.6-5.2,2.9c-0.5,0.4-0.8,0.8-1.3,1.2c-0.2,0.1-0.4,0.3-0.6,0.4
	C164.1,326.9,164.2,326.8,164.1,326.7z"/>
<path class="st96" d="M135.8,294.1c0.3-0.3,0.2-0.6,0.1-1c-1.2-3.5-1.5-7.1-1.2-10.8c0.5-5.5,2.4-10.6,5.8-15
	c2.7-3.5,6.1-6.4,10-8.3c2.8-1.4,5.9-2.4,9-2.7c4.5-0.4,9-0.2,13.4,1.3c4.6,1.6,8.5,4.2,11.8,7.8c4,4.3,6.4,9.4,7.3,15.2
	c0.6,4.1,0.4,8.3-0.9,12.4c-0.2,0.5-0.2,0.9-0.1,1.4c-0.4,0.3-0.8,0.6-1.2,0.9c-0.1,0.1-0.2,0.1-0.3,0.2c-0.5,0-0.6-0.2-0.6-0.6
	c0-0.3,0.2-0.7,0.3-1c1-2.9,1.5-5.9,1.4-9c-0.3-8.1-3.5-14.9-9.7-20.2c-4.1-3.5-8.8-5.6-14.1-6.2c-7.9-0.9-15,1.1-21,6.3
	c-5.4,4.6-8.5,10.5-9.3,17.5c-0.3,2.2-0.2,4.4,0.1,6.6c0.1,0.4,0.2,0.8,0.4,1.2c0.4,1.6,0.8,3.2,1.3,4.8c0.1,0.3,0.2,0.6-0.1,0.9
	c-0.3,0.1-0.6,0-0.9-0.1C136.9,295,136.1,294.9,135.8,294.1z"/>
<path class="st97" d="M189.7,295.3c0.1,0,0.1,0,0.2,0c1.4,2.3,2.3,4.8,2.9,7.4c0.5,2.1,0.9,4.3,0.9,6.5c0,0.5-0.1,1.1-0.4,1.5
	c-0.1,0.2-0.2,0.3-0.4,0.3c-0.3-0.3-0.3-0.7-0.3-1.1c0-4.6-1.1-9-3-13.2c-0.2-0.3-0.4-0.7-0.3-1.1
	C189.4,295.4,189.5,295.4,189.7,295.3z"/>
<path class="st98" d="M171.4,322.5c1-0.9,2.2-1.4,3.3-2.3c4.2-3.2,6.6-7.4,7.3-12.6c0.3-2.3,0-4.4-0.6-6.6c-0.4-1.4-0.4-1.4-1.9-1.4
	c-0.3,0.2-0.5,0.2-0.6-0.2c0.1-0.2,0.4-0.2,0.6-0.2c0.5,0,1,0.1,1.5-0.1c0.3-0.1,0.6-0.1,0.9-0.2c0.2,0,0.4-0.1,0.6,0
	c0.5,0.1,0.8,0.5,0.9,1c1.1,3.3,1.5,6.7,0.8,10.2c-0.6,2.9-1.6,5.7-3.4,8.1c-0.3,0.4-0.6,0.6-0.9,1
	C177.1,320.5,174.2,321.5,171.4,322.5z"/>
<path class="st99" d="M179.9,319.1c1-1.8,2.2-3.4,3-5.4c1.8-4.6,1.8-9.3,0.2-13.9c-0.1-0.4-0.3-0.7-0.7-0.7c0.3-0.7,1-0.7,1.6-0.7
	c0.5,0.1,0.6,0.5,0.8,1c0.7,2,1.1,4,1.3,6c0.2,2.8-0.1,5.4-0.8,8.1c-0.4,1.3-0.9,2.6-1.6,3.8C182.4,318,181.2,318.6,179.9,319.1z"/>
<path class="st100" d="M188,314.6c-0.6,0.5-1.3,1-2.1,1.3c-0.3-0.6-0.1-1.1,0.1-1.6c1.6-5.3,1.3-10.5-0.8-15.6
	c-0.1-0.2-0.1-0.4-0.2-0.5c-0.1-0.3,0.1-0.5,0.3-0.6c0.2-0.1,0.3-0.2,0.5-0.3c0.2-0.1,0.4-0.1,0.6,0c0.8,1,1.2,2.2,1.5,3.4
	c1.3,4.1,1.6,8.4,0.6,12.6C188.5,313.7,188.4,314.2,188,314.6z"/>
<path class="st5" d="M185.1,297.9c1.4,2.6,2,5.3,2.1,8.2c0.1,2.9,0,5.8-1.1,8.5c-0.2,0.4-0.2,0.9-0.2,1.3c-0.7,0.5-1.5,1-2.3,1.3
	c0-0.8,0.4-1.4,0.6-2c0.9-2,1.3-4.1,1.5-6.3c0.3-3.3-0.2-6.5-1.3-9.6c-0.1-0.3-0.2-0.7-0.6-0.7c0-0.1,0-0.2,0-0.3
	C184.2,298,184.6,297.8,185.1,297.9z"/>
<path class="st101" d="M188,314.6c1.7-5.8,1-11.5-1.4-17c-0.1-0.1-0.2-0.2-0.3-0.4c0-0.1,0-0.1,0-0.2c0.3-0.4,0.8-0.5,1.3-0.5
	c0.4,0.1,0.6,0.5,0.7,0.8c1.9,4.4,2.8,8.9,2.3,13.7c-0.1,0.8,0.1,1.6-0.7,2.1C189.3,313.8,188.7,314.2,188,314.6z"/>
<path class="st102" d="M189.9,313.3c0.6-1,0.4-2.2,0.5-3.3c0.3-4.3-0.6-8.5-2.3-12.4c-0.1-0.3-0.2-0.8-0.7-0.8
	c-0.1-0.1-0.1-0.2,0-0.3c0.2-0.3,0.5-0.6,0.9-0.6c0.1,0,0.2,0,0.3,0.1c0.6,0.5,0.9,1.3,1.2,2c1.7,4.1,2.4,8.4,2.2,12.8
	c0,0.6-0.3,0.9-0.6,1.3C190.9,312.6,190.4,313,189.9,313.3z"/>
<path class="st103" d="M191.4,312.1c0.3-0.5,0.3-1,0.4-1.5c0.2-4.2-0.5-8.3-2.1-12.2c-0.3-0.8-0.6-1.7-1.3-2.3
	c0.2-0.5,0.6-0.7,1.1-0.6c0,0.8,0.6,1.5,0.9,2.3c1.3,3,2.1,6.1,2.4,9.4c0.1,1.3,0.1,2.6,0.1,3.8
	C192.4,311.4,191.9,311.8,191.4,312.1z"/>
<path class="st1" d="M135.8,294.1c0.5,0.4,1,0.7,1.5,1.1c0.2,0.4-0.1,0.7-0.2,1.1c-1.8,3.8-3,7.8-3.1,12c0,0.7,0.1,1.5-0.6,2
	c-3.2-2.6-6.1-5.7-8.5-9.1c-0.3-0.4-0.6-0.9-0.9-1.4c0-0.2-0.2-0.5,0.2-0.7c0.4-0.2,0.3-0.6,0-0.9c-0.3-0.2-0.2-0.5-0.1-0.8
	c0,0,0-0.1,0-0.1c0.3-1.3,0.5-2.7,1.7-3.7c0.9-0.8,2-1,3-1.4c0.9,0,1.8,0,2.6,0c0.8,0.3,1.6,0.5,2.5,0.8c0.2,0.2,0.5,0.3,0.8,0.4
	C134.9,293.6,135.4,293.9,135.8,294.1z"/>
<path class="st98" d="M146.4,299.4c-1.5,3.2-1.7,6.5-1.1,9.9c0.7,3.7,2.4,6.9,4.9,9.7c0.2,0.3,0.5,0.5,0.8,0.7
	c0.4,0.3,0.7,0.7,0.6,1.3c-1.8-0.6-3.6-1.3-5.3-2.3c-2.1-3-3.3-6.3-3.7-10c-0.3-2.8,0.1-5.5,0.8-8.2c0.2-0.6,0.3-1.1,0.7-1.7
	c0.4-0.3,0.7,0,1.1,0c0.3,0.1,0.6,0,0.8,0.2C146.3,299.2,146.4,299.3,146.4,299.4z"/>
<path class="st104" d="M136.9,313.1c-0.6-0.3-1.1-0.7-1.5-1.1c-0.7-0.5-0.8-1.2-0.8-2c0-4.6,0.9-9,2.9-13.1c0.2-0.5,0.4-1,1.1-1
	c0.5,0.1,1,0.2,1.1,0.8c-1.4,2.9-2.4,5.9-2.7,9.1c-0.2,2.1-0.3,4.3,0,6.4C137,312.4,137.2,312.8,136.9,313.1z"/>
<path class="st101" d="M136.9,313.1c-0.6-2.5-0.5-5-0.2-7.5c0.3-2.6,1-5,2-7.4c0.2-0.6,0.4-1.2,0.9-1.6c0.1-0.1,0.2-0.1,0.3-0.1
	c0.4,0.2,0.8,0.3,0.8,0.8c-0.6,1.7-1.4,3.4-1.8,5.2c-0.8,3.3-0.9,6.7-0.3,10.1c0.1,0.5,0.3,1-0.1,1.5
	C137.9,313.9,137.4,313.5,136.9,313.1z"/>
<path class="st105" d="M138.5,314.2c-0.2-2.2-0.7-4.3-0.6-6.5c0.2-3.7,1-7.2,2.7-10.5c0.1-0.1,0.1-0.1,0.2-0.1
	c0.3,0.1,0.5,0.2,0.7,0.4c0.1,0.1,0.1,0.3,0.1,0.4c-0.9,2.4-1.7,4.8-1.9,7.4c-0.3,2.9-0.1,5.8,0.7,8.6c0.1,0.5,0.4,1,0.3,1.5
	C139.8,315.1,139.1,314.7,138.5,314.2z"/>
<path class="st106" d="M140.5,315.5c-0.6-1.3-0.9-2.7-1.1-4.1c-0.5-3.9-0.2-7.7,1.1-11.4c0.3-0.8,0.5-1.6,1-2.3
	c0.2-0.2,0.4-0.2,0.6-0.1c0.3,0.1,0.5,0.3,0.4,0.6c-0.8,2.2-1.5,4.4-1.7,6.7c-0.4,3.4,0,6.6,1.1,9.8c0.2,0.5,0.5,1,0.2,1.6
	C141.5,316.2,141,315.9,140.5,315.5z"/>
<path class="st5" d="M142.1,316.4c-1.2-3.3-1.9-6.7-1.7-10.2c0.2-2.7,0.8-5.4,1.9-7.9c0-0.1,0.2-0.2,0.3-0.3c0.4-0.1,0.9-0.1,1,0.5
	c-1.5,3.2-1.9,6.6-1.7,10.1c0.1,2.5,0.8,4.9,1.7,7.2c0.2,0.5,0.5,1,0.3,1.5C143.1,317.2,142.6,316.8,142.1,316.4z"/>
<path class="st99" d="M144.3,298.8c-0.4,1.6-0.9,3.1-1.2,4.7c-0.7,3.7-0.1,7.2,1.1,10.7c0.4,1.2,1.1,2.3,1.8,3.4
	c0.2,0.3,0.2,0.7,0.3,1.1c-0.7-0.2-1.3-0.5-1.9-0.9c-2.1-3.9-3.1-8.1-2.8-12.5c0.1-2,0.6-3.9,1.3-5.7c0.2-0.4,0.2-0.9,0.8-1
	C144,298.5,144.2,298.6,144.3,298.8z"/>
<path class="st97" d="M138.7,296c-0.4-0.1-0.6,0.2-0.8,0.6c-1.6,3.2-2.6,6.6-2.9,10.2c-0.1,1.1-0.1,2.1-0.2,3.2c0,0.7,0.1,1.4,0.6,2
	c-0.8-0.5-1.5-1.1-2.1-1.7c0.3-0.7,0.4-1.5,0.4-2.2c0.1-3.5,0.9-6.8,2.3-10c0.4-1,0.9-1.9,1.3-2.8c0.2,0.1,0.5,0.2,0.7,0.3
	C138.3,295.6,138.7,295.6,138.7,296z"/>
<path class="st99" d="M143.9,298.7c-0.9,0.6-1,1.7-1.2,2.6c-1.5,5.3-0.9,10.3,1.5,15.2c0.2,0.4,0.4,0.8,0.3,1.3
	c-0.3-0.1-0.5-0.2-0.7-0.4c-0.7-2.1-1.6-4.1-2-6.2c-0.6-3.9-0.4-7.7,0.9-11.5c0.2-0.4,0.3-0.9,0.7-1.2c0.2-0.2,0.3-0.2,0.5-0.1
	C144,298.5,144,298.6,143.9,298.7z"/>
<path class="st5" d="M161.5,325.7c0.5,0,0.7,0.3,0.8,0.7C162,326.2,161.8,325.9,161.5,325.7z"/>
<path class="st107" d="M123.9,297.4c0,0.3,0.1,0.5,0.1,0.8c-0.3,0-0.7,0.1-1-0.2C123.3,297.8,123.6,297.6,123.9,297.4z"/>
<path class="st8" d="M156,255.8c0.8-0.1,1.7,0.2,2.4-0.2c0.1,0.1,0.2,0.3,0,0.3C157.7,255.9,156.8,256.2,156,255.8z"/>
<path class="st34" d="M178.9,299.4c0.1,0.2,0.4,0.2,0.6,0.2c0.5,2,1.1,4.1,0.9,6.2c-0.3,4-1.6,7.6-4.4,10.6c-2.8,3-6.2,4.8-10.3,5.2
	c-4.3,0.5-8.3-0.5-11.8-3.1c-3.8-2.8-6-6.6-6.6-11.4c-0.3-2.4-0.1-4.6,0.6-6.8c0.1-0.3,0.2-0.7,0.5-0.9c0.1-0.2,0.4-0.3,0.6-0.4
	c0.3-0.1,0.6-0.3,1,0c-0.1,1.2-0.6,2.2-0.8,3.4c-1,6.7,2.7,13.3,9,15.8c7.9,3.2,16.7-1,19.4-8.7c1.1-3,1.1-6.1,0.2-9.2
	c-0.1-0.4-0.3-0.8-0.1-1.2C178.2,299.1,178.6,299.1,178.9,299.4z"/>
<path class="st108" d="M149.1,299.2c-0.1,0.2-0.4,0.2-0.6,0.2c-0.7,0-1.4,0-2.1,0c-0.1-0.1-0.1-0.1-0.2-0.2c0.9-0.4,0.9-0.5,0.3-1.4
	c-0.6-1-1.1-2.1-1.6-3.2c-0.4-1.1-0.3-1.2,0.9-1.4c1,0.1,2-0.2,2.9,0.2c0.3,0.4-0.1,0.4-0.3,0.5c-1.7,0.1-1.7,0.1-1,1.7
	c0.4,0.9,0.9,1.8,1.5,2.6C149.2,298.5,149.5,298.9,149.1,299.2z"/>
<path class="st109" d="M189.5,295.5c-0.4,0.2-0.8,0.4-1.1,0.6c0,0-0.1,0-0.1,0l-0.1,0c-0.5-0.4-0.2-0.8-0.1-1.2
	c0.8-2,1.3-4.1,1.6-6.3c0.5-4.4-0.1-8.7-1.7-12.8c-2.5-6-6.6-10.6-12.4-13.6c-2.9-1.6-6.1-2.4-9.5-2.7c-6.5-0.6-12.4,0.9-17.7,4.7
	c-6.3,4.6-10.1,10.8-11,18.6c-0.3,2.1-0.1,4.1,0.1,6.2c0.1,0.5,0.1,1-0.7,1.1c-0.5-0.6-0.5-1.4-0.5-2c-0.1-3.5-0.1-7.1,1-10.5
	c1-3.2,2.5-6.1,4.5-8.7c2.5-3.3,5.6-5.9,9.2-7.7c2.7-1.4,5.6-2.3,8.7-2.7c4.3-0.6,8.4-0.3,12.5,1c3.3,1,6.2,2.7,8.9,5
	c4.3,3.5,7.1,8,8.8,13.2c0.9,2.9,1.3,5.9,1.2,9c-0.1,2.7-0.6,5.5-1.6,8.1c-0.1,0.3-0.5,0.8,0.3,0.8
	C189.6,295.3,189.5,295.4,189.5,295.5z"/>
<path class="st110" d="M136.8,290c1-0.5,0.4-1.5,0.3-2.1c-0.4-3.1,0.1-6.2,0.8-9.2c0.9-3.6,2.6-6.9,5-9.7c3.9-4.6,8.7-7.9,14.7-9.2
	c2.2-0.5,4.4-0.8,6.7-0.7c3.3,0.2,6.5,0.8,9.5,2.1c3.4,1.4,6.4,3.5,9,6.2c3.7,3.9,6,8.5,6.9,13.8c0.8,4.8,0.4,9.5-1.5,14
	c-0.1,0.3-0.3,0.6-0.1,0.9c-0.2,0.2-0.5,0.4-0.7,0.6c-0.5-0.4-0.5-0.5-0.2-1.1c0.4-1.1,0.8-2.2,1.1-3.3c1.8-6.9,0.7-13.5-2.9-19.6
	c-2.4-4.1-5.8-7.1-9.9-9.4c-3-1.6-6.3-2.5-9.8-2.8c-4.8-0.4-9.4,0.5-13.7,2.7c-6.7,3.4-11,8.8-13.1,16.1c-1.6,5.5-1.2,10.8,0.9,16.1
	c0.4,1,0.4,1,0,1.4c-0.1,0-0.1,0-0.2,0c-0.3-0.3-0.6-0.4-0.9-0.6c-0.2-0.2-0.4-0.4-0.6-0.5c0.3-0.2,0.1-0.4,0-0.7
	C137.6,293.2,137.1,291.6,136.8,290z"/>
<path class="st111" d="M183.8,298.3c0,0.1,0,0.1,0,0.2c-0.5,0.1-1,0.3-1.5,0.6c-0.2,0-0.4,0-0.5,0c-0.3-0.4-0.3-0.4,0-0.9
	c0.7-1.1,1.2-2.3,1.7-3.5c0.2-0.5,0.4-1,0.1-1.5c0.4-0.6,1.1-0.7,1.8-0.9c0.6,0,0.7,0.4,0.6,0.9c-0.2,0.8-0.5,1.6-0.8,2.4
	C184.7,296.5,184.3,297.4,183.8,298.3z"/>
<path class="st112" d="M183.6,293.2c0.5,0,0.6,0.3,0.4,0.8c-0.5,1.3-1,2.6-1.7,3.7c-0.2,0.4-0.7,0.8-0.5,1.4
	c-0.2,0.2-0.5,0.2-0.8,0.2c-0.3,0.1-0.7,0.2-0.9-0.1c-0.2-0.3,0.1-0.7,0.2-0.9c0.6-1.1,1.3-2.1,1.7-3.3c0.3-0.6,0.3-1.1-0.3-1.5
	C182.2,293,182.9,292.9,183.6,293.2z"/>
<path class="st113" d="M181.7,293.5c1.1,0.1,1.1,0.1,0.7,1.1c-0.5,1.3-1.1,2.4-1.8,3.6c-0.2,0.3-0.4,0.6-0.4,1c0.3,0,0.6,0,0.8,0.1
	c-0.5,0.3-1,0.2-1.5,0.2c-0.8-0.2-0.9-0.4-0.4-1.1c0.7-1.1,1.3-2.3,1.8-3.5c0.3-0.6,0.1-0.9-0.6-0.8c-0.4,0-0.8,0-1.2,0
	c-0.2,0-0.5-0.1-0.6-0.3C179.5,293,180.6,293.2,181.7,293.5z"/>
<path class="st114" d="M180.4,293.8c1,0,1.1,0.1,0.7,1c-0.5,1.3-1.1,2.5-1.9,3.6c-0.4,0.5-0.2,0.7,0.2,1c-0.2,0-0.4,0-0.6,0
	c-0.4-0.1-0.8,0-1.1-0.2c-0.1-0.1-0.1-0.2-0.1-0.3c0.1-0.5,0.4-0.9,0.6-1.2c0.7-1,1.2-2,1.6-3.2C180,294.3,180.1,294,180.4,293.8z"
	/>
<path class="st115" d="M183.8,298.3c0-1.3,1-2.2,1.3-3.4c0.2-0.7,0.4-1.3,0.6-2c0.1-0.5-0.1-0.5-0.4-0.5c0-0.2,0-0.3,0.2-0.4
	c1-0.8,1.3-1.9,1.1-3.1c0-0.2,0-0.3,0-0.5c0.2-0.3,0.4-0.6,0.4-0.9c0.2-3.7-0.4-7.2-1.9-10.6c-2.7-5.9-7.1-10.3-13.2-12.5
	c-8.5-3-16.5-1.7-23.5,4.1c-3.3,2.7-5.5,6.2-7,10.1c-0.3,0.9-0.5,1.9-0.7,2.8c-0.2,0.4-0.5,0.7-0.9,0.7c-0.1,0-0.2-0.1-0.3-0.2
	c-0.2-0.8,0.1-1.6,0.3-2.3c1.1-4.2,3.2-7.8,6.2-10.9c4-4,8.7-6.5,14.4-7.1c4.7-0.5,9.2,0,13.5,2c4,1.8,7.2,4.6,9.7,8.2
	c2.7,3.8,4.1,7.9,4.4,12.5c0.3,4.1-0.5,8-2.2,11.7c-0.2,0.4-0.3,0.8-0.3,1.2c-0.1,0.1-0.3,0.2-0.4,0.3
	C184.7,298,184.3,298.2,183.8,298.3z"/>
<path class="st116" d="M141.3,297.5c-0.2-0.1-0.4-0.1-0.6-0.3c-1.5-3.9-2.7-7.8-2.5-12c0.3-5.6,2.1-10.6,5.6-15
	c3.9-4.8,8.8-7.9,14.8-9c7.4-1.3,14.2,0.1,20.3,4.7c5.7,4.4,8.9,10.2,9.8,17.3c0.5,4.1,0,8.2-1.6,12c-0.3,0.7-0.4,1.4-0.8,2
	c0,0,0,0.1,0,0.1c-0.1,0-0.2,0.1-0.4,0.1c-0.7-0.2-0.2-0.7-0.1-0.9c1-2.3,1.7-4.7,2-7.1c0.5-4.3,0.1-8.6-1.7-12.6
	c-3.6-7.8-9.5-12.9-18-14.5c-5.4-1-10.7-0.4-15.6,2.1c-7.1,3.7-11.6,9.5-13.1,17.4c-0.9,4.7-0.3,9.5,1.6,14
	C141.3,296.2,141.8,296.8,141.3,297.5z"/>
<path class="st116" d="M141.3,297.5c0.1-0.6-0.1-1.1-0.3-1.5c-1.5-3.3-2.2-6.7-2.1-10.2c0.2-5.6,1.9-10.7,5.5-15
	c2.1-2.6,4.7-4.8,7.6-6.3c2.4-1.3,4.9-2.1,7.6-2.5c1.8-0.2,3.6-0.3,5.3-0.2c4.9,0.2,9.3,1.8,13.2,4.7c5.2,4,8.5,9.2,9.6,15.6
	c0.8,4.9,0.2,9.7-1.9,14.3c-0.1,0.3-0.5,0.6-0.1,1c-0.1,0.2-0.2,0.2-0.3,0.2c-0.5-0.5,0-0.9,0.1-1.3c1.2-2.8,2-5.7,2.1-8.8
	c0.3-6.3-1.5-11.8-5.5-16.7c-3.9-4.7-8.8-7.7-14.8-8.5c-6.8-1-13.2,0.4-18.8,4.7c-4.9,3.8-7.8,8.8-9.1,14.8c0,0.2,0,0.3,0,0.5
	c0.5,0.3,0.6,0.6,0.6,1.2c-0.5,4.6,0.2,9,2.2,13.1c0.1,0.2,0.2,0.5,0.2,0.7c0,0.3,0,0.7-0.5,0.5c-0.2,0-0.4,0-0.5,0
	C141.4,297.6,141.4,297.6,141.3,297.5z"/>
<path class="st117" d="M186.3,297.1c0-0.9,0.4-1.6,0.7-2.4c0.9-2.3,1.4-4.7,1.5-7.2c0.4-4.9-0.8-9.5-3.2-13.8
	c-1.3-2.4-3.1-4.4-5-6.3c-2-1.9-4.3-3.3-6.8-4.4c-2.6-1.2-5.4-1.8-8.3-2c-3.9-0.2-7.7,0.3-11.4,1.8c-3.7,1.6-6.8,4-9.5,7.1
	c-2.8,3.2-4.4,7-5.4,11.1c-1.1,5-0.5,9.8,1.4,14.5c0.2,0.5,0.4,1.1,0.3,1.6c-0.1,0-0.1,0-0.2,0c-0.3-0.2-0.5-0.4-0.8-0.6
	c0.4-0.4,0-0.7-0.1-1c-1.6-3.7-2.3-7.5-2-11.5c0.3-4.1,1.5-7.9,3.6-11.5c2.3-3.8,5.3-6.8,9.1-9.1c2.9-1.7,6-2.8,9.3-3.2
	c1.5-0.2,2.9-0.5,4.4-0.4c5.7,0.3,10.9,2,15.5,5.6c4.1,3.2,6.9,7.3,8.5,12.2c0.7,2.1,1.1,4.3,1.2,6.6c0.2,3.8-0.5,7.5-1.9,11
	c-0.1,0.4-0.5,0.8,0,1.2c0,0.1,0,0.1,0,0.2C187,296.9,186.6,297,186.3,297.1z"/>
<path class="st118" d="M143.9,298.7c0-0.1,0-0.1,0-0.2c-0.7-1.6-1.6-3.2-2.1-4.9c-0.1-0.4-0.4-0.9,0.2-1.2c0.7,0.1,1.4,0.2,1.9,0.8
	c-0.3,0.4-0.2,0.8-0.1,1.2c0.5,1.3,1.2,2.6,1.9,3.9c0.3,0.6,0.2,1-0.5,1c-0.3-0.1-0.6-0.2-1-0.3C144.2,298.8,144,298.7,143.9,298.7z
	"/>
<path class="st119" d="M145.3,299.2c0.5-0.2,0.6-0.4,0.3-0.9c-0.8-1.4-1.5-2.8-2-4.3c-0.1-0.4-0.3-0.8,0.4-0.7
	c0.6,0,1.3-0.3,1.8,0.4c-0.8-0.1-0.8,0.3-0.6,0.9c0.5,1.2,1.1,2.4,1.8,3.6c0.7,1.2,0.7,1.2-0.7,1.2
	C145.9,299.2,145.6,299.2,145.3,299.2z"/>
<path class="st120" d="M142.1,292.4c-0.4,0.3-0.2,0.6-0.1,0.9c0.4,1.5,1.1,2.9,1.8,4.3c0.1,0.3,0.5,0.5,0.1,0.9c-0.2,0-0.4,0-0.5,0
	c-0.3-0.1-0.6-0.3-0.9-0.4c-0.1-0.1-0.3-0.2-0.4-0.4c0.5-0.1,0.4-0.4,0.2-0.7c-1.3-2.6-2.1-5.3-2.4-8.2c-0.2-1.7-0.1-3.4,0-5.1
	c0-0.6,0-1.1-0.3-1.6c0.1,0,0.2,0,0.2,0c0.8,0,1.6-0.3,2.2,0.3c0,0.9-0.3,1.7-0.4,2.5c-0.1,0.8-0.1,1.5,0.1,2.3
	c0,0.4-0.2,0.7-0.5,0.9c-0.3,0.3-0.5,0.6-0.6,0.9c-0.1,0.4-0.1,0.8,0,1.3c0.1,0.5,0.4,0.9,0.9,1.2
	C141.8,291.9,142.1,292,142.1,292.4z"/>
<path class="st121" d="M177.7,299.1c0,0,0,0.1,0,0.1c0.6,1.9,1,3.7,1,5.7c0,3.5-1.2,6.7-3.5,9.3c-3,3.5-6.9,5.4-11.5,5.3
	c-5,0-9-2.1-12-6.1c-2.2-3-3.1-6.4-2.9-10.1c0.1-1.5,0.4-3,1.1-4.3c0.1-0.3,0.3-0.4,0.6-0.2c0.1,0.4-0.1,0.7-0.2,1
	c-1.1,3.6-1,7.1,0.4,10.6c1.9,4.6,7.3,8.2,12.3,8.4c6.4,0.2,12-3.9,13.9-9.1c1.1-3,1.1-6,0.4-9c-0.1-0.6-0.4-1.1-0.9-1.4
	c-0.2-0.1-0.4-0.3-0.3-0.6c0.1-0.1,0.2-0.2,0.4-0.2C177,298.6,177.5,298.7,177.7,299.1z"/>
<path class="st122" d="M150.6,298.9c-0.2,0.1-0.4,0.1-0.6,0.2c-0.3,0.1-0.6,0.1-0.9,0.2c0.3-0.4-0.2-0.7-0.3-1
	c-0.8-1.1-1.3-2.3-1.8-3.5c-0.4-0.9-0.3-1,0.7-1c0.2,0,0.5,0,0.7,0c0.7,1.7,1.6,3.3,2.5,4.9C150.8,298.8,150.7,298.9,150.6,298.9z"
	/>
<path d="M142.1,292.4c-0.5-0.6-1.5-0.9-1.5-1.9c-0.2-0.4-0.1-0.9,0-1.3c0-0.9,0.7-1.1,1.1-1.7c0.4-0.8,1.3-0.7,2-0.9
	c0.1,0,0.2,0,0.3-0.1c1.1,0,2.3,0,3.4,0c0.1,0,0.2,0,0.3,0c0.7,0.2,1.4,0.2,2.1,0.4c0.7,0.2,1.5,0.4,2.1,0.8
	c0.6,0.3,1.2,0.7,1.6,1.3c0.2,0.3,0.3,0.7,0.4,1c0.1,0.6-0.1,1.1-0.4,1.6c-0.3,0.4-0.7,0.8-1.1,1.1c-0.4,0.2-0.8,0.4-1.2,0.6
	c-0.3,0.1-0.5,0.1-0.8,0.2c-0.5,0-1.1,0.3-1.6,0c-1.1,0-2.1,0-3.2,0c-0.6-0.4-1.3,0-1.8-0.4C143.3,292.9,142.7,292.7,142.1,292.4z"
	/>
<path class="st123" d="M148.9,293.6c0.6-0.1,1.1-0.2,1.7-0.2c-0.7,0.6-0.3,1.2,0,1.8c0.3,0.7,0.7,1.4,1.2,2c0.2,0.3,0.4,0.6,0.3,0.9
	c-0.3,0.4-0.7,0.7-1.2,0.5c-1.1-1.5-2.2-3-2.5-4.9C148.5,293.7,148.7,293.8,148.9,293.6z"/>
<path d="M186.6,288.5c0.6,1.8,0.3,2.7-1.3,4c-0.6,0.2-1.2,0.5-1.8,0.7c-0.6,0.1-1.2,0.3-1.9,0.4c-1.1,0.2-2.1-0.2-3.2,0.2
	c-0.6,0.4-1-0.3-1.6-0.2c-0.3-0.1-0.5-0.1-0.8-0.2c-0.2-0.1-0.4-0.1-0.6-0.2c-0.4-0.2-0.7-0.4-1-0.6c-0.4-0.3-0.7-0.7-0.9-1.1
	c-0.2-0.7-0.4-1.5-0.1-2.2c0.3-0.4,0.6-0.9,1.1-1.1c0.5-0.3,1.1-0.5,1.6-0.7c0.4-0.2,0.9-0.3,1.3-0.4c0.3-0.1,0.7-0.2,1-0.2
	c0.5,0,0.9-0.2,1.4-0.2c1.5,0.1,3-0.2,4.4,0.2c0.7,0.3,1.4,0.5,1.9,1C186.5,287.9,186.7,288.2,186.6,288.5z"/>
<path class="st122" d="M177.7,299.1c-0.4-0.1-0.8-0.1-1.1-0.4c-0.2-0.2-0.1-0.5,0.1-0.7c0.8-1.2,1.6-2.5,2-3.9
	c0.1-0.2,0.2-0.2,0.3-0.3c0.4,0,0.9,0,1.3,0C180,295.8,178.8,297.4,177.7,299.1z"/>
<path class="st123" d="M179.1,293.8c-0.5,1.8-1.6,3.3-2.5,4.9c-0.1,0-0.2,0-0.4,0c-0.3,0-0.6-0.1-0.8-0.4c0-0.1-0.1-0.2-0.1-0.3
	c0.3-1,1.1-1.8,1.5-2.8c0.3-0.7,0.5-1.3-0.1-1.9c0.6-0.1,1.1,0.2,1.7,0.4C178.7,293.7,178.9,293.8,179.1,293.8z"/>
<path class="st124" d="M186.6,288.5c-0.1-0.2-0.3-0.4-0.4-0.6c0-2.1,0-4.3-0.5-6.4c-1-3.8-2.7-7.3-5.5-10.2c-2.8-2.9-6.1-5.2-10-6.4
	c-2.3-0.7-4.7-0.8-7.1-0.8c-2.6-0.1-5,0.3-7.4,1.2c-7.2,2.9-12,8-14.1,15.5c-0.2,0.5-0.5,0.9-1.1,0.7c0-2.3,1.1-4.3,2.1-6.3
	c1.1-2.2,2.6-4.2,4.4-5.9c3.7-3.5,8.1-5.8,13.2-6.5c2.5-0.3,5-0.2,7.6,0.2c4.1,0.6,7.6,2.3,10.7,4.8c4.4,3.6,7.2,8.1,8.4,13.7
	c0.4,2.1,0.4,4.1,0.4,6.2C187.2,288.3,187.2,288.7,186.6,288.5z"/>
<path class="st10" d="M140.5,281.6c0.4-0.2,0.7-0.4,1-0.7c0.4-0.5,0.9-0.7,1.4-1c0.5-0.2,0.9-0.5,1.4-0.6c0.6-0.2,1.2-0.4,1.8-0.5
	c0.5-0.1,1.1-0.2,1.6-0.3c0.4,0,0.7,0,1.1,0.1c0.6,0.2,1.2,0.1,1.7,0.3c0.3,0.1,0.5,0.2,0.8,0.3c0.3,0.1,0.7,0.2,1,0.4
	c0.3,0.2,0.6,0.4,0.9,0.6c0.4,0.3,0.7,0.7,1,1.1c0.2,0.4,0.4,0.9,0.4,1.3c0,0.2,0,0.5-0.1,0.7c-0.3,1.6-1.4,2.4-2.9,2.8
	c-0.6,0.1-1.2,0.1-1.8,0c-0.6-0.1-1.2-0.3-1.8-0.6c-0.7-0.4-1.4-0.9-2.2-1.3c-0.2-0.1-0.3-0.1-0.5-0.2c-0.7-0.3-1.3-0.8-2-1
	c-0.4-0.2-0.9-0.2-1.2-0.5c-0.7-0.4-1.5,0-2.2-0.4C140.1,282,140.3,281.8,140.5,281.6z"/>
<path class="st125" d="M142.1,282.6c0.5,0,0.9,0.2,1.3,0.4c0.5,0.3,0.3,0.7,0.2,1.1c-0.2,0.9-0.3,1.8,0,2.7
	c-0.6,0.2-1.3,0.5-1.9,0.7C140.9,285.8,141.4,284.2,142.1,282.6z"/>
<path class="st116" d="M140.6,289.2c0,0.4,0,0.9,0,1.3C140.2,290.1,140.3,289.7,140.6,289.2z"/>
<path class="st121" d="M175.5,298.3c0.3,0,0.6,0.1,0.8,0.4c2.7,2.5,2.1,5.8,1.6,8.8c-0.5,4-2.9,7-6.2,9.2c-5.6,3.8-13.2,2.9-18-1.8
	c-3.4-3.3-4.7-7.4-4.3-12.1c0.1-1.4,0.4-2.8,1.1-4.1c0.1-0.1,0.1-0.1,0.2-0.2c0.4-0.1,0.8-0.3,1.1-0.6c0.1-0.1,0.3-0.1,0.4,0
	c0.3,0.6,0,1-0.2,1.5c-1.2,3.5-1.1,6.9,0.7,10.1c0.1,0.1,0.1,0.3,0.1,0.4c0,0.1,0,0.2,0,0.3c-0.1,0.3-0.1,0.5,0.2,0.8
	c0.1,0.1,0.3,0.3,0.4,0.4c0.2,0.1,0.4,0.2,0.6,0.3c2,2.4,4.6,3.8,7.6,4.5c0.4,0.4,0.8,0.8,1.4,0.9c0.6,0.7,1.3,0.2,2,0.2
	c0.1,0,0.2,0,0.2,0c0.3,0.1,0.4-0.1,0.4-0.4c0.1-0.3,0.1-0.6,0.3-0.8c2.5-0.5,4.7-1.6,6.6-3.3c0.4-0.4,0.6-0.7,0.5-1.3
	c0,0,0.1-0.1,0.2-0.1c1.7-0.3,1.4-0.3,1.6-1.8c1.6-3.1,2-6.3,0.8-9.6C175.5,299.5,175.1,298.9,175.5,298.3z"/>
<path class="st126" d="M173.8,289.2c-0.4,0.8-0.2,1.5,0,2.3c0,1.8-0.6,3.4-1.7,4.8c-0.6,0.1-0.9-0.1-1.1-0.6c0-0.4,0.2-0.7,0.3-1
	c2.6-4.8-0.4-11.2-6.4-12c-3.3-0.5-6,0.7-7.9,3.3c-1.9,2.6-2.4,5.4-1,8.4c0.2,0.4,0.4,0.8,0.3,1.2c-0.3,0.5-0.8,0.9-1.5,0.8
	c-0.7-1.3-1.2-2.6-1.6-4c-0.1-0.3-0.1-0.5,0-0.8c0.1-0.5,0.2-1,0.4-1.6c-0.1-0.2-0.1-0.5-0.1-0.8c0.5-1.9,1.2-3.8,2.5-5.3
	c1.9-2,4.1-3.2,6.9-3.4c2-0.1,3.9,0.3,5.6,1.2c0.2,0.1,0.5,0.2,0.7,0.2c0.6,0.5,0.8,1.4,1.7,1.7c0.4,0.1,0.9,0.2,1.1,0.6
	c0.3,1.2,1.1,2.2,1.4,3.5C173.7,288.3,173.9,288.7,173.8,289.2z"/>
<path class="st127" d="M151.7,286c1.3-0.5,2.3-1.2,2.6-2.7c0.5-0.3,0.9-0.7,1.3-1.1c3.8-3.8,9.1-4.5,13.9-2c0.1,0.1,0.1,0.3,0.1,0.4
	c0,0.3-0.1,0.5-0.3,0.7c-0.4,0.1-0.7-0.1-1.1-0.3c-4.8-2.1-10-0.7-13,3.5c-0.9,1.3-1.4,2.8-1.7,4.4c0,0-0.1,0.1-0.1,0.1
	c-0.4-0.4-1-0.8-1.5-1.1c-0.3-0.3-0.3-0.6-0.2-0.9C151.7,286.7,151.7,286.3,151.7,286z"/>
<path class="st128" d="M153.4,291.6c0.4,1.4,0.8,2.8,1.5,4.1c0.1,0.2,0.2,0.4,0.1,0.7c-0.3,0.6-0.7,0.9-1.3,0.8
	c-0.6-1.1-1.1-2.1-1.6-3.3c-0.2-0.6-0.3-1.1,0.4-1.3C152.8,292.3,153.1,292,153.4,291.6z"/>
<path class="st129" d="M143.6,286.8c-0.9-0.6-0.3-1.4-0.3-2.2c0-0.5,0.4-1,0.1-1.6c0.8,0.1,1.4,0.7,2.1,0.9c0.3,0.9-0.1,1.8-0.3,2.6
	c-0.4,0.2-0.9-0.1-1.4,0.2L143.6,286.8L143.6,286.8z"/>
<path class="st130" d="M152.3,298.1c-0.1,0-0.2,0-0.4,0c-0.5-1.2-1.3-2.2-1.8-3.4c-0.3-0.8-0.4-1.2,0.5-1.4c0.2-0.2,0.5-0.2,0.8-0.2
	c0.1,0.9,0.4,1.8,0.9,2.6c0.3,0.6,0.8,1,0.8,1.8C152.9,297.9,152.7,298.1,152.3,298.1z"/>
<path class="st131" d="M152.8,297.6c-0.4-1.2-1.3-2.2-1.7-3.5c-0.1-0.4-0.1-0.6,0.2-0.9c0.4-0.2,0.8-0.4,1.1-0.5
	c-0.4,0.3-0.5,0.7-0.2,1.2c0.4,0.9,0.7,1.8,1.2,2.6c0.2,0.2,0.3,0.5,0.1,0.8C153.5,297.6,153.2,297.7,152.8,297.6z"/>
<path class="st132" d="M145.8,284.1c0.7,0.4,1.4,0.8,2.1,1.3c0.2,0.5,0.1,0.9-0.2,1.4c-0.1,0-0.1,0-0.2,0c-0.7-0.3-1.4,0-2.1-0.2
	C145.1,285.7,145.4,284.9,145.8,284.1z"/>
<path class="st133" d="M151.7,286c0.4,0.1,0.4,0.3,0.3,0.6c-0.1,0.4-0.3,0.9-0.1,1.3c-0.7-0.3-1.4-0.5-2.1-0.8
	c-0.6-0.3-0.7-0.7-0.2-1.2C150.3,286,151,286,151.7,286z"/>
<path class="st134" d="M149.6,286c-0.1,0.4-0.3,0.8,0.2,1.2c-0.7-0.1-1.4-0.3-2.1-0.4c-0.1-0.5,0.1-0.9,0.2-1.4
	C148.5,285.6,149.1,285.8,149.6,286z"/>
<path class="st135" d="M145.1,288.3c-0.1,0.5-0.3,0.7-0.9,0.7c-0.5,0-0.7-0.3-0.7-0.8c0-0.5,0.3-0.7,0.8-0.7
	C144.8,287.5,145.1,287.7,145.1,288.3z"/>
<path class="st125" d="M145.5,286.5c0.7,0.2,1.4-0.2,2.1,0.2c-1.3-0.1-2.5-0.1-3.8,0c0.4-0.4,0.9-0.1,1.3-0.2
	C145.2,286.5,145.3,286.5,145.5,286.5z"/>
<path class="st127" d="M153.8,289.2c0,0.3,0,0.6,0,0.8c-0.1-0.3-0.3-0.7-0.4-1l0,0C153.6,288.9,153.7,289,153.8,289.2z"/>
<path class="st111" d="M143,280.1c-0.5,0.3-1,0.5-1.5,0.8c0-1.2,0.6-2.3,1-3.4c1.1-2.6,2.6-5,4.7-7c3.7-3.6,8-6.1,13.1-6.6
	c4.6-0.5,9.2-0.2,13.4,2.1c6.1,3.2,10.2,8,12.1,14.7c0.6,2.2,0.8,4.4,0.7,6.7c0,0.2,0,0.4-0.2,0.5c-0.5-0.4-1.1-0.7-1.7-1
	c0.4-0.4,0.5-0.9,0.4-1.4c-0.2-2.4-0.9-4.7-1.6-6.9c-1.9-4.8-5.3-8.3-9.8-10.7c-8.5-4.5-19.3-2.8-26,4.5c-1.8,2-3.3,4.3-4.2,6.9
	C143.3,279.6,143.2,279.9,143,280.1z"/>
<path class="st112" d="M183.6,278.4c0.5,1.8,1.2,3.6,1.4,5.5c0.1,0.7,0.2,1.5,0.3,2.2c0.1,0.6-0.2,0.8-0.8,0.8
	c-1.6-0.3-3.1-0.3-4.7-0.2c0-0.3,0.2-0.3,0.4-0.4c0.5-0.1,1.1,0,1.6,0c0.1,0,0.3,0,0.4,0c1.1,0,1.2-0.2,1.1-1.3
	c-0.2-1.7-0.7-3.3-1.3-4.9c-0.1-0.3-0.3-0.6-0.2-1c0.4-0.6,1-0.6,1.5-0.7C183.4,278.4,183.5,278.4,183.6,278.4z"/>
<path class="st136" d="M180.2,286.6c-0.2,0-0.3,0-0.4,0.2c-0.4,0.1-0.9,0.1-1.3,0.2c0-1.3-0.4-2.5-0.9-3.8c-0.1-0.4-0.3-0.7-0.4-1.1
	c0.3-0.5,0.6-1,1.3-1c1.2,1.5,1.5,3.3,1.8,5.2C180.4,286.4,180.3,286.5,180.2,286.6z"/>
<path class="st137" d="M176.3,287.6c-0.5,0.2-1,0.5-1.5,0.7c-0.5-1-0.7-2.1-1.2-3c-0.2-0.4,0-0.8,0.3-1c0.5-0.2,0.9-0.6,1.5-0.4
	c0.5,0.9,0.8,1.9,1.1,2.9C176.6,287,176.6,287.3,176.3,287.6z"/>
<path class="st138" d="M174,284.3c-0.5,0.3-0.4,0.6-0.1,1c0.5,0.9,0.9,1.8,0.9,2.9c-0.3,0.3-0.6,0.6-1,0.9c-0.6-1.4-0.9-2.9-1.8-4.2
	c-0.1-0.2,0-0.4,0.1-0.5C172.7,284.2,173.3,284,174,284.3z"/>
<path class="st139" d="M176.3,287.6c0.2-1.1-0.4-2-0.7-2.9c-0.1-0.3-0.3-0.6-0.2-0.9c0.2-0.5,0.6-0.8,1.2-0.8c0.9,1,1.1,2.3,1.4,3.5
	c0.1,0.3-0.1,0.5-0.3,0.7C177.1,287.3,176.7,287.4,176.3,287.6z"/>
<path class="st140" d="M177.6,287.2c0.3-1.2-0.4-2.3-0.7-3.4c-0.1-0.3-0.3-0.6-0.4-0.8c0.1-0.6,0.3-0.9,1-0.9
	c0.6,1.3,1.1,2.6,1.4,4.1c0.1,0.4,0,0.6-0.2,0.8C178.2,287.1,177.9,287.2,177.6,287.2z"/>
<path class="st141" d="M174.6,292.4c0.3,0.2,0.6,0.4,0.9,0.6c0.3,0.4,0.1,0.8,0,1.2c-0.3,1.2-1.1,2.1-1.5,3.2
	c-0.5,0.2-0.8-0.2-1.1-0.5c-0.2-0.3-0.2-0.6,0-0.9c0.6-1,1-2.1,1.4-3.2C174.3,292.6,174.4,292.5,174.6,292.4z"/>
<path class="st142" d="M176.8,293.4c1.1,0.2,0.8,0.8,0.5,1.4c-0.5,1.2-1.2,2.2-1.8,3.3c-0.4,0.2-0.7,0-0.9-0.3
	c-0.1-0.5,0.1-0.8,0.4-1.2c0.3-0.6,0.6-1.2,0.9-1.7c0.3-0.5,0.4-1.1,0.2-1.7C176.3,293.2,176.6,293.2,176.8,293.4z"/>
<path class="st131" d="M176.1,293.2c0.5,0.3,0.6,0.5,0.4,1.1c-0.4,1.2-1.3,2.2-1.7,3.5c-0.4,0.2-0.7,0.1-0.8-0.4
	c-0.3-0.5,0.1-0.8,0.3-1.1c0.7-1,1.2-2.1,1.3-3.3C175.7,293,175.9,293,176.1,293.2z"/>
<path class="st138" d="M174.6,292.4c-0.4,1.2-0.7,2.5-1.5,3.5c-0.2,0.3-0.2,0.6-0.1,0.9c-0.5,0.2-0.9,0-0.9-0.6
	c0.8-1.5,1.3-3.1,1.7-4.8C174.1,291.8,174.3,292.1,174.6,292.4z"/>
<path class="st5" d="M179.7,288.2c0,0.5-0.3,0.8-0.8,0.8c-0.5,0-0.8-0.2-0.8-0.7c0-0.5,0.3-0.7,0.7-0.8
	C179.3,287.5,179.6,287.7,179.7,288.2z"/>
<path class="st143" d="M172.1,296.2c0.2,0.3,0.6,0.5,0.9,0.6c0.3,0.2,0.6,0.5,0.9,0.6c0.2,0.2,0.5,0.3,0.8,0.4
	c0.2,0.2,0.5,0.3,0.7,0.4c0,0.1,0,0.1,0,0.2c0,0.7,0.3,1.3,0.5,2c1,3,0.7,5.9-0.5,8.8c-0.1,0.3-0.2,0.7-0.6,0.8
	c-1.3-0.1-2.6-0.4-3.8-0.7c-0.2,0-0.4-0.1-0.5-0.4c0.1-0.5,0.5-1,0.7-1.4c2.5-4,1.5-9.1-2.3-11.8c-0.4-0.3-1-0.5-1.1-1.2
	c0.1-0.2,0.3-0.2,0.5-0.2c0.4,0.1,0.8,0.3,1.3,0.5c0.3,0.1,0.5,0.3,0.8,0.4c0.3,0.2,0.5,0.3,0.7,0.6
	C171.4,296,171.7,296.1,172.1,296.2z"/>
<path class="st119" d="M146,279c-0.6,0.2-1.1,0.3-1.7,0.5c-0.3-0.3-0.1-0.7,0-1c3.4-7.2,9-11.2,16.8-12.3c5.9-0.8,11.1,0.9,15.8,4.5
	c1.9,1.5,3.6,3.4,4.8,5.5c0.2,0.4,0.5,0.8,0.3,1.3c-0.7,0.3-1.1-0.2-1.7-0.5c-1-1.4-2-2.6-3.2-3.8c-2.8-2.7-6.1-4.4-9.9-5.1
	c-5.9-1-11.2,0.3-15.9,4.1C149,274.2,147.3,276.4,146,279z"/>
<path class="st125" d="M181.9,277.7c-0.4-1.7-1.5-2.9-2.5-4.1c-3.3-3.8-7.5-6.1-12.5-7c-4-0.7-7.9-0.2-11.6,1.5
	c-2.8,1.2-5.2,2.9-7.2,5.1c-1.7,1.9-3,3.9-3.8,6.3c-0.4,0.2-0.9,0.4-1.3,0.6c0.2-1.8,1.2-3.3,2.1-4.8c3.4-5.4,8.3-8.7,14.5-9.8
	c6.1-1.1,11.8,0.2,16.9,3.9c3.2,2.4,5.6,5.3,7.1,9.1c-0.1,0-0.1,0-0.2,0C182.8,278.5,182.3,278.3,181.9,277.7z"/>
<path class="st144" d="M146,279c0-1.4,1-2.3,1.7-3.3c3.1-4.1,7.2-6.7,12.2-7.6c4.9-0.9,9.6-0.1,13.9,2.5c2.7,1.6,4.9,3.8,6.6,6.5
	c-0.6,0.4-1.2,0-1.7-0.2c-0.4-0.1-0.6-0.4-0.9-0.7c-3.3-4.1-7.7-6.2-12.9-6.6c-5.5-0.4-10.2,1.4-14.1,5.2c-1.2,1.2-2.3,2.5-3.1,4
	C147.2,278.9,146.6,279,146,279z"/>
<path class="st145" d="M147.7,278.8c0-1.3,1-2.1,1.8-3c3.1-3.7,7.1-5.7,11.8-6.4c3.1-0.5,6.2,0.1,9.1,1.2c2.7,1,4.9,2.6,6.9,4.6
	c0.5,0.5,0.7,1.2,1.4,1.5c-0.7,0.5-1.4,0.1-2.2,0c-2.8-3.4-6.5-5.2-10.8-5.7c-5.4-0.6-10.2,0.9-14.1,4.7c-1,0.9-1.9,1.9-2.6,3.1
	c-0.1,0.1-0.2,0.1-0.3,0C148.5,278.8,148.1,278.8,147.7,278.8z"/>
<path class="st146" d="M152.2,279.8c-0.3-0.1-0.7-0.2-0.9-0.4c0-0.6,0.3-0.9,0.7-1.3c3.1-3.2,6.9-5,11.4-5c3.4-0.1,6.4,0.8,9.2,2.6
	c0.5,0.3,1,0.6,1.3,1.2c-0.3,0.6-0.8,0.7-1.4,0.7c-0.3-0.1-0.5-0.2-0.7-0.4c-6.1-4.1-13.7-3-18.6,2.1
	C152.9,279.6,152.7,280,152.2,279.8z"/>
<path class="st147" d="M152.2,279.8c0.2,0,0.4-0.1,0.5-0.2c2.2-2.7,5.1-4.2,8.5-4.8c4.1-0.8,7.9,0.2,11.3,2.8
	c-0.1,0.6-0.6,0.6-1,0.7c-0.4,0-0.8-0.2-1.1-0.4c-4.7-2.6-11.4-2.2-15.5,1.6c-0.5,0.4-0.9,1.2-1.8,0.9
	C152.8,280.1,152.5,280,152.2,279.8z"/>
<path class="st148" d="M153,280.3c0.8,0,1.2-0.7,1.8-1.1c2.4-2,5.1-3.1,8.2-3.2c2.9-0.1,5.5,0.4,8,2c0.1,0.1,0.4,0.1,0.5,0.1
	c-0.2,0.6-0.6,0.9-1.2,1.1c-0.9-0.3-1.7-0.9-2.7-1.1c-4.3-1.3-8.2-0.6-11.7,2.1c-0.4,0.3-0.8,0.6-1.2,0.9c-0.2,0.2-0.5,0.4-0.8,0.2
	C153.6,281,153.3,280.7,153,280.3z"/>
<path class="st136" d="M173.8,277c-2.3-1.9-5-3.2-8-3.5c-4.4-0.5-8.4,0.4-11.9,3.2c-1,0.8-1.9,1.7-2.6,2.8c-0.3,0-0.5,0-0.8-0.2
	c-0.2-0.8,0.5-1.2,0.9-1.6c2-2.2,4.4-3.8,7.2-4.6c5.4-1.7,10.4-0.8,15,2.5c0.4,0.3,1,0.6,1,1.3C174.4,277.1,174.2,277.2,173.8,277z"
	/>
<path class="st149" d="M174.6,276.8c-1.5-1.9-3.6-2.8-5.7-3.6c-3.2-1.1-6.4-1.2-9.6-0.2c-3.5,1-6.4,3-8.6,5.9
	c-0.1,0.1,0,0.2-0.1,0.3c-0.6-0.2-1.2-0.1-1.7-0.4c0.1,0,0.1,0,0.2,0c0.6-0.3,1-0.8,1.5-1.3c2.9-3.4,6.5-5.5,11-6
	c5-0.6,9.3,0.7,13.2,3.9c0.3,0.3,0.7,0.5,0.7,1c-0.1,0.2-0.2,0.3-0.4,0.4C174.8,276.9,174.7,276.9,174.6,276.8z"/>
<path class="st150" d="M153.9,281.3c0.7-0.1,1.1-0.7,1.6-1.1c2.5-2.1,5.5-3.1,8.8-3c2.2,0.1,4.3,0.6,6.1,1.9c0,0.5-0.3,0.6-0.6,0.9
	c-0.4,0.1-0.8-0.2-1.1-0.3c-4.5-2-9.6-1.1-13.1,2.3c-0.3,0.3-0.6,0.8-1.2,0.8C154.2,282.2,154.1,281.7,153.9,281.3z"/>
<path class="st141" d="M154.3,282.6c1.1-0.9,2-2,3.3-2.7c3.6-2,7.3-2.2,11.1-0.5c0.3,0.2,0.7,0.3,1,0.4c0.1,0.3,0,0.5-0.3,0.6
	c-1.4-0.3-2.6-1-4-1.2c-3.5-0.5-6.5,0.4-9.1,2.7c-0.6,0.5-1.1,1.1-1.6,1.6c-0.2,0.2-0.4,0.4-0.4-0.1
	C154.3,283.1,154.3,282.9,154.3,282.6z"/>
<path class="st151" d="M145.5,286.5c-0.1,0-0.3,0-0.4,0c-0.1-0.9,0.3-1.7,0.4-2.6c0.1,0.1,0.3,0.1,0.4,0.2
	C145.7,284.9,145.5,285.7,145.5,286.5z"/>
<path d="M170.5,308.7c1,0.4,2,0.5,3.1,0.7c0.5,0.1,0.9,0.2,1.3,0.5c0.6,1.4,0,2-1.8,1.8c0,0-0.1,0-0.1,0c-0.4,0.1-0.8,0-1.2,0
	c-0.8-0.2-1.6-0.1-2.5,0.1c-3.7,0.9-7.4,1.1-11.1-0.2c-0.3-0.1-0.6-0.1-0.9-0.1c-0.3,0-0.7,0.1-1,0.1c-0.1,0-0.2,0.1-0.3,0.1
	c-0.3,0.1-0.7,0-1,0.2c-0.1,0-0.2,0-0.3,0.1c-0.4,0-0.8-0.1-1.3-0.2c-0.1-0.1-0.2-0.2-0.4-0.4c-0.2-0.3-0.4-0.6-0.2-0.9l0,0
	c0.2-1.1,1.1-1.1,1.9-1.3c0.9-0.2,1.7-0.3,2.6-0.6c1.1-0.3,2.3-0.5,3.4-0.9c0.8-0.3,0.8-0.3,0.3-1c-0.5-0.6-1-1.2-1.4-1.9
	c-0.2-0.3-0.4-0.5-0.6-0.8c-1.6-2.6-0.3-5.1,2.7-5.4c1.4-0.2,2.8-0.2,4.1,0c1.8,0.2,3.2,1.4,3.3,2.9c0.1,1-0.2,2-0.8,2.8
	c-0.6,0.8-1.2,1.5-1.7,2.2c-0.6,0.8-0.6,0.8,0.4,1.2c0.9,0.3,1.9,0.6,2.8,0.8C170,308.4,170.3,308.4,170.5,308.7z"/>
<path class="st143" d="M157,311.3c0.3-0.2,0.6-0.2,1-0.1c3.8,1.5,7.6,1.2,11.5,0.2c0.9-0.2,1.7-0.2,2.5,0.1c0.3,0.3,0.8,0,1.2,0.2
	c0,0,0,0,0,0c0.1,0.3,0.8,0.3,0.3,0.8c-1.9,2-4.1,3.3-6.7,3.9c-0.2,0-0.4-0.1-0.5-0.1c-0.5,0.1-0.8-0.4-1.2-0.5
	c-1.2-0.3-2.2-0.2-3.2,0.7c-2.3-0.2-4.2-1.3-5.9-2.6c-0.7-0.5-1.3-1.1-1.8-1.9c0.3-0.3,0.7,0.1,0.9-0.2l0,0c0.4-0.2,0.8,0.1,1.1-0.2
	l0,0C156.3,311.3,156.7,311.6,157,311.3z"/>
<path class="st143" d="M157.4,308.7c-0.9,0.3-1.7,0.5-2.7,0.6c-0.7,0-1.4,0.2-1.9,0.7c-1.2-1.4-1.5-3.1-1.7-4.8
	c-0.2-2.2,0-4.4,1-6.4c0.1-0.2,0.1-0.5,0.1-0.7c0.2-0.2,0.4-0.3,0.6-0.5c0.3-0.1,0.5-0.2,0.7-0.4c0.5-0.1,0.9-0.5,1.3-0.8
	c0.5-0.1,0.9-0.4,1.3-0.7c0.2-0.4,0.6-0.5,0.9-0.7c0.3-0.1,0.5-0.3,0.8-0.4c0.4-0.1,0.7-0.3,1.1-0.4c0.3-0.1,0.7-0.3,1-0.4
	c0.2,0,0.4,0,0.6,0c0.1,0,0.2,0.1,0.2,0.2c-0.2,0.5-0.6,0.6-1,0.9c-2.7,1.6-4.4,3.8-4.8,6.9C154.8,304.4,155.7,306.7,157.4,308.7z"
	/>
<path class="st1" d="M161.7,316.4c0.2-1,1.1-1.1,1.8-1.1c0.9,0,1.9,0,2.6,0.9c-0.1,0.3-0.1,0.6-0.2,0.9c-0.1,0.2-0.3,0.4-0.6,0.4
	c-0.1,0-0.1,0-0.2,0c-0.7,0.1-1.4,0.4-2.1-0.2C162.4,317.3,161.9,317.1,161.7,316.4z"/>
<path class="st121" d="M163,317.4c0.7,0.2,1.4,0.2,2.1,0.2C164.4,317.7,163.6,318.5,163,317.4z"/>
<path class="st121" d="M152.8,310c0.4-0.8,1.2-0.8,1.9-0.7c-0.7,0.2-1.6,0.2-1.9,1.2C152.8,310.3,152.8,310.1,152.8,310z"/>
<path class="st121" d="M154.9,311.7c-0.2,0.4-0.6,0.1-0.9,0.2c-0.2,0-0.4,0-0.6-0.2C153.9,311.7,154.4,311.7,154.9,311.7z"/>
<path class="st121" d="M152.9,310.4c0.1,0.3,0.1,0.6,0.2,0.9C152.6,311.1,152.3,310.8,152.9,310.4z"/>
<path class="st121" d="M165.3,317.5c0.2-0.1,0.4-0.3,0.6-0.4C165.8,317.6,165.8,318,165.3,317.5z"/>
<path class="st10" d="M169.5,280.3c0.1-0.2,0.2-0.4,0.3-0.6c0-0.4,0.4-0.5,0.6-0.8c0.4-0.3,0.8-0.6,1.1-0.9c0.3-0.2,0.6-0.4,1-0.6
	c0.4-0.2,0.9-0.4,1.3-0.6c0.3,0,0.5-0.1,0.7-0.2c0.1,0,0.3,0,0.4,0c0.3-0.1,0.6-0.2,1-0.3c0.2,0,0.4,0,0.5,0.2
	c0.8,0.1,1.5,0.1,2.3,0.2c0.6,0.1,1.1,0.3,1.7,0.4c0.5,0.2,1,0.4,1.5,0.6c0.5,0.3,1,0.5,1.5,0.8c-0.4,0.4-1,0.3-1.5,0.6
	c-0.4,0.5-1.1,0.6-1.6,1c-0.6,0.3-1,0.9-1.8,1c-0.4,0.3-0.8,0.6-1.1,1c-0.4,0.2-0.7,0.5-1,0.9c-0.4,0.3-0.8,0.5-1.1,0.8
	c-0.4,0.2-0.9,0.4-1.3,0.6c-0.6,0.1-1.2,0.2-1.9,0.2c-1.2-0.4-2.2-1-2.7-2.3c-0.1-0.1-0.1-0.2-0.2-0.3c-0.1-0.4,0.1-0.8,0.2-1.2
	C169.5,280.6,169.5,280.5,169.5,280.3z"/>
<path class="st152" d="M157.2,295.1c-0.3,0.2-0.6,0.4-0.9,0.6c0-0.5-0.2-0.8-0.4-1.2c-1.5-2.9-0.7-6.8,1.4-9.1c1.6-1.9,3.7-3,6.1-3
	c3-0.1,5.6,1,7.4,3.5c2.3,3.2,2.4,6.5,0.4,9.9c-0.2-0.1-0.5-0.3-0.7-0.4c-0.3-0.4,0-0.7,0.2-1.1c1.5-3.1,0.2-6.4-1.7-8.2
	c-2.1-2-5.3-2.7-8-1.4c-3.6,1.6-5.5,5.8-3.8,9.5C157.1,294.4,157.4,294.7,157.2,295.1z"/>
<path class="st138" d="M169.4,282c0,0.1,0,0.1,0,0.2c-0.5,0.3-0.9-0.2-1.2-0.4c-3.5-1.6-6.9-1.4-10.1,0.8c-2.1,1.4-3.3,3.4-3.9,5.8
	c-0.1,0.3-0.1,0.6-0.4,0.8c-0.1-0.1-0.2-0.1-0.4-0.2c-0.1-1.7,0.6-3.3,1.6-4.6c2.2-3.1,5.3-4.7,9.1-4.6c1.8,0,3.6,0.6,5.2,1.5
	C169.5,281.5,169.2,281.8,169.4,282z"/>
<path class="st126" d="M169.4,282c-0.3-0.2-0.1-0.5-0.2-0.8c0-0.2,0-0.4,0.2-0.6C169.4,281.2,169.4,281.6,169.4,282z"/>
<path class="st144" d="M180.2,279.9c0.5-0.4,1.1-0.7,1.7-0.9c0.7,1.9,1.3,3.7,1.6,5.7c0.3,1.8,0.2,1.9-1.6,1.8
	c-0.2-0.2-0.2-0.5-0.3-0.8c-0.2-1.7-0.7-3.3-1.3-4.9C180.2,280.6,180,280.3,180.2,279.9z"/>
<path class="st153" d="M180.2,279.9c0.6,1.8,1.4,3.6,1.6,5.5c0,0.4,0.1,0.7,0.1,1.1c-0.6,0-1.1,0-1.7,0c-0.2-1.9-0.8-3.8-1.7-5.5
	C179,280.6,179.6,280.2,180.2,279.9z"/>
<path class="st10" d="M157.4,308.7c-0.2,0-0.4,0-0.6-0.2c-2.7-3.6-2.9-8.3,0.3-11.8c1.1-1.2,2.4-1.9,3.6-2.8
	c0.1-0.4,0.4-0.4,0.7-0.4c0.4,0,0.7-0.1,1-0.2c1-0.1,2,0,3,0.1c0.1,0,0.2,0,0.3,0c0.3,0.1,0.7,0.2,1,0.2c0.3,0.1,0.6,0.1,1,0.3
	c0.1,0.1,0.2,0.2,0.2,0.3c0.6,0.9,1.7,1.3,2.5,2.1c2.8,2.9,3.3,7.7,1.1,11.1c-0.3,0.4-0.3,1-0.9,1.2c-1.7-0.3-3.4-0.8-5.1-1.4
	c0.9-1.1,1.6-2.1,2.5-3.2c0.6-0.7,0.9-1.6,0.9-2.5c0.1-1.3-0.8-2.4-2.2-2.8c-1.8-0.5-3.6-0.5-5.3-0.1c-2.9,0.6-3.4,2.9-1.9,5.2
	c0.7,1.1,1.5,2,2.3,3c0.3,0.4,0.3,0.6-0.2,0.8C160.1,308,158.8,308.5,157.4,308.7z"/>
<path class="st154" d="M157.2,295.1c-0.4-0.9-0.8-1.8-1-2.8c-0.3-2.1,0.3-3.9,1.5-5.5c2.4-3.3,7.2-4.1,10.5-1.7
	c2.8,2.1,4.4,5.9,2.5,9.5c-0.1,0.2-0.2,0.5-0.3,0.7c-0.3-0.1-0.5-0.3-0.8-0.4c-0.3-0.4-0.1-0.7,0-1.1c0.5-2.1,0.5-4.1-0.9-5.8
	c-1.5-1.9-3.5-2.8-5.9-2.4c-2.4,0.4-4.1,1.7-5,4.1c-0.4,1.2-0.5,2.4-0.1,3.7c0.1,0.4,0.4,0.9,0.1,1.4
	C157.7,294.8,157.5,295.1,157.2,295.1z"/>
<path class="st155" d="M157.9,294.7c-0.5-1.8-0.9-3.5-0.1-5.4c1-2.3,2.7-3.6,5.1-4c2.5-0.4,4.5,0.5,6.1,2.5c1.6,2,1.6,4.2,0.8,6.5
	c-0.1,0.2-0.1,0.4-0.1,0.6c-0.4-0.2-0.8-0.2-1.1-0.5c-0.1-0.3,0-0.6,0.1-0.9c0.7-2.6-0.7-5.1-3.2-6c-2.4-0.8-5.1,0.4-6.1,2.8
	c-0.4,1-0.3,2-0.2,3.1c0,0.3,0.3,0.7,0,1C158.7,294.4,158.3,294.6,157.9,294.7z"/>
<path class="st156" d="M159.1,294.3c-0.7-2.3-0.6-4.3,1.2-6c1.7-1.6,4.7-1.8,6.5-0.4c2.2,1.6,2.8,4.2,1.7,6.5c-0.2,0-0.4,0-0.6,0
	c-0.1-0.1-0.1-0.1-0.2-0.2c-0.3-0.3-0.2-0.7-0.1-1.1c0.2-1.5-0.4-2.7-1.6-3.6c-1.3-0.9-2.7-1.1-4.1-0.2c-1.4,0.8-2,2-1.9,3.6
	c0,0.4,0.2,0.7-0.1,1.1C159.7,294.1,159.4,294.3,159.1,294.3z"/>
<path class="st157" d="M176.4,276.6c-0.2,0-0.4,0-0.5,0c-0.2,0.1-0.4,0.1-0.6,0c-0.2-0.9-1.1-1.2-1.7-1.7c-2.3-1.8-5-2.7-8-3.1
	c-4.2-0.5-8.1,0.4-11.6,2.8c-1.4,0.9-2.6,2.1-3.7,3.5c-0.3,0.5-0.7,0.9-1.4,0.7c-0.1-0.8,0.5-1.2,0.9-1.7c2.9-3.4,6.5-5.6,11-6.2
	c5.3-0.8,10.1,0.6,14.2,3.9C175.7,275.3,176.4,275.7,176.4,276.6z"/>
<path class="st136" d="M175.3,276.6c0.2,0,0.4,0,0.6,0c-0.3,0.2-0.6,0.2-1,0.2C175,276.6,175.2,276.6,175.3,276.6z"/>
<path class="st34" d="M159.7,310.7c1.3-0.5,2.6-0.8,3.9-1.4c0.1-0.1,0.3-0.1,0.4,0c1.3,0.5,2.6,0.9,4,1.5
	C165.2,311.3,162.5,311.3,159.7,310.7z"/>
<path class="st95" d="M163,300.7c-0.1,0.6-0.5,1-1.2,1.1c-0.7,0-1.3-0.5-1.3-1.2c0-0.7,0.5-1.2,1.2-1.2
	C162.5,299.4,163,299.9,163,300.7z"/>
<path class="st121" d="M156,311.5c-0.3,0.4-0.8,0.2-1.1,0.2C155.2,311.5,155.6,311.5,156,311.5z"/>
<path class="st121" d="M173.1,311.7c-0.4,0-0.8,0.2-1.2-0.2C172.3,311.5,172.7,311.5,173.1,311.7z"/>
<path class="st121" d="M157,311.3c-0.3,0.4-0.6,0.2-1,0.2C156.3,311.3,156.6,311.3,157,311.3z"/>
<path class="st158" d="M160,293.9c-0.4-1.7-0.2-3.3,1.2-4.5c1.2-1.1,3.1-1.3,4.6-0.4c1.5,0.9,2.3,2.6,2,4.2
	c-0.1,0.3-0.1,0.6-0.1,0.9c-0.3-0.1-0.6-0.1-0.9-0.2c-0.3-0.3-0.2-0.6-0.2-1c-0.1-1.7-1.1-2.9-2.6-2.9c-1.5-0.1-2.7,1.1-2.9,2.8
	c0,0.4,0,0.9-0.5,1.1C160.4,293.9,160.2,293.9,160,293.9z"/>
<path class="st159" d="M160.6,293.9c0.5-0.5,0.2-1.1,0.3-1.7c0.5-1.7,1.8-2.7,3.5-2.4c1.3,0.2,2.6,1.6,2.4,3.1c0,0.3,0,0.7,0,1
	c-0.3-0.1-0.6-0.1-0.9-0.2c-0.2-0.2-0.1-0.5-0.1-0.8c-0.2-0.9-0.8-1.6-1.6-1.7c-0.8-0.1-1.6,0.4-1.9,1.3c-0.2,0.4-0.1,1-0.6,1.2
	c-0.3,0.1-0.5,0.1-0.8,0.2C160.7,293.9,160.6,293.9,160.6,293.9z"/>
<path class="st160" d="M161.5,293.7c0.1-0.4,0.2-0.8,0.4-1.3c0.4-1.2,1.4-1.8,2.5-1.5c1.2,0.4,1.8,1.5,1.5,2.7c-0.1,0-0.1,0-0.2,0
	c-0.3-0.1-0.6-0.2-0.8-0.6c-0.5-1.1-1.3-1.1-1.9-0.2c-0.1,0.2-0.3,0.4-0.5,0.6C162.2,293.7,161.9,293.8,161.5,293.7z"/>
<path class="st161" d="M162.5,293.6c0.1-0.4,0.3-0.9,0.6-1.2c0.6-0.7,1.8-0.4,2,0.5c0.1,0.4,0.3,0.6,0.6,0.8
	C164.6,293.5,163.5,293.6,162.5,293.6z"/>
</svg>
