<?xml version="1.0" encoding="utf-8"?>
<!-- Generator: Adobe Illustrator 19.0.0, SVG Export Plug-In . SVG Version: 6.00 Build 0)  -->
<svg version="1.1" id="Shiba" xmlns="http://www.w3.org/2000/svg" xmlns:xlink="http://www.w3.org/1999/xlink" x="0px" y="0px"
	 viewBox="112.9 230.5 100 100" style="enable-background:new 112.9 230.5 100 100;" xml:space="preserve">
<style type="text/css">
	.st0{fill:#F00500;}
	.st1{fill:#FFFFFF;}
	.st2{fill:none;}
	.st3{fill:#FFA409;}
	.st4{fill:#FF9300;}
	.st5{fill:#FF8300;}
</style>
<g id="Group_931">
	<path id="Path_8573" class="st0" d="M185.7,240.1c-2.5,2.5-4.9,5.3-6.9,8.2l-0.7-0.2c-3.8-1.2-7.7-2-11.6-2.3
		c-1.2-0.1-5.6-0.1-7.1,0c-4.4,0.3-7.7,0.9-11.5,2.3c-0.2,0.1-0.3,0.1-0.4,0.2c-2.1-2.9-4.5-5.7-7.2-8.2c12.6-6.5,27.4-7.2,40.6-2.1
		c1.4,0.5,2.8,1.2,4.2,1.8L185.7,240.1z"/>
	<path id="Path_8574" class="st0" d="M209.2,297.8c-1.9,5.5-4.8,10.5-8.5,14.9c-2,2.4-4.3,4.5-6.7,6.5c-5.6,4.5-12.2,7.8-19.2,9.5
		c-7.8,1.9-15.9,1.9-23.6,0c-7-1.7-13.6-4.9-19.2-9.5c-2.4-2-4.6-4.2-6.7-6.5c-10.7-12.7-14-30.1-8.5-45.8c1-2.9,2.3-5.7,3.9-8.4
		c0.7-1.2,1.6-2.6,2-3.1c1.5,6.3,3.3,11.8,3.9,13.8c0,0.1-0.1,0.2-0.2,0.3c-3.5,7.2-5.5,14.1-5.9,21.5c0,0.1,0,0.2,0,0.3
		c-0.1,2.2-0.1,3.3,0.3,4.6c1.1,4.3,4.7,9.1,10.2,13.8c9,7.7,21.3,13.2,30.5,13.8c9.7,0.7,23.9-5,33.4-13.2c1.5-1.3,2.9-2.7,4.2-4.2
		c0.9-1.1,2.3-3,2.2-3c0,0,0,0,0.1-0.1c0,0,0.1-0.1,0.1-0.1c0,0,0-0.1,0.1-0.1c0,0,0.1,0,0.1-0.1s0-0.1,0.1-0.1c0,0,0.1-0.1,0-0.1
		s0-0.1,0-0.1s0.1,0,0.1-0.1c0,0,0-0.1,0.1-0.1c0,0,0.1,0,0.1-0.1c0-0.1,0.1-0.2,0.2-0.3c0.2-0.4,1.1-2,1.3-2.3
		c0.9-2,1.4-3.7,1.7-5.5c0.1-0.8,0.2-2.4,0.1-2.7c0-0.1,0-0.2,0-0.3c0-0.3,0-0.8-0.1-1.2c0-0.7-0.1-1.6-0.1-2.1
		c-0.7-6.9-2.4-12.6-5.8-18.5c-0.1-0.2-0.3-0.5-0.3-0.6c0,0,0-0.1-0.1-0.1l0,0c0.5-1.4,2.4-7.3,3.9-14.1l0,0l0.2,0.3
		c0.4,0.5,1.4,2.1,1.9,2.9c2.1,3.5,3.8,7.3,5,11.2C212.7,278.4,212.4,288.5,209.2,297.8z"/>
	<path id="Path_8575" d="M189.5,279.6c0,0.2-0.8,1-1.5,1.5c-2.1,1.5-5.9,3-9.7,3.7c-2.2,0.4-4.4,0.5-5,0.1c-0.4-0.2-0.5-0.4-0.3-0.9
		c0.3-1.1,1.4-2.4,3-3.6c0.8-0.6,4.2-2.6,5.7-3.5c2.6-1.4,4.6-2.2,6-2.4c0.4-0.1,1-0.1,1.1,0c0.3,0.1,0.6,0.9,0.7,1.9
		C189.6,276.9,189.5,279.2,189.5,279.6z"/>
	<path id="Path_8576" d="M153.6,284.7c-0.1,0.2-0.5,0.4-1.1,0.5c-0.5,0.1-2.1,0-3-0.1c-3.2-0.4-6.6-1.4-9.1-2.6
		c-1.4-0.7-2.4-1.4-3.1-2.1l-0.4-0.4l0-0.6c-0.1-1-0.1-2.6,0.1-3.1c0.1-0.5,0.2-0.9,0.5-1.3c0.1-0.2,0.1-0.2,0.7-0.2
		c0.7,0,1.2,0.1,2.1,0.4c1.9,0.6,4.7,2,8,4c2.8,1.7,3.9,2.5,4.7,3.6C153.4,283.4,153.8,284.3,153.6,284.7z"/>
	<path id="Path_8577" d="M175.2,305.8c0,0-0.2,0.8-0.4,1.6c-0.2,0.9-0.4,1.6-0.4,1.6c-0.2,0-0.3,0-0.5,0h-0.5l-0.7,1.6
		c-0.4,0.9-0.7,1.7-0.7,1.8l-0.1,0.2l-0.3-0.5l-0.3-0.5v-4.2l-0.1,0c-0.3,0.1-2.1,0.3-2.9,0.4c-3.3,0.3-6.7,0.3-10-0.2
		c-0.5-0.1-1-0.1-1-0.1c0,0,0,1,0,2.2l0,2.2l-0.3,0.4c-0.1,0.2-0.3,0.4-0.3,0.4c0,0-0.2-0.2-0.5-0.9c-0.4-0.7-0.7-1.5-0.9-2.3
		l-0.1-0.4l-0.5,0l-0.5,0l-0.1-0.6c-0.1-0.3-0.1-0.8-0.2-1l0-0.5l-0.4-0.4c-0.2-0.2-0.5-0.4-0.5-0.4c-0.1-0.1-0.1-0.2-0.1-0.3v-0.2
		l1.9,0l1.9,0l0.1,0.2l0.1,0.2l0.7,0c0.4,0,1.5,0,2.6,0.1l1.9,0l0.5-0.8l0.5-0.8h0.6l0-1.6l0-1.6l-0.8-0.4c-2.7-1.2-4.3-2.5-4.9-4.2
		c-0.1-0.3-0.1-0.5-0.2-2c0-1.5,0-1.6,0.1-2c0.2-0.8,0.8-1.4,1.6-1.6c0.3-0.1,0.9-0.1,4.5-0.1l4.2,0l0.5,0.2
		c0.6,0.3,0.8,0.5,1.1,0.9c0.4,0.5,0.5,0.9,0.5,1.8c0,1.3-0.1,2.5-0.2,2.9c-0.2,0.6-0.5,1.2-0.9,1.8c-0.8,1-2.1,1.9-3.4,2.4
		l-0.4,0.1l0,1.6l0,1.6l0.3,0l0.3,0l0.5,0.7l0.4,0.7h2c1.1,0,2.1,0,2.2,0c0.2,0,0.2,0,0.3-0.2l0.2-0.3h1.8
		C174.8,305.8,175.2,305.8,175.2,305.8z"/>
	<path id="Path_8578" d="M167.1,310.2c-0.3,0.2-0.5,0.2-0.5,0.2c0,0-0.3-0.2-0.5-0.4l-0.4-0.3l-0.4,0.5c-0.9,1-1,1.1-1.2,1.1
		c-0.4,0-0.5,0-1-0.8c-0.3-0.4-0.5-0.7-0.5-0.7s-0.2,0-0.4,0l-0.4,0l-0.2,0.4l-0.2,0.4l-0.4-0.1c-0.3-0.1-0.5-0.2-0.8-0.3l-0.5-0.2
		v-0.9l4,0l4,0l0,0.4C167.8,309.8,167.8,309.8,167.1,310.2z"/>
</g>
<path id="Path_8579" class="st1" d="M205.2,291.6c0-0.1,0-0.2,0-0.3c-3.7-0.4-14.1-0.6-23.8,7.3c0,0-3.1-14.3-17.7-14.3
	s-20,14.3-20,14.3c-8.2-8.8-19.1-8.2-23.1-7.6c0,0.1,0,0.2,0,0.3c-0.1,2.2-0.1,3.3,0.3,4.6c1.1,4.3,4.7,9.1,10.2,13.8
	c9,7.7,21.3,13.2,30.5,13.8c9.7,0.7,23.9-5,33.4-13.2c1.5-1.3,2.9-2.7,4.2-4.2c0.9-1.1,2.3-3,2.2-3c0,0,0,0,0.1-0.1
	c0,0,0.1-0.1,0.1-0.1c0,0,0-0.1,0.1-0.1c0,0,0.1,0,0.1-0.1c0,0,0-0.1,0.1-0.1c0,0,0.1-0.1,0-0.1c0,0,0-0.1,0-0.1c0,0,0.1,0,0.1-0.1
	c0,0,0-0.1,0.1-0.1c0,0,0.1,0,0.1-0.1c0-0.1,0.1-0.2,0.2-0.4c0.2-0.4,1.1-2,1.3-2.3c0.9-2,1.4-3.7,1.7-5.5
	C205.2,293.5,205.2,292,205.2,291.6z M167.1,310.2c-0.3,0.2-0.5,0.2-0.5,0.2c0,0-0.3-0.2-0.5-0.4l-0.4-0.3l-0.4,0.5
	c-0.9,1-1,1.1-1.2,1.1c-0.4,0-0.5,0-1-0.8c-0.3-0.4-0.5-0.7-0.5-0.7s-0.2,0-0.4,0l-0.4,0l-0.2,0.4l-0.2,0.4l-0.4-0.1
	c-0.3-0.1-0.5-0.2-0.8-0.3l-0.5-0.2v-0.9l4,0l4,0l0,0.4C167.8,309.8,167.8,309.8,167.1,310.2z M174.7,307.5
	c-0.2,0.9-0.4,1.6-0.4,1.6c-0.2,0-0.3,0-0.5,0h-0.5l-0.7,1.6c-0.4,0.9-0.7,1.7-0.7,1.8l-0.1,0.2l-0.3-0.5l-0.3-0.5v-4.2l-0.1,0
	c-0.3,0.1-2.1,0.3-2.9,0.4c-3.3,0.3-6.7,0.3-10-0.2c-0.5-0.1-1-0.1-1-0.1c0,0,0,1,0,2.2l0,2.2l-0.3,0.4c-0.1,0.2-0.3,0.4-0.3,0.4
	c0,0-0.2-0.2-0.5-0.9c-0.4-0.7-0.7-1.5-0.9-2.3l-0.1-0.4l-0.5,0l-0.5,0l-0.1-0.6c-0.1-0.3-0.1-0.8-0.2-1l0-0.5l-0.4-0.4
	c-0.2-0.2-0.5-0.4-0.5-0.4c-0.1-0.1-0.1-0.2-0.1-0.3v-0.2l1.9,0l1.9,0l0.1,0.2l0.1,0.2l0.7,0c0.4,0,1.5,0,2.6,0.1l1.9,0l0.5-0.8
	l0.5-0.8h0.6l0-1.6l0-1.6l-0.8-0.4c-2.7-1.2-4.3-2.5-4.9-4.2c-0.1-0.3-0.1-0.5-0.2-2c0-1.5,0-1.6,0.1-2c0.2-0.8,0.8-1.4,1.6-1.6
	c0.3-0.1,0.9-0.1,4.5-0.1l4.2,0l0.5,0.2c0.6,0.3,0.8,0.5,1.1,0.9c0.4,0.5,0.5,0.9,0.5,1.8c0,1.3-0.1,2.5-0.2,2.9
	c-0.2,0.6-0.5,1.2-0.9,1.8c-0.8,1-2.1,1.9-3.4,2.4l-0.4,0.1l0,1.6l0,1.6l0.3,0l0.3,0l0.5,0.7l0.4,0.7h2c1.1,0,2.1,0,2.2,0
	c0.2,0,0.2,0,0.3-0.2l0.2-0.3h1.8c1.4,0,1.7,0,1.7,0.1C175.2,305.9,175,306.6,174.7,307.5z"/>
<path id="Path_8580" class="st2" d="M120.5,291.1c-1,0.1-1.5,0.3-1.5,0.3"/>
<path id="Path_8581" class="st2" d="M206.5,291.5c0,0-0.5-0.1-1.4-0.2"/>
<path id="Path_8582" class="st3" d="M205.1,290.1c0-0.7-0.1-1.6-0.1-2.1c-0.7-6.9-2.4-12.6-5.8-18.5c-0.1-0.2-0.3-0.5-0.3-0.6
	c0,0,0-0.1-0.1-0.1l0,0c0.5-1.4,2.4-7.3,3.9-14.1c2.1-9.2,3.4-19.9-0.6-23.2c0,0-7-0.5-16.4,8.7c-2.5,2.5-4.9,5.3-6.9,8.2l-0.7-0.2
	c-3.8-1.2-7.7-2-11.6-2.3c-1.2-0.1-5.6-0.1-7.1,0c-4.4,0.3-7.7,0.9-11.5,2.3c-0.2,0.1-0.3,0.1-0.4,0.2c-2.1-2.9-4.5-5.7-7.2-8.2
	c-9.8-9.2-17-8.7-17-8.7c-4.3,3.3-2.8,14.6-0.6,24.1c1.5,6.3,3.3,11.8,3.9,13.8c0,0.1-0.1,0.2-0.2,0.3c-3.5,7.2-5.5,14.1-5.9,21.5
	c4-0.6,14.9-1.2,23.1,7.6c0,0,5.4-14.3,20-14.3s17.7,14.3,17.7,14.3c9.7-8,20.1-7.7,23.8-7.3C205.1,291,205.1,290.5,205.1,290.1z
	 M129.5,263.5c0,0-5.7-14.2-4.2-22.4l0,0c0.2-1.4,0.7-2.6,1.4-3.5c0,0,6.5,0.6,16.9,12.2c0,0-2,1-4.6,3c0,0,0,0,0,0
	C136,255.1,132.3,258.6,129.5,263.5L129.5,263.5z M153.6,284.7c-0.1,0.2-0.5,0.4-1.1,0.5c-0.5,0.1-2.1,0-3-0.1
	c-3.2-0.4-6.6-1.4-9.1-2.6c-1.4-0.7-2.4-1.4-3.1-2.1l-0.4-0.4l0-0.6c-0.1-1-0.1-2.6,0.1-3.1c0.1-0.5,0.2-0.9,0.5-1.3
	c0.1-0.2,0.1-0.2,0.7-0.2c0.7,0,1.2,0.1,2.1,0.4c1.9,0.6,4.7,2,8,4c2.8,1.7,3.9,2.5,4.7,3.6C153.4,283.4,153.8,284.3,153.6,284.7z
	 M189.5,279.6c0,0.2-0.8,1-1.5,1.5c-2.1,1.5-5.9,3-9.7,3.7c-2.2,0.4-4.4,0.5-5,0.1c-0.4-0.2-0.5-0.4-0.3-0.9c0.3-1.1,1.4-2.4,3-3.6
	c0.8-0.6,4.2-2.6,5.7-3.5c2.6-1.4,4.6-2.2,6-2.4c0.4-0.1,1-0.1,1.1,0c0.3,0.1,0.6,0.9,0.7,1.9C189.6,276.9,189.5,279.2,189.5,279.6z
	 M186.9,252.9L186.9,252.9c-2.6-2.1-4.5-3-4.5-3c10.1-11.6,16.3-12.2,16.3-12.2c0.7,0.9,1.1,2.1,1.4,3.5l0,0
	c1.4,8.1-4.1,22.4-4.1,22.4C193.7,259.4,190.6,255.8,186.9,252.9L186.9,252.9z"/>
<path id="Path_8583" class="st2" d="M178.7,248.3c0,0,0,0.1-0.1,0.1"/>
<path id="Path_8584" class="st2" d="M198.7,268.7c-0.1,0.2-0.1,0.3-0.1,0.3"/>
<g id="Group_934">
	<g id="Group_933">
		<g id="Group_932">
			<path id="Path_8585" class="st4" d="M200.1,241.1c-1.2-0.2-6.8-0.2-13.2,11.7l0,0c-2.6-2-4.5-3-4.5-3
				c10.1-11.6,16.3-12.2,16.3-12.2C199.4,238.6,199.9,239.8,200.1,241.1z"/>
		</g>
		<path id="Path_8586" class="st5" d="M196,263.5c-2.3-4.1-5.4-7.7-9.1-10.6c6.4-11.9,12-11.9,13.2-11.7l0,0
			C201.5,249.3,196,263.5,196,263.5z"/>
		<path id="Path_8587" class="st5" d="M200.3,241.2c-0.1,0-0.2,0-0.2,0L200.3,241.2z"/>
	</g>
</g>
<path id="Path_8588" class="st2" d="M147.9,248.9c-0.2-0.2-0.3-0.4-0.5-0.6"/>
<path id="Path_8589" class="st2" d="M126.6,269.3c0.2,0.5,0.3,0.8,0.3,0.8"/>
<g id="Group_937">
	<g id="Group_936">
		<g id="Group_935">
			<path id="Path_8590" class="st4" d="M143.5,249.9c0,0-2,1-4.6,3c0,0,0,0,0,0c-6.6-11.9-12.4-11.9-13.6-11.7
				c0.2-1.4,0.7-2.6,1.4-3.5C126.7,237.7,133.1,238.3,143.5,249.9z"/>
		</g>
		<path id="Path_8591" class="st5" d="M138.9,252.9c-2.9,2.2-6.6,5.7-9.4,10.6c0,0-5.7-14.2-4.2-22.4l0,0
			C126.5,241,132.3,241,138.9,252.9z"/>
		<path id="Path_8592" class="st5" d="M125.2,241.1c-0.1,0-0.2,0-0.2,0L125.2,241.1z"/>
	</g>
</g>
<path id="Path_8593" class="st1" d="M180.6,271.4c0,0-4.9,0.3-4.3-3.5c0.6-3.8,4.4-4.3,5.5-4.1c1.1,0.2,5.3,1.7,4.6,4.9
	s-1.8,2.6-2.4,2.7C183.4,271.6,180.6,271.4,180.6,271.4z"/>
<path id="Path_8594" class="st1" d="M144.7,271.4c0,0-4.9,0.3-4.3-3.5c0.6-3.8,4.4-4.3,5.5-4.1c1.1,0.2,5.3,1.7,4.6,4.9
	s-1.8,2.6-2.4,2.7C147.5,271.6,144.7,271.4,144.7,271.4z"/>
</svg>
