<?xml version="1.0" encoding="utf-8"?>
<!-- Generator: Adobe Illustrator 19.0.0, SVG Export Plug-In . SVG Version: 6.00 Build 0)  -->
<svg version="1.1" id="Logo" xmlns="http://www.w3.org/2000/svg" xmlns:xlink="http://www.w3.org/1999/xlink" x="0px" y="0px"
	 viewBox="770 -970 2500 2500" enable-background="new 770 -970 2500 2500" xml:space="preserve">
<circle fill="#F3BA2F" cx="2024.4" cy="284.4" r="1232.5"/>
<path id="Outer" fill="#FFFFFF" d="M1649.7,130.4l367.8-367.8l368,367.9l214-214l-582-581.9L1435.7-83.6L1649.7,130.4 M1070.6,281.5
	l214-214l214,214l-214,214L1070.6,281.5z M1649.7,432.6l367.8,367.8l368-367.9l214.1,213.9l-0.1,0.1l-582,581.9l-581.8-581.8
	l-0.3-0.3L1649.7,432.6 M2536.4,281.6l214-214l214,214l-214,214L2536.4,281.6z"/>
<path id="Center" fill="#FFFFFF" d="M2234.5,281.4L2234.5,281.4l-217-217.1L1857,224.7l0,0l-18.4,18.4l-38,38l-0.3,0.3l0.3,0.3
	l217,217l217.1-217.1l0.1-0.1L2234.5,281.4"/>
</svg>
